<mxfile host="app.diagrams.net" modified="2021-06-18T02:41:31.156Z" agent="5.0 (Windows NT 10.0; Win64; x64) AppleWebKit/537.36 (KHTML, like Gecko) Chrome/89.0.4389.128 Safari/537.36" etag="3L038xN7hNHJUGdRmPbV" version="14.8.0" type="github">
  <diagram id="J6HvM4VCaCRB-Y_LOkVu" name="Page-1">
    <mxGraphModel dx="834" dy="432" grid="1" gridSize="10" guides="1" tooltips="1" connect="1" arrows="1" fold="1" page="1" pageScale="1" pageWidth="850" pageHeight="1100" math="0" shadow="0">
      <root>
        <mxCell id="0" />
        <mxCell id="1" parent="0" />
        <mxCell id="9fY33cOpb0TvVjGmPDQJ-2" value="Second time writing this :(" style="text;html=1;align=center;verticalAlign=middle;resizable=0;points=[];autosize=1;strokeColor=none;" vertex="1" parent="1">
          <mxGeometry x="20" y="10" width="150" height="20" as="geometry" />
        </mxCell>
        <mxCell id="9fY33cOpb0TvVjGmPDQJ-3" value="Strategy at first:&amp;nbsp;&lt;br&gt;... it was kinda nieve" style="text;html=1;align=center;verticalAlign=middle;resizable=0;points=[];autosize=1;strokeColor=none;" vertex="1" parent="1">
          <mxGeometry x="20" y="50" width="120" height="30" as="geometry" />
        </mxCell>
        <mxCell id="9fY33cOpb0TvVjGmPDQJ-4" value="Python Simulation" style="text;html=1;align=left;verticalAlign=middle;resizable=0;points=[];autosize=1;strokeColor=none;" vertex="1" parent="1">
          <mxGeometry x="25" y="130" width="110" height="20" as="geometry" />
        </mxCell>
        <mxCell id="9fY33cOpb0TvVjGmPDQJ-5" value="&lt;div&gt;6 Dice&lt;/div&gt;&lt;div&gt;&amp;nbsp; &amp;nbsp;Chance of egg:0.023&lt;/div&gt;&lt;div&gt;&amp;nbsp; &amp;nbsp;Average score:388.535&lt;/div&gt;&lt;div&gt;&amp;nbsp; &amp;nbsp;Average farkles:0.084&lt;/div&gt;&lt;div&gt;5 Dice&lt;/div&gt;&lt;div&gt;&amp;nbsp; &amp;nbsp;Chance of egg:0.077&lt;/div&gt;&lt;div&gt;&amp;nbsp; &amp;nbsp;Average score:203.286&lt;/div&gt;&lt;div&gt;&amp;nbsp; &amp;nbsp;Average farkles:0.030&lt;/div&gt;&lt;div&gt;4 Dice&lt;/div&gt;&lt;div&gt;&amp;nbsp; &amp;nbsp;Chance of egg:0.157&lt;/div&gt;&lt;div&gt;&amp;nbsp; &amp;nbsp;Average score:132.716&lt;/div&gt;&lt;div&gt;&amp;nbsp; &amp;nbsp;Average farkles:0.040&lt;/div&gt;&lt;div&gt;3 Dice&lt;/div&gt;&lt;div&gt;&amp;nbsp; &amp;nbsp;Chance of egg:0.278&lt;/div&gt;&lt;div&gt;&amp;nbsp; &amp;nbsp;Average score:83.565&lt;/div&gt;&lt;div&gt;&amp;nbsp; &amp;nbsp;Average farkles:0.056&lt;/div&gt;&lt;div&gt;2 Dice&lt;/div&gt;&lt;div&gt;&amp;nbsp; &amp;nbsp;Chance of egg:0.444&lt;/div&gt;&lt;div&gt;&amp;nbsp; &amp;nbsp;Average score:50.000&lt;/div&gt;&lt;div&gt;&amp;nbsp; &amp;nbsp;Average farkles:0.111&lt;/div&gt;&lt;div&gt;1 Dice&lt;/div&gt;&lt;div&gt;&amp;nbsp; &amp;nbsp;Chance of egg:0.667&lt;/div&gt;&lt;div&gt;&amp;nbsp; &amp;nbsp;Average score:25.000&lt;/div&gt;&lt;div&gt;&amp;nbsp; &amp;nbsp;Average farkles:0.333&lt;/div&gt;" style="text;html=1;align=center;verticalAlign=middle;resizable=0;points=[];autosize=1;strokeColor=none;" vertex="1" parent="1">
          <mxGeometry x="5" y="170" width="150" height="330" as="geometry" />
        </mxCell>
        <mxCell id="9fY33cOpb0TvVjGmPDQJ-6" value="&lt;div style=&quot;text-align: left&quot;&gt;&lt;span&gt;Conclusions:&lt;/span&gt;&lt;/div&gt;&lt;div style=&quot;text-align: left&quot;&gt;&lt;span&gt;Some conclusions can be made about when to not choose a 5 from this data, but I won&#39;t worry about that for now&lt;/span&gt;&lt;/div&gt;" style="text;html=1;align=center;verticalAlign=middle;resizable=0;points=[];autosize=1;strokeColor=none;" vertex="1" parent="1">
          <mxGeometry x="20" y="520" width="620" height="30" as="geometry" />
        </mxCell>
        <mxCell id="9fY33cOpb0TvVjGmPDQJ-7" value="" style="shape=image;verticalLabelPosition=bottom;labelBackgroundColor=#ffffff;verticalAlign=top;aspect=fixed;imageAspect=0;image=data:image/png,iVBORw0KGgoAAAANSUhEUgAAAuwAAAINCAYAAABlOCrbAAAgAElEQVR4Ae29DdAcVZ3/m9otAUEgsKJeXjbZAhEqasKLIAg32XUNBCoEjREQhfx5iW4QEkBevbVJuQqGlyQQw2tieIfNHwgYQBC4yZWY5T2CWSFLNHeBWGwAQyIquHvr3Poe/A095+me7p7pmae753Oqprr7nNOnT3/Ob/r5TD9neoY4EgQgAAEIQAACEIAABCBQWgJDStszOgYBCEAAAhCAAAQgAAEIOISdIIAABCAAAQhAAAIQgECJCSDsJR4cugYBCEAAAhCAAAQgAAGEnRiAAAQgAAEIQAACEIBAiQkg7CUeHLoGAQhAAAIQgAAEIAABhJ0YgAAEIAABCEAAAhCAQIkJIOwlHhy6BgEIQAACEIAABCAAAYSdGIAABCAAAQhAAAIQgECJCSDsJR4cugYBCEAAAhCAAAQgAAGEnRiAAAQgAAEIQAACEIBAiQkg7CUeHLoGAQhAAAIQgAAEIAABhJ0YgAAEIAABCEAAAhCAQIkJIOwlHhy6BgEIQAACEIAABCAAAYSdGIAABCAAAQhAAAIQgECJCSDsJR4cugYBCEAAAhCAAAQgAAGEnRiAAAQgAAEIQAACEIBAiQkg7CUeHLoGAQhAAAIQgAAEIAABhJ0YgAAEIAABCEAAAhCAQIkJIOwlHhy6BgEIQAACEIAABCAAAYSdGIAABAadwMsvv+yefPJJ9/bbbxfel2XLlrkxY8a4mTNnNrWdlN9UiY1BIWBjo3HLk9rdL88xqAsBCEBgMAgg7INBnWNCAALurbfechMnTnQ777yzGzJkSOO15557DpDrTnBJ4tR+nLDH5XdyLPYthoCNWTvCrjHNu1/Y6xkzZgyIl7AO2xCAAAR6SQBh7yVtjgUBCHgCL730kjvooIO8SA8dOtQdffTR7txzz3Vf+tKX3PDhwwuVJZO/OGGPu/POEA0+ARuzvOKt/bRP3v3CM7YPkGE+2xCAAAQGiwDCPljkOS4E+pjAF77wBS/rxxxzjPv1r389gMSDDz44IK/dDJO/UNjbbY/9uk/AxqxT8W63pwh7u+TYDwIQ6BYBhL1bZGkXAhCIJTBv3jwv6//4j/8YW95J5muvvebnwmtpyeSvXWFft26dW758uX9pPS1Z/Sx109pS3+3Yq1atSqvuy6P7pO1gfc3atrW3cePGRr+0HqZ227V2bMxCYVc/16xZ4/70pz9Z1VzLaL/FNem88wq7MY9jEdfBV155xa1cudKtX78+rjg1z44Xxlh4fqkNBRU2b97s1Pbvf//7oOS9TbF//vnn/XS22ApkQgACXSOAsHcNLQ1DAAIhgf/+7/92u+22mxf2hQsXhsUdbZ955pm+XZOtT3/60+7666/3AqK8UNhNCsN868ScOXOcputYe7bUlJ1QlLSP6lsdW2r/JUuWWJOZl5pDHXds5cVJpvojubXjRpdqK0zqU1z7c+fODav67dGjR/u2td/06dObjiOOlvK2a/uFSxsbE3ZNlYr2d/fdd3c/+clPwt0aY237RSuceOKJTf02RlGmYmX5cctoe5JjTeUK640aNSo2PrSvBH38+PFN+4wYMcItXrzYx6faCuPR+qRlGJM2tuKl44Z90bbGK+6DhDHW8VavXt2YomZtHHzwwY3Tveiii9yuu+7a1L76QoIABHpHAGHvHWuOBIG+J7Bhw4bGH33drXvggQfcj370Iy8pN954o3vkkUfaYqSpNRINyc+CBQt8u5deeqnPk5CoLBShqLCEBzW523777d20adPcokWL/Evrw4YN82IY3WfChAn+GCqTRKm+ltpfxzaxiu6TtK5jaB9rS/2UCKuNkSNHDji2yk1mJdaqpzwt1S/lRVP0g4WOpW3Vtb5Onjw5Wt2vm7BLClVPfLSP9rcPENbvKDPV0XnofFSeNdnYSLz1wUvjesopp/gxtPHUl5XDO9TR/aLHsr6lMTVu6q+Nm87BXtamBFgf3FRHY6JycbQ4iH4IsH203G+//fw+kyZNcjfddFOmOFXbOo4JuY5h/VGcKWlb56bzVD8sXox93AcYYyWe22yzjdM0Ncm9tsVbxzz99NN9LGv9qKOOauKvvKVLl0ZPj3UIQKCLBBD2LsKlaQhAoJmAJF1/6D/2sY/5P/5aD1+HHHJI804pW5IGtSGB053CaNKdS2s/q7BLdrSPZMdkNNqm1qN3LCVNqi+pjeZbPQmsBC7urnzYrrYlgGovbCuurvJMyiRtcSnajtZN7iVs0aRzNWkPy0zYVR7HxORPfYkeT+1r2/oYt2+0D7Zu7X3wgx+M/QKpPlSIUdKYhoKqfusV9s2OFy7Vtl5JySRa8hy2aR/2wj5ce+21vs3DDz98QLOt4tSOpf6YoIcNtIoti6dwTI1xHEc9YtUYaBnuax+G9d8CEgQg0BsCyVek3hyfo0AAAn1E4PHHH/ci8Pd///d+qbumkuxNmza5u+66y+2yyy4+f8qUKZmp2BSDUN6sgaRyE5ZwPxOcJDmydm1pMpokTXZ3N0morR1bmjSHImjl0aV9WFCfsyS7uy7RjEsmh2G5CXvSXXLVl9jpw05csg9BSfuH+9jYSNjDu+iqa+UnnXRS066WH8qy+qY74lmTyWpSfSuPG3ONm41h9APKoYce6hlddtllsc3qQ6zaDePRxiTrGIeNG/sw/ozV2LFjw138thjG9UeFJvR6BCsJAhDoDQGEvTecOQoEIOCcM2GXCIRSJUA//elPvSSo/OGHH87EbK+99vL7PPHEE7H1L7/88ljxMGEJBUnH1itrUl3dtbYvh4ZLzQtXnayyavIrwbzhhhta3pk3mQtlLKnvdvdX4h6XjEkotybsKo9LJqj33HNPLAdjoHayJOuHpmbEJSsPZdPyw9iyD2HKF9O0D0OtYkASrnJ9UEtKxiv6AUbz7rXfc889F7ub5umrPIzHPGOs42l/TW3RueoVnUoTPbCx0rSXuKR91R99kA6TfuBMZVtttVVYxDYEINAlAtn/KnWpAzQLAQj0DwE9f11/6PX6wQ9+EHvidkc86x3ubbfd1rf35ptvxrYn4dDxQhEyYYnm646p6kpAsyRrw86p1TKrrKoPJnzWngRaEhbe0bV6UTFs1W+rr34nJTtmtDxtP9snbal2siTjKmmMS0nlSfmSbJN266NENukLmVan1bFbnUucZG+55ZY+tv74xz/GNet/h0DHjcajKsa1FTaguFCMWL+1VAyrj3beYX+NVXg8a9uEXfXikh0rrow8CECgeAIIe/FMaRECEEggIKm2P/RJX1g7++yzfR09mSJL2m677Xz9119/Pba6TQkIxSROWEzY1ccsydqQFGm91Ss6PSJL26ovWZNoGTPdydcxLNnd+KwfbqytaBvWlpa682zHiuan7Wf7tDp/lWVloLpqsyhht3NRu/pPh0msjiGmYb/sfGy/6NL6FgpwtI6OoTY0fpZ22mknn/fqq69aVtPy1FNP9eVhnGYRdjsf1Q0/1CX11/LD41mnEHYjwRIC5SCQ7a9SOfpKLyAAgRoQMBnSUzLikua1q87VV18dVzwgz55osWLFigFlypg1a1asCCUJi/UvbdqEHczq23Y3luqLTWfRnWFLWWTO6mppbaRNiZEARlOasKfN44+2lWXdxqZoYY8eO8o0nLPfakztQ51EPynF8dp33319HD722GOxux1xxBGxcZo2xtafcMzsIPa9hfADhjFG2I0USwiUmwDCXu7xoXcQqB0Be1761KlTB5zbH/7wB7fPPvt4cdF86CzJptAkfVHVHqUXikmSsNhda4lSlmSymnVaSpY2k+qEImn/PdB0iCwfMEzekkTYhF7LaIoT0Gh5XmbRfePWbWyS+plUnpQfdwzl6c66mIayG3IO97c5+zpemEyg1Ub0brfiU3nnnHNOuIuvp0crqjyM0zRht3MOhdwOYmMXltt+4fFsP+6wGwmWECgHAYS9HONALyDQNwR0J1xioikCzz77bNN5Sx5Upi/oSd6zJHuso/bT4/GiydqLE6EkYTGJ0x3UOAmXhEVFzNoJp6tE+6E60X2iZeF60vQWO04oXiZketRhnLRrP0sqtw8Y4XFUT+cgVmFf7RjRtqxNLVXfJDaOmepo36T9o21ZXfWjCGFX35I+/NkHmPAOu00xSeqv7af/dkSZa90eORl+6Hn66ac927g41XPZv/zlL/vyUKDThF3HVJsau3DcrJ8qD+NG56b88Hg2Fgi7kWAJgXIQQNjLMQ70AgJ9RcBEYuutt3bHHnus//KffrhFAqFXKPJpcI4//vjGvmpP8+B1510fCpLEJClfx7L+qS8SF/tBmSSJMakK6+uXMO3LgEnyF56b2pB8aV/JlF7RX9QM25GkmYTrWLaflmonFDUJtcm1ffHSzkvHjvvPQpqw6xz0ASDarsRVfdfSGMS1HZ6/tm1s1K+4lFQel295SUzV53AOe3T8xUj9CPtiTNSuzjF6nhqPUJ51HjY9S5z32GMPd+CBB7odd9zRy/o///M/+xgOv7thsdWKnf2HQ31RrOqlfus49l+TMA6MC8IeF2HkQaB8BBD28o0JPYJAXxC47bbb3Lhx4xqirS+PTpw40b322mttnb/mvEuCJCl6Iod+/VTPeJeYSLZCMUnKt4OrXJJjEqp2tS4BipMxSZ/EKVpf++hurWQreifWjhG3DL8UqTb0Ul/Up7iktrWfibvto2PH3fGO62ur9tW2ykOxDfsiLmIQ1w+1EcctbEPbNjahJFvdpPK4fB0zianGMompPoDoXHTe9rLj21LjanfjxVznrWO1GmvFvabHHHbYYX6pX+ZV+uY3v+nHWb/8G03qh44f/kckWkfHM7EPx15jpv3Vr2gyVuH7wurYh5QkPlZu9VlCAALdJYCwd5cvrUMAAikEfv/73ztNFygqSVDefffdoprz7bQSsLgD5a0f14bltdNWnn3y1LU+ZV12s+2sfQjrdatPnbZr/2FKenpSeB5sQwAC/UUAYe+v8eZsIQABCEBgkAgk/WjSwoUL/d11fXdjw4YNg9Q7DgsBCJSZAMJe5tGhbxCAAAQgUBsCmkai71bMmzfP/eQnP3G33367n6pl01jmz59fm3PlRCAAgWIJIOzF8qQ1CEAAAhCAQCwBCbvJeXSpO+t333137D5kQgACEBABhJ04gAAEIAABCPSIwNq1a/0XXfVlzqeeesq9/PLLhX/nokenwmEgAIEeEkDYewibQ0EAAhCAAAQgAAEIQCAvAYQ9LzHqQwACEIAABCAAAQhAoIcEEPYewuZQEIAABCAAAQhAAAIQyEsAYc9LjPoQgAAEIAABCEAAAhDoIQGEvYew8x7q1VdfdfbatGmT4wUDYoAYIAaIAWKAGCAGio8B8y0ty5gQ9jKOyl/6ZD+mEX38F+vv/Uw7HOBADBADxAAxQAwQA0XHwI9//ONSmiHCXsphea9TJuznnXeeu/7663nBgBggBogBYoAYIAaIgS7EwPTp0/3vJCDsJRbjsnbt8ccf98GzYsWKsnaRfkEAAhCAAAQgAIHKE9CvD+tu/b//+7+X8ly4w17KYXmvUwh7iQeHrkEAAhCAAAQgUBsCCHtthrL3J4Kw9545R4QABCAAAQhAoP8IIOz9N+aFnTHCXhhKGoIABCAAAQhAAAKJBBD2RDQUpBFA2NMIUQ4BCEAAAhCAAAQ6J4Cwd86wb1tA2Pt26DlxCEAAAhCAAAR6SABh7yHsuh0KYa/biHI+EIAABCAAAQiUkQDCXsZRqUifEPaKDBTdhAAEIAABCECg0gQQ9koP3+B2HmEfXP4cHQIQgAAEIACB/iCAsPfHOHflLBH2rmClUQhAAAIQgAAEINBEAGFvwtGdjT/+8Y/uueeec88//7x76623Mh3klVdecevWrctUV5WWLVvm3n333Uz187ad1CjCnkSGfAhAAAIQgAAEIFAcAYQ9J0uJ8cyZM92YMWPc0KFD/c/EKi8uLV682NfTT8lGX1OmTHFr1qyJ28U99thj7qCDDmrU/9SnPuWuv/762LrKPPfcc91OO+3k63/wgx90X/rSl9zrr78eWz9v27GNRDIR9ggMViEAAQhAAAIQgECXCCDsOcGOHj3ay/GwYcOcXhLxJGGX1H/iE59ws2bNckuWLHHXXnutGz9+vN9HZX/605+ajn7fffc5SfeIESPcLbfc4iT8kyZN8vX1ISFMxxxzTKNMfZg9e7bfHjlypHvjjTeaqudtu2nnhA2EPQEM2RCAAAQgAAEIQKBAAgh7TpirVq1yGzdu9HvNmDHDC3KSsCfdGZesS/Ql5dEkAd9uu+3c6tWro9nusMMOc5LwaNIx1UYo8pJ85S9atCha3eVpu2nHFhsIews4FEEAAhCAAAQgAIGCCCDsHYBME/akpnWnPZTtp556yudJzsMkKVd9zYG3dPLJJ/u8uA8Lkv6JEydaVZe37caOKSsIewogiiEAAQhAAAIQgEABBBD2DiC2K+wm4Lfeemvj6HfeeacX8IsuuqiRZysrV670ZdG75vvuu6/bYostrErTcuzYsW748OGNvLxtN3ZMWUHYUwBRDAEIQAACEIAABAoggLB3ALEdYV+7dq3/kqi+sKrpNZauueaaAVJuZXpajO6wn3POOZbldt111yYpbxQ45yZPnuzrv/322z47b9vRtmz9tttuc+Hru9/9rj/OihUrrBpLCEAAAhCAAAQgAIGCCSDsHQBtR9inTp3qJTecyvK9733P5z/00EMDeqTHNUrYjzjiiEaZ7q7raTJx6YILLvD1n3zySV+ct+24NjWHXn2Ie9VR2M9e/AuX97XsxQ1x6MiDAAQgAAEIQAACHRFA2DvAl1fYbSrMTTfdNOCo8+bN8zKsL42GacOGDb5M89Yt/c3f/I1/moxtR5f2oeDll1/22XnbjrZl67/97W9d+Lr//vt9v+oo7Edc8TM37Lz7cr0QdosWlhCAAAQgAAEIFEkAYe+AZh5hN1nXMi7dcccdXn71aMYwPfPMM77siiuuaBTp+ez6cmlcOuqoo9wOO+zQKMrbdmPHlJU6z2FH2FMGn2IIQAACEIAABHpGAGHvAHVWYU+TdXXh0Ucf9VKu+edh0pdNNRUlOo3myCOP9HkvvfRSWN3PbdejIy3lbdv2S1si7M134LnDnhYxlEMAAhCAAAQg0A4BhL0dan/ZJ4uwZ5F164IkO/p0F8s//vjjB+TbXfMrr7zSqvmlSXT4DPg8bTc12GLDjsWUmPfEHWFvESwUQQACEIAABCDQNgGEPSc6PbFl+fLl/mVPY5k7d24jz35USc1GZV13x+Ne0cMvWLDA3zXXr5vqx5N0LGtj2rRp0ap+ff/99/f1bd67xFm/kqq78b/5zW+a6udtu2nnhA2EnTvsCaFBNgQgAAEIQAACBRJA2HPCtLvqcU9LCaet2C+aJtWVjIfJflQpus/ZZ58dVvPb69evd+PHj/eCbvX33HPPpqkz0R3ztB3dL2kdYUfYk2KDfAhAAAIQgAAEiiOAsOdkqbvecXfKLS96h93yWi3jDq9jaN667orrTntaUvuS/wcffNBt2rSpZfW8bbdqDGFH2FvFB2UQgAAEIAABCBRDAGEvhmNftoKwI+x9GficNAQgAAEIQKDHBBD2HgOv0+EQdoS9TvHMuUAAAhCAAATKSgBhL+vIVKBfCDvCXoEwpYsQgAAEIACByhNA2Cs/hIN3Agg7wj540ceRIQABCEAAAv1DAGHvn7Eu/EwRdoS98KCiQQhAAAIQgAAEBhBA2AcgISMrAYQdYc8aK9SDAAQgAAEIQKB9Agh7++z6fk+EHWHv+zcBACAAAQhAAAI9IICw9wByXQ+BsCPsdY1tzgsCEIAABCBQJgIIe5lGo2J9QdgR9oqFLN2FAAQgAAEIVJIAwl7JYStHpxF2hL0ckUgvIAABCEAAAvUmgLDXe3y7enYIO8Le1QCjcQhAAAIQgAAEPAGEnUBomwDCjrC3HTzsCAEIQAACEIBAZgIIe2ZUVAwJIOwIexgTbEMAAhCAAAQgUDwBhL14pn3TIsKOsPdNsHOiEIAABCAAgUEkgLAPIvyqHxphR9irHsP0HwIQgAAEIFAFAgh7FUappH1E2BH2koYm3YIABCAAAQjUigDCXqvh7O3JIOwIe28jjqNBAAIQgAAE+pMAwt6f417IWSPsCHshgUQjEIAABCAAAQi0JICwt8RDYSsCCDvC3io+KIMABCAAAQhAoBgCCHsxHPuyFYQdYe/LwOekIQABCEAAAj0mgLD3GHidDoewI+x1imfOBQIQgAAEIFBWAgh7WUemAv1C2BH2CoQpXYQABCAAAQhUngDCXvkhHLwTQNgR9sGLPo4MAQhAAAIQ6B8CCHv/jHXhZ4qwI+yFBxUNQgACEIAABCAwgADCPgAJGVkJIOwIe9ZYoR4EIAABCEAAAu0TQNjbZ9f3eyLsCHvfvwkAAAEIQAACEOgBAYS9B5DregiEHWGva2xzXhCAAAQgAIEyEUDYyzQaFesLwo6wVyxk6S4EIAABCECgkgQQ9koOWzk6jbAj7OWIRHoBAQhAAAIQqDcBhL3e49vVs0PYEfauBhiNQwACEIAABCDgCSDsBELbBBB2hL3t4GFHCEAAAhCAAAQyE0DYM6OiYkgAYUfYw5hgGwIQgAAEIACB4gkg7MUz7ZsWEXaEvW+CnROFAAQgAAEIDCIBhH0Q4Vf90Ag7wl71GKb/EIAABCAAgSoQQNirMEol7SPCjrCXNDTpFgQgAAEIQKBWBBD2Wg1nb08GYUfYextxHA0CEIAABCDQnwQQ9v4c90LOGmFH2AsJJBqBAAQgAAEIQKAlAYS9JR4KWxFA2BH2VvFBGQQgAAEIQAACxRBA2Ivh2JetIOwIe18GPicNAQhAAAIQ6DEBhL3HwOt0OIQdYa9TPHMuEIAABCAAgbISQNjLOjIV6BfCjrBXIEzpIgQgAAEIQKDyBBD2yg/h4J0Awo6wD170cWQIQAACEIBA/xBA2PtnrAs/U4QdYS88qGgQAhCAAAQgAIEBBBD2AUjIyEoAYUfYs8YK9SAAAQhAAAIQaJ8Awt4+u77fE2FH2Pv+TQAACEAAAhCAQA8IIOw9gFzXQyDsCHtdY5vzggAEIAABCJSJAMJeptGoWF8QdoS9YiFLdyEAAQhAAAKVJICwV3LYytFphB1hL0ck0gsIQAACEIBAvQkg7G2M76pVq9wNN9zgZs6c6V/r1q1r2cpzzz3nZs+e7caMGeMuuugi99BDD7Wsv3jxYjd16lR3yimnuEWLFrl33nknsX4320486F8KEHaEPS1GKIcABCAAAQhAoHMCCHtOhqNHj3ZDhgxpei1btiyxlfvvv9/tsssubuedd/ZyP2LECL/v5ZdfHrvPqaee6svHjx/vJk2a5Ncl+r/+9a8H1O9m2wMOFpOBsCPsMWFBFgQgAAEIQAACBRNA2HMCnTFjhtNLkj5t2jQv1EnCvn79ei/qkvTVq1c3jmQivnTp0kaeVnTHXh8GtLSku+3KO+aYYyzLL9Pafuyxx5rq52m7accWGwg7wt4iPCiCAAQgAAEIQKAgAgh7ByAl7pLpJGE3SV6wYEHTUSTv2k930S1FBdzybHnyySe7Lbfcsukue1rbZ511lu3u8rbd2DFlBWFH2FNChGIIQAACEIAABAoggLB3ADFN2A888EAv5hs2bBhwFJsa89Zbb/mye++919fV3PUw2V32W2+9tVGU1vaoUaMadfO23dgxZQVhR9hTQoRiCEAAAhCAAAQKIICwdwAxTdj/7u/+zu20006xR7BpMTY3feHChV7Y58+fP6C+3ZH/zne+0yhLa/sDH/iA+/Of/+zr5227cZCUFYQdYU8JEYohAAEIQAACECiAAMLeAcQ0Yd9mm23cvvvuG3uEM8880wv6E0884ctnzZrlt3U3PEybNm3yZRMnTmwUZWn7l7/8ZVttNw4SWRk5cqT767/+66bXX/3VX/l+rVixIlKzHqtHXPEzN+y8ZiFP21724sD/pNSDBmcBAQhAAAIQgMBgEkDYO6CfJuwf+tCH3H777Rd7hLPPPtvL7lNPPeXLL730Ur8dfhFVhZs3b/Zl0S+eZmn7V7/6VVttx3X4kksuceHrW9/6FsIekXqEPS5yyIMABCAAAQhAoFMCCHsHBNOEfffdd/dPiYk7xHHHHedl9ze/+Y0vvvHGG/32tddeO6D6mjVrfNn3vve9Rlla21tssUVjSkzethsHSVlhSkzzHXiEPSVgKIYABCAAAQhAoC0CCHtb2N7bKU3YDzroIC/acYfQs9X1pBhNd1HSnXVtRx/paPvpKTQqu+OOOyzLpbUdnYqTt+3GQVJWEHaEPSVEKIYABCAAAQhAoAACCHsHENOE3R69qKe8RJN+GTXpsY56+kuYzjnnnMTHOia1HfdYx6xth8dP2kbYEfak2CAfAhCAAAQgAIHiCCDsHbBME/bo88/54aQOQA/CrnzpdBCgc0gIQAACEIAABGIJIOyxWJIzTdJ1hzzuFf6Ikj1DXY931B33PfbYI3Hqi45qj3vUlJlx48b5uuEvpVrvutm2HaPVkjvs3GFvFR+UQQACEIAABCBQDAGEPSdHCbmkPeml6S5hklifdNJJThJ+wgknxM5Tj+5z7rnnuqOPPtodddRRbtq0aS56dz5aT+vdbDs8VriNsCPsYUywDQEIQAACEIBA8QQQ9uKZ9k2LCDvC3jfBzolCAAIQgAAEBpEAwj6I8Kt+aIQdYa96DNN/CEAAAhCAQBUIIOxVGKWS9hFhR9hLGpp0CwIQgAAEIFArAgh7rYaztyeDsCPsvY04jgYBCEAAAhDoTwIIe3+OeyFnjbAj7IUEEo1AAAIQgAAEINCSAMLeEg+FrQgg7Ah7q/igDAIQgAAEIACBYggg7MVw7MtWEHaEvS8Dn5OGAAQgAAEI9JgAwt5j4HU6HMKOsNcpnjkXCEAAAhCAQFkJIOxlHZkK9AthR9grEKZ0EWjkrVwAACAASURBVAIQgAAEIFB5Agh75Ydw8E4AYUfYBy/6ODIEIAABCECgfwgg7P0z1oWfKcKOsBceVDQIAQhAAAIQgMAAAgj7ACRkZCWAsCPsWWOFehCAAAQgAAEItE8AYW+fXd/vibAj7H3/JgAABCAAAQhAoAcEEPYeQK7rIRB2hL2usc15QQACEIAABMpEAGEv02hUrC8IO8JesZCluxCAAAQgAIFKEkDYKzls5eg0wo6wlyMS6QUEIAABCECg3gQQ9nqPb1fPDmFH2LsaYDQOAQhAAAIQgIAngLATCG0TQNgR9raDhx0hAAEIQAACEMhMAGHPjIqKIQGEHWEPY4JtCEAAAhCAAASKJ4CwF8+0b1pE2BH2vgl2ThQCEIAABCAwiAQQ9kGEX/VDI+wIe9VjmP5DAAIQgAAEqkAAYa/CKJW0jwg7wl7S0KRbEIAABCAAgVoRQNhrNZy9PRmEHWHvbcRxNAhAAAIQgEB/EkDY+3PcCzlrhB1hLySQaAQCEIAABCAAgZYEEPaWeChsRQBhR9hbxQdlEIAABCAAAQgUQwBhL4ZjX7aCsCPsfRn4nDQEIAABCECgxwQQ9h4Dr9PhEHaEvU7xzLlAAAIQgAAEykoAYS/ryFSgXwg7wl6BMKWLEIAABCAAgcoTQNgrP4SDdwIIO8I+eNHHkSEAAQhAAAL9QwBh75+xLvxMEXaEvfCgokEIQAACEIAABAYQQNgHICEjKwGEHWHPGivUgwAEIAABCECgfQIIe/vs+n5PhB1h7/s3AQAgAAEIQAACPSCAsPcAcl0PgbAj7HWNbc4LAhCAAAQgUCYCCHuZRqNifUHYEfaKhSzdhQAEIAABCFSSAMJeyWErR6cRdoS9HJFILyAAAQhAAAL1JoCw13t8u3p2CDvC3tUAo3EIQAACEIAABDwBhJ1AaJsAwo6wtx087AgBCEAAAhCAQGYCCHtmVFQMCSDsCHsYE2xDAAIQgAAEIFA8AYS9eKZ90yLCjrD3TbBzohCAAAQgAIFBJICwDyL8qh8aYUfYqx7D9B8CEIAABCBQBQIIexVGqaR9RNgR9pKGJt2CAAQgAAEI1IoAwl6r4eztySDsCHtvI46jQQACEIAABPqTAMLen+NeyFkj7Ah7IYFEIxCAAAQgAAEItCSAsLfEQ2ErAgg7wt4qPiiDAAQgAAEIQKAYAgh7MRz7shWEHWHvy8DnpCEAAQhAAAI9JoCw9xh4nQ6HsCPsdYpnzgUCEIAABCBQVgK1FPaZM2e6tWvXlpV5bfqFsCPstQlmTgQCEIAABCBQYgK1FfYhQ4a4L37xi+7uu+8uMf5qdw1hR9irHcH0HgIQgAAEIFANArUUdqG/5ppr3Mc//nEncd99992d7rr/8pe/HJRRefbZZ92iRYt8H7R8+umnW/bjlVdecYsXL3a33HKLW7NmTcu6Kly5cqVve9myZW7z5s0t6+dtu1VjCDvC3io+KIMABCAAAQhAoBgCtRV2w/PYY4+5r3zlK17c7a77rbfe6t555x2r0tWlPihsvfXWjeOrD3pNmTIl9rg//OEPB9Q9/fTTY+u++uqrbty4cU3199hjD/fII4/E1s/TdmwDQSbCjrAHIcEmBCAAAQhAAAJdIFB7YTdm69ev93ehd9ppJy+4uut+7rnnpt7ttv3bWT788MP+WEceeaR74IEHfBO6Cy6Jl7RrGU0LFizw+ZMmTXIvvfSS091wq3vaaadFq/r1/fff39fX3Xgl3WkfMWKEzwvvzOdte8DBYjIQdoQ9JizIggAEIAABCECgYAJ9I+zitmnTJnfppZc2pspE73ZL6ItO1157rZfnCy+8sKnppUuX+vzjjjuuKX/MmDFu1113bcrThgR+l112acq/4447fBuzZ89uype067wuu+yypvw8bTft2GIDYUfYW4QHRRCAAAQgAAEIFESgL4T9oYce8l9ANUEfO3asu+eee5wkXXeulT9+/PiCkL7fjOagq23NW4+mdevW+fxTTjmlka1pLKorOQ/T/PnzfZnuzlvSXXvVX716tWU1lpJ+CbqlvG3bfmlLhB1hT4sRyiEAAQhAAAIQ6JxAbYX9tddec9/5znfctttu68V2hx12cGeddZafahJi0113ye8LL7wQFnW0rWkpald30jXfXGnjxo3+7rfyoyJ/++23+7rhnXHtoy+pqr7E3dInP/lJf262HV3qw4em/ljK27btl7ZE2BH2tBihHAIQgAAEIACBzgnUUtht3rck99BDD3ULFy5sSUp3rlU3ege75Q45Cu+99173qU99ym2xxRb+rrc+QOg1d+7cplbmzZvn+3Dbbbc15WtD/wlQ/6ZOndoo+8hHPuL23HPPxnZ0RV9oVf0NGzb47LxtR9uy9RNOOMGFryOOOMIfZ8WKFVatNssjrviZG3Zes5CnbS978T3etYHAiUAAAhCAAAQgUAoCtRX2f/qnf3JPPPFEJsgSdXtl2iFHJd1FHz58uBdbTVORSOsVfuHUPmQkfWjQPtFpLuF2tEthW+F2tK7WW7VldUeNGuXClz4waF+E/T2xR9gtWlhCAAIQgAAEIFAkgVoK+9tvv10ko7bbuuqqqxpybnPNtTSB1h1rS/YF1ZtvvtmyGks9LUZifMYZZzTydt55Z/98+UZGZOXkk0/29X/3u9/53LxtR5pqucqUmOY78Ah7y3ChEAIQgAAEIACBNgnUUtg1T3z58uV+vngcF33pU+XdTocffrgXZz0VJppsTvpWW23l3n33XV901113+boXX3xxtKpftye/6NGMlvbbbz+35ZZb2mbT8rDDDnO77bZbIy9v240dU1YQdoQ9JUQohgAEIAABCECgAAK1FPY5c+Z4+ZW4xyV7SsuSJUviigvLs2e+xz0y0qbJ2J33p556yvf56KOPHnB8O5/ol2LtLrqkOUxDhw51xx57bCM7b9uNHVNWEHaEPSVEKIYABCAAAQhAoAACtRT2E0880Y0ePbolnpEjR7oZM2a0rNNpoUn11Vdf3dSU5rVriot+5CiajjnmGCfZNom3Mv2a6Wc/+1nb9EvNdVcbml4TTfoRJeXfeeed0WyXp+2mHVtsIOwIe4vwoAgCEIAABCAAgYII1FLYJetpwq5yiX03k37dVPKsL2eeffbZ/outWtqXNUPZvu+++9zWW2/tRV6SL7HXc9njxFz91l10K5PAz5o1y2/vs88+zuav2/nlbdv2a7VE2BH2VvFBGQQgAAEIQAACxRCopbBPmzbNP9GkFaLtt9++63fYdXx94VPzzSXW9tIXRkNZt75qvvqBBx7YqLvXXns1Pa/d6tnyggsucDvuuKOvrznxEydOdG+88YYVNy3ztt20c8wGwo6wx4QFWRCAAAQgAAEIFEyglsJuU06S5qjbnPCk8oIZ++Y0b153wdeuXeveeeed1EOovupmTWo7S7tqL2/bSX1A2BH2pNggHwIQgAAEIACB4gjUUtiFR1NedEd78uTJ7p577vFPhbnhhhucvtSp/AkTJhRHsU9bQtgR9j4NfU4bAhCAAAQg0FMCtRV2PSFGUm7TUKJLzV1PeoJMT+lX/GAIO8Je8RCm+xCAAAQgAIFKEKitsBv9VatWOU190RNhtNQ2qRgCCDvCXkwk0QoEIAABCEAAAq0I1F7YW508ZZ0RQNgR9s4iiL0hAAEIQAACEMhCAGHPQok6sQQQdoQ9NjDIhAAEIAABCECgUAK1FXY9NUVfMLVfFI3OYbf1bv9wUqEjVcLGEHaEvYRhSZcgAAEIQAACtSNQS2HXPHX9YqjE3H5EKW6pxz+S2ieAsCPs7UcPe0IAAhCAAAQgkJVALYVdd871w0h8wTRrGLRXD2FH2NuLHPaCAAQgAAEIQCAPgVoKu91NzwOCuvkJIOwIe/6oYQ8IQAACEIAABPISqKWw6znrknZSdwkg7Ah7dyOM1iEAAQhAAAIQEIFaCvu6dev8lBh98ZTUPQIIO8LeveiiZQhAAAIQgAAEjEBthX3u3Ln+S6fTp093N9xwg1u+fPmAl8Se1D4BhB1hbz962BMCEIAABCAAgawEains+tKpPbqx1ZLHOmYNk/h6CDvCHh8Z5EIAAhCAAAQgUCSBWgq77pxrOkzaizvsnYUSwo6wdxZB7A0BCEAAAhCAQBYCtRT2LCdOnc4JIOwIe+dRRAsQgAAEIAABCKQRQNjTCFGeSABhR9gTg4MCCEAAAhCAAAQKI1BbYd+4caObOXOmGz58eOMXT43akiVL3JgxY2yTZZsEEHaEvc3QYTcIQAACEIAABHIQqK2w6zns+sKp/YhS9LnsmruuMok7qX0CCDvC3n70sCcEIAABCEAAAlkJ1FLYFy1a1CTkehpMVNgFZ9iwYY6nxGQNk/h6CDvCHh8Z5EIAAhCAAAQgUCSBWgr7tGnTmgQ9Ttgl8PpFVFL7BBB2hL396GFPCEAAAhCAAASyEqilsE+YMCFV2EeOHMkd9qxRklAPYUfYE0KDbAhAAAIQgAAECiRQS2HXHXV92dRSeIfd5rBr6gypfQIIO8LefvSwJwQgAAEIQAACWQnUUthXrVrl57BPnjzZ6WkxUWGXrI8aNcptv/32viwrKOoNJICwI+wDo4IcCEAAAhCAAASKJlBLYRekOXPmeGkfOnSov9uupR7lqKfD8ISYYsIIYUfYi4kkWoEABCAAAQhAoBWB2gq7TnrZsmVO89l1N12SrqW2dQee1DkBhB1h7zyKaAECEIAABCAAgTQCtRb2tJOnvDMCCDvC3lkEsTcEIAABCEAAAlkIIOxZKFEnlgDCjrDHBgaZEIAABCAAAQgUSqCWwq4vli5fvjz1pXqk9gkg7Ah7+9HDnhCAAAQgAAEIZCVQS2HXU2Hsy6WtlqpHap8Awo6wtx897AkBCEAAAhCAQFYCtRR23TnXF07Dl567rl83lcTrKTLcYc8aJvH1EHaEPT4yyIUABCAAAQhAoEgCtRT2NEBLlizxT4xB2NNItS5H2BH21hFCKQQgAAEIQAACRRDoS2EXuGHDhvkfVCoCYr+2gbAj7P0a+5w3BCAAAQhAoJcE+lbYR44c6afH9BJ23Y6FsCPsdYtpzgcCEIAABCBQRgJ9Keya26557HzptLOQRNgR9s4iiL0hAAEIQAACEMhCoJbCri+XjhkzJvY1atSoxq+ebty4MQsj6iQQQNgR9oTQIBsCEIAABCAAgQIJ1FLYWz3W0abC8IXTzqMIYUfYO48iWoAABCAAAQhAII1ALYU97aQpL4YAwo6wFxNJtAIBCEAAAhCAQCsCCHsrOpS1JICwI+wtA4RCCEAAAhCAAAQKIYCwF4KxPxtB2BH2/ox8zhoCEIAABCDQWwK1FPaZM2fGfuE06Yuolq+nx5CyE0DYEfbs0UJNCEAAAhCAAATaJVB7YdfjG//2b//WC/zOO+/snxBjgh4uEfZ8YYSwI+z5IobaEIAABCAAAQi0Q6CWwi4QkyZNcuPGjXNPP/10ExdJufJVTuqMAMKOsHcWQewNAQhAAAIQgEAWArUU9quvvtptu+227qWXXoploHyVqx6pfQIIO8LefvSwJwQgAAEIQAACWQnUUti/9rWv+SkwrSBoOozqkdongLAj7O1HD3tCAAIQgAAEIJCVQC2F/ZRTTnE77bRTSwYqVz1S+wQQdoS9/ehhTwhAAAIQgAAEshKopbDff//9/sulmqceN4dd+foyquqR2ieAsCPs7UcPe0IAAhCAAAQgkJVALYVdJ79o0SIv5XFPiVHeZZddlpUR9RIIIOwIe0JokA0BCEAAAhCAQIEEaivsYnTTTTe5Qw891A0fPtzL+x577OGOOuoox+Mbi4kghB1hLyaSaAUCEIAABCAAgVYEai3srU68l2U///nPmz446A6/PkToB57CtHr1anfIIYf4Ofg77rijO+CAA9zixYvDao1ttTFixIjGB5JWj6vM23bjIAkrCDvCnhAaZEMAAhCAAAQgUCABhL1AmHFN3X333W777bd3H/zgB92xxx7rzj//fC/qkydPHiDsEmqTb03ZmT9/fmM7Ttol65L/o48+2v/XYMqUKX47Ttrzth13LmEewo6whzHBNgQgAAEIQAACxROotbDPmDHDjRo1ykvs6NGjG/Q0v12PdexFOvjgg51+YVVyG6ZNmzY1ZZlwR+XcRPvzn/98U119mVayHsq5Sbw+KERTnraj+7Var4qwP/rCf7m8r3+4bLkbdl6zkKdtL3txQytclEEAAhCAAAQgAIG2CNRW2CXoEtqRI0f6V1TY161b58uWLFnSFrSsO0ma1Ye4qS9hGybgcR8kdFde7TzxxBON3UzAly5d2sjTyubNm91WW23lTjjhhEZ+3rYbO6asVEXYP/O9h3PLN8KeMvgUQwACEIAABCDQMwK1FHZ7QoyWSrrTHhV25Q0bNsznd5P02Wef7UX7qaeecq+88oqfi66751oP05133unrXnTRRWGRW7lypS+77rrrGmX77ruv22KLLRrb0ZWxY8e6j3/8442svG03dkxZQdib78Bzhz0lYCiGAAQgAAEIQKAtArUU9mnTpjUJepywS+BPPPHEtqBl3en444/3or1w4UK/1F1ye4VTWa655hpfZh8yosew/wiceeaZjexdd93Vf3G1kRFZ0fx4Heett97yuXnbjjTVWH3ooYdc+Lriiiv8cVasWNGoV8YV7rCXcVToEwQgAAEIQAACWQnUUtgnTJiQKuyaKiOR72b6whe+4CTWkmfJtu6s65GSU6dO9XlXXXVV4/Df+973fJ6kOEzvvvuuLzviiCMaRbq7ftBBBzW2oysXXHCBr29TaPK2HW3L1sXLPmyES4T9vTvt3GG3aGEJAQhAAAIQgECRBGop7BJxPTbRUniH3e5Yz5kzx6p0Zamnt0huwy+MvvTSS06PbFTZxo0b/bHtbnX0C6fWqQ0bNvi6J598smW5HXbYwT9BppERWbEPBDpPpbxtR5pqrP7yl7904eu2227z/ULYEfZGoLACAQhAAAIQgEDhBGop7KtWrfIiqakhSlFhlyDri5161KLJcuFU/9Lgqaee6vsR98Fg3Lhxvkx9Vbr11lv99uzZswd055lnnvFll19+eaNs7733dtttt11jO7qiH4eS0FvK27btl7ZkDjtz2NNihHIIQAACEIAABDonUEthFxZJuu5gDx061N9t1x13ibq2lR83V7xznM0tXHjhhf5Y1157bXOBc+64447zZb/4xS982YMPPui37UNGdAf7Eu2Pf/zjRrZ+wVXnobv1YdK5fu5zn2tk5227sWPKCsKOsKeECMUQgAAEIAABCBRAoLbCLjaaL6757BJbvXRXXdt2V7sAfi2bMKEdP358Uz09enHbbbf1fXr99dcbZfvtt1/TVB4r0JdXd9llF//IRsvThwCd05VXXmlZfmnHDJ82k6ftpgZbbNixmBLDlJgWYUIRBCAAAQhAAAIdEqilsEvIly9f3iGaYnY/8MADvVibQGteuT3FRb98Gk0m4XqCjOatK9kPIZ122mnRqn5dEi5pt3nvEmj7pdQXXnihqX7etpt2TthA2LnDnhAaZEMAAhCAAAQgUCCBWgq7HtkYPne9QGa5mrJfKpVY6y65lnpNnz49th0T9G222abxxdTwEZC2Y7RtTfextk3grZ4t87Rt+7RaIuwIe6v4oAwCEIAABCAAgWII1FLY9Xz1UaNGFUOogFYk1jfffLO7+OKL3fz5813466ThIe69916nL6rqC6hJ8m37qG3NcZeML1iwwD388MNWFLvM03ZsA5FMhB1hj4QDqxCAAAQgAAEIdIlALYVdc9d1t7lXc9W7NDalbxZhR9hLH6R0EAIQgAAEIFADArUUdpsnrifC6M6z5rPHvew55TUYx0E5BYQdYR+UwOOgEIAABCAAgT4jUEtht0c62pzupKXqkdongLAj7O1HD3tCAAIQgAAEIJCVQC2FXVNiJONpL9UjtU8AYUfY248e9oQABCAAAQhAICuBWgi7xBv5zjrkxdVD2BH24qKJliAAAQhAAAIQSCJQG2HXtBdLmreuxxySuksAYUfYuxthtA4BCEAAAhCAgAjUStg3btzoRxVh701wI+wIe28ijaNAAAIQgAAE+ptArYRdzzlfsmSJfzKM7rDbVJlWy/4e/s7OHmFH2DuLIPaGAAQgAAEIQCALgVoIu0702GOPbfzSZ9JTYcJ83YkntU8AYUfY248e9oQABCAAAQhAICuB2gi7TvjBBx90l1xySeMOu4Q87ZUVFPUGEkDYEfaBUUEOBCAAAQhAAAJFE6iVsBsc5rAbie4uEXaEvbsRRusQgAAEIAABCIhALYWdoe0NAYQdYe9NpHEUCEAAAhCAQH8TQNj7e/w7OnuEHWHvKIDYGQIQgAAEIACBTAQQ9kyYqBRHAGHvXNi//b9/4T7+nQdyveYvWxs3HORBAAIQgAAEIFBTAgh7TQe2F6eFsBcj7MPOa24nbRth70V0cwwIQAACEIBAeQgg7OUZi8r1BGFvFu1lL27IPYa6w54m6GE5wp4bMztAAAIQgAAEKk0AYa/08A1u5xF2hH1wI5CjQwACEIAABPqDAMLeH+PclbNE2BH2rgQWjUIAAhCAAAQg0ESgFsL+2muvuXZfTTTYyEUAYUfYcwUMlSEAAQhAAAIQaItALYT9X//1X92QIUNyv6677rq2oLHTewQQdoSd9wIEIAABCEAAAt0nUBthP++881zeF8LeWYAh7Ah7ZxHE3hCAAAQgAAEIZCFQC2HPcqLUKZ4Awo6wFx9VtAgBCEAAAhCAQEgAYQ+JsJ2ZAMKOsGcOFipCAAIQgAAEINA2gVoI+5tvvunafbVNjh0dwo6w8zaAAAQgAAEIQKD7BGoh7HzptPuBEncEhB1hj4sL8iAAAQhAAAIQKJZAbYT9rLPOcnlffOm0s2BC2BH2ziKIvSEAAQhAAAIQyEKgFsKe5USpUzwBhB1hLz6qaBECEIAABCAAgZAAwh4SYTszAYQdYc8cLFSEAAQgAAEIQKBtArUW9o0bN7q5c+e6yZMnuzFjxviltpVP6pwAwo6wdx5FtAABCEAAAhCAQBqB2gr7okWL3NChQ2N//VT5S5YsSWNDeQoBhB1hTwkRiiEAAQhAAAIQKIBALYV91apVXtaHDRvmJO6WdGdd28qXtHOn3ci0t0TYEfb2Ioe9IAABCEAAAhDIQ6CWwj5jxgy3/fbbJwq5hH7IkCFuzpw5eVhRNyCAsCPsQUiwCQEIQAACEIBAFwjUUtgnTJjgRo8e3RLXyJEj3bRp01rWobA1AYQdYW8dIZRCAAIQgAAEIFAEgVoKu0R81KhRLfloWozuxJPaJzAYwn77E//p8r72+5eH3bDzmuU6bfsfLluee59lL27IDfPb//sXuY8zf9na3MdhBwhAAAIQgAAEqkuglsKuqS6a8hKdvx4dIivni6dRKvnXB0PYh5+fT7wl5gh7/rFlDwhAAAIQgAAEykOglsIuvJryImnX4xxnzpzZeOnOu/I1bYbUGQGEvfnDA3fYO4sn9oYABCAAAQhAIJ5AbYVdT4DR1BjJefSlL6NqKgxPiIkPiDy5CDvCnideqAsBCEAAAhCAQHsEaivsURzLli1zeunpMKTiCCDsCHtx0URLEIAABCAAAQgkEailsOsJMZoSQ+ouAYQdYe9uhNE6BCAAAQhAAAIiUEthz/JYR4a/cwIIO8LeeRTRAgQgAAEIQAACaQRqKex6OozmrTNPPW34OytH2BH2ziKIvSEAAQhAAAIQyEKglsKuEz/xxBP9s9g1d53UHQIIO8LenciiVQhAAAIQgAAEogRqKex6Ckz0yTBJ6/xwUjQU8q8j7Ah7/qhhDwhAAAIQgAAE8hKopbBrSoy+eJr2SvphpbwQ+7U+wo6w92vsc94QgAAEIACBXhKopbD3EmA/HwthR9j7Of45dwhAAAIQgECvCCDsvSJdw+Mg7Ah7DcOaU4IABCAAAQiUjgDCXrohqU6HEHaEvTrRSk8hAAEIQAAC1SWAsFd37Aa95wg7wj7oQUgHIAABCEAAAn1AAGHv8SDPmTPHzZw507V63OTixYvd1KlT3SmnnOL0xdh33nknsZfPPfecmz17thszZoy76KKL3EMPPZRYVwV52m7ZkHMOYUfY02KEcghAAAIQgAAEOieAsHfOMHMLknV7xGTSIyVPPfVUX2fPPfd0I0aM8OuS8V//+tcDjnP//fe7XXbZxW277bZe2HfaaSdf//LLLx9QVxl52o5tIMhE2BH2ICTYhAAEIAABCECgCwQQ9i5AjWty3bp1bujQoW7ChAlequOE/fvf/74v0x14S7ojLsk/5phjLMsvf/e737nddtvNS/3q1asbZZMmTfL1V65c2cjTSp62m3ZssYGwNwv7lJuedv9y37/nen356pVu2HnN7aRtz1+2tsWoUAQBCEAAAhCAQN0IIOw9GlF7JrymwkjAQ2F/99133d577+0FPOzSySef7LbcckunOpauuOIK386CBQssyy8l72r/ggsuaOTnbbuxY8oKwt4s2uPnPZZbvhH2lCCjGAIQgAAEIAABh7D3IAhsKozusicJ+wMPPOBFW3PXw2R32e+7775G0aGHHurrb9iwoZFnK5pKs//++9umy9t2Y8eUFYQdYU8JEYohAAEIQAACECiAAMJeAMRWTdhUGLujniTs+nKp7ozPnz9/QHN211zTWiztscceTnPW45KmxWyxxRaNorxtN3ZMWUHYEfaUEKEYAhCAAAQgAIECCCDsBUBs1YTmrI8cObJRJUnYL7nkEi/s9957b6OurWzatMmXReexf+hDH3L77ruvVWlannnmmb7+r371K5+ft+2mxv6yoXP4yEc+0vTaYYcd/HFWrFgRt0tX8oaf3yzJafO9Vb7fvzyce6rKP1y2PPc+TInpypDTKAQgAAEIQKDvCSDsXQyBJUuWeKGVpFtKEvZLL73U1126dKlVwZKmrgAAIABJREFUbSw3b97sy3Tn3JKEfb/99rPNpuXZZ5/t69uXUfO23dTYXzbOP/98F75OOOEEfxyE/b0PEQh7XOSQBwEIQAACEIBApwQQ9k4JJuy/ceNG/1SYadOmNdVIEvYbb7zRy++1117bVF8ba9as8WXRp8fsvvvubueddx5QVxnHHXecr2+Fedu2/dKWTIlpvtuPsKdFDOUQgAAEIAABCLRDAGFvh1qGfUzMNS+91cvuvuvOuupFpdwOY23py6eWDjrooCYpt3wt9dx2ffHUUt62bb+0JcKOsKfFCOUQgAAEIAABCHROAGHvnGFsC/qyqb5oGr5OPPFEL9p6zKPKVE/p5ZdfdpoTLtkOkyReMv9f//VfjaILL7zQ5+kJMNH05ptv+vzp06c3svO23dgxZQVhR9hTQoRiCEAAAhCAAAQKIICwFwAxTxN2t9yeGhPd94wzzvCyHb2Trnnoult+1FFHRas6faFUT4KJzmtXBZP7Rx55pKl+nrabdmyxgbAj7C3CgyIIQAACEIAABAoigLAXBDJrM62E/cUXX3Sf+9znvLR//etfdyeddJKX9Q9/+MMu7ukxs2bN8nXHjh3rRV1Srzvx2i9MedsO94/bRtgR9ri4IA8CEIAABCAAgWIJIOzF8kxtbdWqVU7TYfRs9LikJ8KcfvrpTs9ZHz58uJs8ebJ7+umn46r6vNtuu82NGzfOi7qm08TNgbed87Zt+yUtEXaEPSk2yIcABCAAAQhAoDgCCHtxLPuuJYQdYe+7oOeEIQABCEAAAoNAAGEfBOh1OSTCjrDXJZY5DwhAAAIQgECZCSDsZR6dkvcNYUfYSx6idA8CEIAABCBQCwIIey2GcXBOAmFH2Acn8jgqBCAAAQhAoL8IIOz9Nd6Fni3CjrAXGlA0BgEIQAACEIBALAGEPRYLmVkIIOwIe5Y4oQ4EIAABCEAAAp0RQNg749fXeyPsCHtfvwE4eQhAAAIQgECPCCDsPQJdx8Mg7Ah7HeOac4IABCAAAQiUjQDCXrYRqVB/EHaEvULhSlchAAEIQAAClSWAsFd26Aa/4wg7wj74UUgPIAABCEAAAvUngLDXf4y7doYIO8LeteCiYQhAAAIQgAAEGgQQ9gYKVvISQNgR9rwxQ30IQAACEIAABPITQNjzM2OPvxBA2BF23gwQgAAEIAABCHSfAMLefca1PQLCjrDXNrg5MQhAAAIQgECJCCDsJRqMqnUFYUfYqxaz9BcCEIAABCBQRQIIexVHrSR9RtgR9pKEIt2AAAQgAAEI1JoAwl7r4e3uySHsCHt3I4zWIQABCEAAAhAQAYSdOGibAMKOsLcdPOwIAQhAAAIQgEBmAgh7ZlRUDAkg7Ah7GBNsQwACEIAABCBQPAGEvXimfdMiwo6w902wc6IQgAAEIACBQSSAsA8i/KofGmFH2Ksew/QfAhCAAAQgUAUCCHsVRqmkfUTYEfaShibdggAEIAABCNSKAMJeq+Hs7ckg7Ah7byOOo0EAAhCAAAT6kwDC3p/jXshZI+wIeyGBRCMQgAAEIAABCLQkgLC3xENhKwIIO8LeKj4og0BZCbz73/+f+90f3s392viHP5f1lOgXBCBQcwIIe80HuJunh7Aj7N2ML9qGQLcISNiHndf8/s2yjbB3a0RoFwIQSCOAsKcRojyRAMLe/Ad//LzHckvAl69emXuf+cvWJo4JBRCAQDoBhD2dETUgAIFyEUDYyzUeleoNwo6wVypg6SwE/kIAYScUIACBqhFA2Ks2YiXqL8KOsJcoHOkKBDITQNgzo6IiBCBQEgIIe0kGoordQNgR9irGLX2GAMJODEAAAlUjgLBXbcRK1F+EHWEvUTjSFQhkJoCwZ0ZFRQhAoCQEEPaSDEQVu4GwI+xVjFv6DAGEnRiAAASqRgBhr9qIlai/CDvCXqJwpCsQyEwAYc+MiooQgEBJCCDsJRmIKnYDYUfYqxi39BkCCDsxAAEIVI0Awl61EStRfxF2hL1E4UhXIJCZAMKeGRUVIQCBkhBA2EsyEFXsBsKOsFcxbukzBBB2YgACEKgaAYS9aiNWov4i7Ah7icKRrkAgMwGEPTMqKkIAAiUhgLCXZCCq2A2Evd7CvvS537p9/+WnuV5fuWZlFUOZPvcZAYS9zwac04VADQgg7DUYxME6BYS9/sI+7Lzmc0zbRtgH693IcfMQQNjz0KIuBCBQBgIIexlGoaJ9QNibZXb8vMdcmtCG5V++emXufeYvW9uTiNEd9rC/adsIe0+GhoN0SABh7xAgu0MAAj0ngLD3HHl9DoiwI+yhwCPs9Xl/1/lMEPY6jy7nBoF6EkDY6zmuPTkrhB1hR9h78lbjIAUTQNgLBkpzEIBA1wkg7F1HXN8DIOwIO8Je3/d3nc8MYa/z6HJuEKgnAYS9nuPak7NC2BF2hL0nbzUOUjABhL1goDQHAQh0nQDC3nXE9T0Awo6wI+z1fX/X+cwQ9jqPLucGgXoSQNjrOa49OSuEHWFH2HvyVuMgBRNA2AsGSnMQgEDXCSDsXUdc3wMg7Ag7wl7f93edzwxhr/Pocm4QqCcBhL2e49qTs0LYEXaEvSdvNQ5SMAGEvWCgNAcBCHSdAMLedcTOPfDAA+7KK690ixcvdq+88krqEVVHdW+55Ra3Zs2a1PorV650M2fOdMuWLXObN29uWT9v260aQ9gRdoS91TuEsrISQNjLOjL0CwIQSCKAsCeRKSD/5JNPdkOGDBnwmjJlilu9enXsESTq4T6S8aQ0adKkpvojRoworO2kY1o+wo6wI+z2bmBZJQIIe5VGi75CAAIigLB3MQ7GjBnj9NLd9ZdeesmLtOR76NChLk6sly5d6uX78MMP9/V1N/z888/3eXHSbrJ+++23+7PQnfaPfexjvu3XX3+96czytt20c8IGwo6wI+wJbw6yS00AYS/18NA5CEAghgDCHgOlqKynn346tqmjjz7aS/iiRYuaysePH+9lfu3atU35EviRI0c25ZmAhyJ/9913+7avu+66pvp52m7ascUGwo6wI+wt3iAUlZYAwl7aoaFjEIBAAgGEPQFMN7M111zTXqKy/cgjj/g8yXyYLrvsMl/205/+tFEkAVcbcR8KdJf9iCOOaNTN23Zjx5QVhB1hR9hT3iQUl5IAwl7KYaFTEIBACwIIews43SrSHHbJtuarW9K0FuVJzsMkKVfZnDlzGkWf/OQn3bbbbtvYjq5I5nfZZZdGVt62GzumrCDsCDvCnvImobiUBBD2Ug4LnYIABFoQQNhbwOlGkd1dP+CAA5qe6DJv3jwv5bfddtuAw65fv96XfeMb32iUfeQjH3F77rlnYzu6Yh8Ifvvb3/rsvG1H27L1s846y4Wvr371q75fK1assGpdXw4/v1mSQ2GM297vXx52cfmt8v7hsuW59xk/77Hc+3z56pW595m/rHnKVLegL33ut7n79pVrVnarO7QLgcIIIOyFoaQhCECgRwQQ9h6BtsMcddRRXnI1TSWaND1Gd9El9HFJZfoCq6Vw2/K1DNsKt6N1td6qLaurOfS77rpr00sfGrQvwv7ehwiE/T6HsNs7hmWZCSDsZR4d+gYBCMQRQNjjqHQpz57qEp0KY4e6+uqrvfzefPPNltVY6mkxEuMzzjijkffRj37U7b777o3t6Io9TvK1117z2XnbjrbVap0pMc13+xF2hL3V+4Wy8hBA2MszFvQEAhDIRgBhz8ap41qtZF2N2/PXL7744gHH0uMaJexXXXVVo+zTn/6023LLLRvb0ZXDDjvM7bbbbo2svG03dkxZQdgR9nBaEXfYU940FJeCAMJeimGgExCAQA4CCHsOWO1WTZN1tfvoo496KY97Soy+bCphf/jhhxtdsKfESJrDpOe8R58Sk7ftsL2kbYQdYUfYk94d5JeZAMJe5tGhbxCAQBwBhD2OSoF5WWTdDmfPSg9/BXXcuHGZn8Nud9OTnsOepW3rT9oSYUfYEfa0dwnlZSSAsJdxVOgTBCDQigDC3opOh2Um6/rSZ9Iregj9GNLWW2/tf6lU4q0voEbbiNbV+rHHHuvvvKttJf2iqu7E77PPPi7ul07ztB0eK24bYUfYEfa4dwZ5ZSeAsJd9hOgfBCAQEkDYQyIFbuupLhLopJeJdvSQmq9+4IEHNvbZa6+9XPiLqNH6F1xwgdtxxx19/a222spNnDjRvfHGG9EqjfW8bTd2TFhB2BF2hD3hzUF2qQkg7KUeHjoHAQjEEEDYY6CUIWvdunVu7drsz9vW3fh33nknU9fztp3UKMKOsCPsSe8O8stMAGEv8+jQNwhAII4Awh5HhbxMBBB2hB1hz/RWoVLJCCDsJRsQugMBCKQSQNhTEVEhiQDCjrAj7EnvDvLLTABhL/Po0DcIQCCOAMIeR4W8TAQQ9sER9mOu/Tc3+tJluV4zf/zvmcY0Wmnpc791oZCnbR8+92e5+qXz+PvL4n/dN9oX1iFQJAGEvUiatAUBCPSCAMLeC8o1PQbCPnjCnibOYXkvhT08dto2wl7TC0SJTwthL/Hg0DUIQCCWAMIei4XMLAQQdoQ9lHHdYQ/z0rYR9izvNuoUSQBhL5ImbUEAAr0ggLD3gnJNj4GwI+yhjLcj7Ide8n+73771p9yvmr6tOK0eEEDYewCZQ0AAAoUSQNgLxdlfjSHsCHsRwn7IrEdz35X/5IwH++vNxtkWSgBhLxQnjUEAAj0ggLD3AHJdD4GwI+wIe13f3fU+L4S93uPL2UGgjgQQ9jqOao/OCWFH2BH2Hr3ZOEyhBBD2QnHSGAQg0AMCCHsPINf1EAg7wo6w1/XdXe/zQtjrPb6cHQTqSABhr+Oo9uicEHaEHWHv0ZuNwxRKAGEvFCeNQQACPSCAsPcAcl0PgbAj7Ah7Xd/d9T4vhL3e48vZQaCOBBD2Oo5qj84JYUfYEfYevdk4TKEEEPZCcdIYBCDQAwIIew8g1/UQCDvCjrDX9d1d7/NC2Os9vpwdBOpIAGGv46j26JwQdoQdYe/Rm43DFEoAYS8UJ41BAAI9IICw9wByXQ+BsCPsCHtd3931Pi+Evd7jy9lBoI4EEPY6jmqPzglhR9gR9h692ThMoQQQ9kJx0hgEINADAgh7DyDX9RAIO8KOsBf37p5y09Pusxc9kut187/9v8V1oI9aQtj7aLA5VQjUhADCXpOBHIzTQNgRdoS9uHeehD3kmbaNsLfHH2Fvjxt7QQACg0cAYR889pU/MsKOsIdCefjcn+WWzkNmPZp7n0/OeLDy75/wBBD2kEj3thH27rGlZQhAoDsEEPbucO2LVhF2hB1hL+6tjrAXxzKtJYQ9jRDlEIBA2Qgg7GUbkQr1B2FH2BH24t6wCHtxLNNaQtjTCFEOAQiUjQDCXrYRqVB/EHaEHWEv7g2LsBfHMq0lhD2NEOUQgEDZCCDsZRuRCvUHYUfYEfbi3rAIe3Es01pC2NMIUQ4BCJSNAMJethGpUH8Q9uoI+3HXPe5uefw/c73Ou/P53F8G5Uun7b+BEfb22eXdE2HPS4z6EIDAYBNA2Ad7BCp8fIS9OsL+lWv+Lbd8f3H+z3Pvg7C3/4ZG2Ntnl3dPhD0vMepDAAKDTQBhH+wRqPDxEXaEnSkxxb2BEfbiWKa1hLCnEaIcAhAoGwGEvWwjUqH+IOwIO8Je3BsWYS+OZVpLCHsaIcohAIGyEUDYyzYiFeoPwo6wI+zFvWER9uJYprWEsKcRohwCECgbAYS9bCNSof4g7Ag7wl7cGxZhL45lWksIexohyiEAgbIRQNjLNiIV6g/CjrAj7MW9YRH24limtYSwpxGiHAIQKBsBhL1sI1Kh/iDsCDvCXtwbFmEvjmVaSwh7GiHKIQCBshFA2Ms2IhXqD8KOsCPsxb1hEfbiWKa1hLCnEaIcAhAoGwGEvWwjUqH+IOwIO8Je3BsWYS+OZVpLCHsaIcohAIGyEUDYyzYiFeoPwo6wI+zFvWER9uJYprWEsKcRohwCECgbAYS9bCNSof4g7Ag7wl7cGxZhL45lWksIexohyiEAgbIRQNjLNiIV6g/CjrAj7MW9YRH24limtYSwpxGiHAIQKBsBhL1sI1Kh/iDsCDvCXtwbFmEvjmVaSwh7GiHKIQCBshFA2Ms2IhXqD8KOsCPsxb1hEfbiWKa1hLCnEaIcAhAoGwGEvWwjUqH+IOwIO8Je3Bu2HWH/p1uecQsf+03uV3G9rmZLCHs1x41eQ6CfCSDs/Tz6HZ47wo6wI+wdvokiu7cj7JOuWenCMUjbnv3TNZGj9ucqwt6f485ZQ6DKBBD2Ko/eIPcdYUfYQzk8fO7PcgvkIbMezb3PJ2c8OMjRX/zhEfbimSa1iLAnkSEfAhAoKwGEvawjU4F+IewIO8Je3BsVYS+OZVpLCHsaIcohAIGyEUDYyzYiFeoPwo6wD5awj5jxoDvphqdyv/705/8p7TsMYe/d0CDsvWPNkSAAgWIIIOzFcOzLVhB2hH0whT08dpZthP0+xxx25xD2vvyTxUlDoNIEEPZKD9/gdh5hR9hDSe7VHHbdYQ+PnWX7H2cvd2Nn/z+5Xi+/+YeevNG4w94TzP4gCHvvWHOk3hOY/KMnc13jdE3816de7n1HOWIuAgh7LlxUjhJA2BH2UJLLLuyf+L9+klv0Efbou74e6wh7PcaRs4gnIGEPr81p2wh7PMsy5SLsZRqNivUFYUfYwz8CCHv7b2LusLfPLu+eCHteYtSvEgGEvUqjlb2vCHt2VpWvuXnzZnfmmWe6ESNGuD322MNNmTLFPfHEE22fF8KOsCPsbb99BuyIsA9A0rUMhL1raGm4BAQQ9hIMQhe6gLB3AWoZm3zhhRfcgQce6IYMGeJFferUqV7cd9xxR3f33Xe31WWEHWFH2Nt668TuhLDHYulKJsLeFayJjf7m9bddO6/EBiloSQBhb4mnsoUIe2WHLl/HzzjjDC/rixcvbuy4evVqL+2f//znG3l5VhB2hB1hz/OOaV23V8J+7p3PuVUvb8z9at37apUi7L0dr7ueeSX3nOqvLWj/v7+9PbvyHQ1hL9+YFNEjhL0IiiVv4+WXX3Y77LCDO+iggwb0VFNkdNd9/fr1A8rSMhB2hB1hT3uXZC/vlbAfc+2/5ZanC+5+PvuJVKAmwt7bQULYe8sbYe8t714dDWHvFelBPM4999zjpXzmzJkDerFs2TJfdscddwwoS8tA2BF2hD3tXZK9HGHPzqrTmgh7pwTz7Y+w5+PVaW2EvVOC5dwfYS/nuBTaq+uuu85L+YIFCwa0u3btWl924YUXDiiLZjzzzDMufH33u9/1+/7oRz8aUBbWLWp75/91hfs/Jud77f1PV+Xe5zNnXp97n//z3IW59/nHCxfl3mfsd27Ivc8XLsy/z9+fn79vB397Qe6+jTrjmtz77D7lh7n3UdwMO2Ve7v0eWPbznsT3l757S+6+9Sp+/tdl/9oTBkVdJ9LaefzJp3OzVvws//kTteKQxqmo8ktv/Ulu3oees9BddNP9uV9F9bnK7YyfcXNu3j+4+QFiO8ZzyhQH8+bN88714x//OKpnpVkfUpqeVLgj3//+9/0gP/jggwPO4p133vFlRx555ICyaMbIkSN9PU2f4QUDYoAYIAaIAWKAGCAGeh8DCHvUTmu2fsUVV3jJvvPOOwec2RtvvOHLJk+ePKAsmqGpM+Hr3HPPdaeddprTp76wrBvbBxxwgNt///17cqxu9L9KbS5dutTHhca4Sv2ual/tuyT6UF3Vc6hSv0eNGuUOPvhgWMdc14seRz2FTFL3ne98B9494P2tb33L83700Ufh3QPeekz2mDFjesJ6zpw5Ti+EPWqnNVu/9dZb/RtYYh2m559/3pddcsklYVHptg8//HA3duzY0vWrjh3auHGjj4uFCxfW8fRKd05XX3215/2HP/yhdH2rY4f0B3b8+PF1PLXSndNrr73mY/uWW24pXd/q2KG5c+d63v/zP/9Tx9Mr3TnpYR6TJk0qXb8Go0NMiSmAuu7a6Q7H9OnTB7S2ZMkSX3b//fcPKCtbBsLeuxFB2HvHWkdC2HvLG2HvHW+EvXesdSSEvbe8Efb3eSPs77Noe+3dd991e++9t9O/gcN0+umnu6222sqpTtkTwt67EULYe8daR0LYe8sbYe8db4S9d6x1JIS9t7wR9vd5I+zvs+hozb54Gn20o35ESXfeTzjhhI7a7tXOCHuvSDuHsPeOtY6EsPeWN8LeO94Ie+9Y60gIe295I+zv80bY32fR8Zp9GWX33Xd3n/jEJ7ysf+ELX3Dr1q3ruO1eNICw94Lye8eQsO+5556OOey9YS5hF2/msPeGN8LeG846ioRdsc0c9t4wl7CLN3PYe8MbYX+fM8L+PotC1nTR1BNhvva1r/m7elWYClPIidMIBCAAAQhAAAIQgEBXCCDsXcFKoxCAAAQgAAEIQAACECiGAMJeDEdagQAEIAABCEAAAhCAQFcIIOxdwUqjEIAABCAAAQhAAAIQKIYAwl4MR1qBAAQgAAEIQAACEIBAVwgg7F3BSqMQgAAEIAABCEAAAhAohgDCXgzHyreyZs0a/1gwPeVG66RsBJYtW+ZavZJaefrpp92VV17p9Cu5mzZtSqrm89evX++WLl3q5s+f71avXt2ybt0K9fjL5cuX+5fWW6XNmzf7sdBvIWhMtN0q5Yn5vG23Om6Zy/QIWuOd1M9W8a6ypGQxr1hWTLdKFvN6j2i/uiVxvuuuu9ysWbP8o10ffvjh1FO0eNXve7zyyist6+uaomtLVn66ruj6kmVsWh64pIU6P/1t07Xh1ltvTYypdmPbxibL3886X0v0VLyXX37ZPfnkk27RokXukksu8XFe9Pu9X68lCHtJLzC97JZ+jVU/8BR9KY+UTkDPm45yi67Hycurr77qxo0b17TPHnvs4R555JHYg/3whz9sqqv2+2Fspk2b5oYPH9507nE8DZr+II8YMaKpfiuu+sMdHatWXPO2bX2q0nL06NFu6NChTUyS+h/HzliqLExxMa/6Es+4FBfzkyZNiqtaybzPfOYzTZyN3fjx491//ud/xp5T3DVanOKSriWKfWtXS11zNA5xKU/bcfuXOU/XjPC6YFymTJkyoOuqb+XhUtf6uBT3fki6Rtf9WpLEb+edd/YfluL45Xm/9/u1BGGPi6A+yjvttNP8Bercc8/1d21050brulipjNSagAm7LlRxr3DvAw44wLOVrOgu2OOPP974g/Lcc881Vb/xxht9XcmKLvRvvvmmv+hpbL75zW821a3bxoQJE5wkcsaMGU7rOmfxTUr777+/+/CHP+xWrlzpq2hpf6jD/xgtWLDAtxeNefujGxfzedpO6l/Z84cNG+Y5i/fIkSM9n6Q+G6u4eI8bI4v522+/3ce8Ylk/KKcxTYp5laue3iPar04xr3NR7D377LP+h7x0d/2kk07y53jkkUcOwK73uvYRd12fX3rpJadrgvIUy9EknspX7OvaIn72i9uK4zBF29b1RcyT2g73rcK24nG33XZz8+bNcy+++KLvsnjYOeoucDSpvvhlje24a0mrv59x1xJdt3TM8DoV7VdV1sVNcaql5Fr/FV2yZImzv5Mqi6bwb1za+92uJfb3M8u1xP5+prUd7VdZ1xH2so5Mj/q1yy67uF133XXA0ZSnMlJrAnYhal3rvVL9G08X5tmzZzdVl1wq/9vf/nZT/he/+MXYsdEF6EMf+pBbu3ZtU/26bkgi7Y9o3DnecccdLbledtllTbtpzOJiXlzDmM/bdtOBKrqhD0rinZRM2JPKo/kW82IbTa1iXsd+4oknotW9YNUl5t9+++2mc7MN+4+ShNyS3uM675CfyhXDiuVo0jVE/OyDq5XpmqN8xbOlvG3bflVaShzj0m233eZ5hPxUX5yS9gvbSrqW7LXXXpmvJTY24XUqPFaVt43rl770pabTyPM3zq4l/fz3M/mq3ISVjToSsDdR3B8D5eW5cNWRT5Zz0gVbnLIkEx3dFQiT/vh+9KMfdX/+858bRWo3bmw011Rl4d2Kxo41W0kTdt2VFI8krtE/ypoukMY1+sc6T9t1wV6ksFvMK2bDlBTzn//858Oqfn513WPepqZITCy14mfXaJtOp2uHriFxH0b13hC/6B38PG1bf+qy/P3vf+95aKpGNNnfxOg1IFoeXW91LTG20XaSriU2NtHrVPQ4dVg3ruISTWnX4mh9Y5p0ne+Hv5/ZTCNKmPXaEEi6e6gTtE/90TsytTnxAk/EhF13CrR+yimnJIq06ugCFZeOOuooX2bzTO1f29ELlu33zDPP+Lrf+MY3LKvWyzRh17//t9tuu1gGGpO99967UaYvnGkMwrs0qmB/VKIxn6ftxkEqvpJV2LPEvE25UMyGKYz51157zY9Nv8a8zTv/3e9+10Cl97jiNY6fXaMV00q6dqiuuMYlvUcUz5bytG371GX585//3LOaPn160ynZNUAfnnTt0B3hs846y38Zt6mic/7Lq0VdSzQ20etUeKwqbz/wwAONKTEvvPBC41Tyvt/tWtJoILLSL9eSeHuIgGC1vgSuuOIKf9HSfLAw2bxH1SElE9BFfdSoUf6CpC+TbbPNNp5peOdGLey+++6+LK61qVOn+rJVq1b54ptuuslvx8nLhg0bfNnRRx8d11Tt8tKEfccdd2wSkSgAjc8OO+zQyJozZ45nFxfz9sc6GvN52m4cpOIrWYRd0zfE9sADD3RiJHGJi3n7kKqYDVMY860+pNY95u3u4UUXXdSESe9xsY3jZ9doxbSSrh2qK65xSbKusbKUp23bpw7Lt956yx1yyCH+Q354t1bXAH35WrGtl6bIiale4bW4yGuJxiZ6nao6Z7ESP/sQqpgMYzjv+92uJXFs+uVagrDHjX6f5H3/+9/3F6KHHnpowBkrTxcp1SElEwjvfOmiZFNWwuksJvNxrV1wwQWet+78KOkM67VMAAAOI0lEQVRxWHF/JFSmR2epbOzYsXFN1S4vTdi32GILd9BBB8Wet/5ofOADH2iUtYp5E/ZozOdpu3GQiq+kCbseFxima6+91sdkGPP25VLFbJjCmLe7nqEYab86x7yJt54SEya9x/Vej+MXXqONn7jGJb1HFM+W8rRt+9Rh+fWvfz3x2qprwDvvvNN0mnrUpb64qnGIftAv8lqisYlep5o6UMENvYf1+ta3vtV42lf4vrZ4DfN1unHvd7uWxOHol2sJwh43+n2Sd9111/mLUPhNeZ2+8nSBUh1SfgJ2cYk+L9ke5xbX2uTJkz1ve1LA/fff77fjLmZ6hrPGRn94+iGlCbv+mOqOb1yyu2RWZk91iIt5E/ZozOdp245R9WWasCedn2JVcRn9wuNXv/pVn6eYDVMY8//xH//RdzFv0wJ0hzW82yteJpdx/OwabU+K0bVD/MU1Luk9oni2lKdt26fqS4tRiWSepCediG30UZBFXks0NuEX3vP0r+x1Fy5c6PldfPHFja7mfb/btaTRQGSlX64lCHtk0Ptt1S5C4b9hxUF5ukCpDik/Ac2NDOXFLipxrdndrjfeeMMXm5THCbs9YePMM8+Ma6p2eWnCrkelRe8cRgFI2DVlyVKrmDdhj8Z8nrbtGFVfdirs0e8HxL0PjE8Y83oEnN4z/RLzK1as8OebJOvipPd4eB0xfuE1WtcO1RXXuKT3SPTRjnnajmuvankm65oLnTdZbB522GGNXYu8lmhsotepxkFqtLLVVlu5T33qU40zMqZZ3+92LWk0EFnpl2sJwh4Z9H5b1RdAdIGPmwtt8xujXxLpNz6dnK/Jud0xV1tXX321563nI4dJ8yY//elPN2V/7GMfix0bmzup9vohpQn7ySef3JLrscce28D01FNPJca8cY3GfJ62Gwep+Eqnwh6dMmMxb/Oso2iSYv6zn/1stJpft7GpS8y//vrrPg5bybpOvBU/u0Yrpi3pGiKuYdI1R9d6xbOlvG3bflVcmqzHPYEoy/nYk1yi/71odS05//zzPe8s1xIbm+h1KkufqlZHsb7TTjs1dTvP3ziL137++4mwN4VP/23oj6Mu8NFn/2pdeXF/OPuPUPIZ645sUtIfR/37+U9/+lOjiqbHKD+8o2BzWC+99NJGXa3omcoah/Bf5frVQn2BVY8m64eUJux2ZzyJ65133tmE6ZhjjhkQ86ogrmHM52276UAV3Wgl7Ekxry+Q6Q+yYl4/UGLJYl5so+muu+7y74W4mNd7ROXRVKeYtzuLabKu89d7XO/1kJ+uCbo2KJajSTzFLzrXWuUmrNHxy9t29DhVWrdzP+6441K7HffbFuJkj9AMrzFx1xL9/ZSIZr2WWP/C61RqZ0tYIfxbZV20v3H6sm805fkbZ9eScAxaXUvq9vcTYY9GTx+u28VCfxA0J1IvrceJZR/iaXnK+uOnuYdiKG76F6nxFD/N2wuT7qIYW9W3P7D77LOP03zWaPrJT37itt56ay9C+qU+XfSS/nBE96vDutiKpV6a1iJmurtleeGcXuMya9Ys/3hGLbWPuEYfkyc29913ny+Lxrztr/bDZGVZ2g73rcq24tfYKqYtRpWnMkthzOsLeT/4wQ/887+1T5aYVyxrvq6ENSnmVa560fdU3NhYv6q01NQHnbvxDpdRqdZ5qVxsFYcaC91p1P66NiiWo0k8FfOqr2tLlF/cHdxo27q+iHlS29HjVGXdzk/zn0POth09F11rNGXmqquu8tcRPTHq4IMP9jz1HaQwxV1LWv39rPu1RPx0jvqPmL6HpS+ja96/4lGvMLbDv3HReNX4hCn8+5nlWqJ4rsu1BGEPI6IPt/VHQL/MZm8qrUf/SPchkkynrIuPXZyNnZ6nq6c9SGSSkr7Rrjswts/EiROdzV0P99F8dd2psbp6TFY/jI3dVbfzDpfhhV/c9IdC8yRVV8tWXCUneWI+T9vhGFZh2+6qh5y1rTJL4q6pGLpzZXXbiXnFdNLduDDm9V6J++Ntfara0rglLeNiO7xG63Ga0S/3RhnoWqLYt/bFL+nJMdpPbdvj97SPxiap7ehxqrCuuDEOScvoeej561EWxkMCGn64tP24lhgJ5zTPXB9IQ9a6fibFVN73e/j3s5+uJQj7+7HW92v6d2DcvwT7HkwGAPo3aPQXCjPs4n8MRf8ez5L0uEh7RnuW+v1aR49kk/CEj2ZL4pEn5vO2nXTMuuTrvxztxHz4POYkHqoXPjY1qW6/5Ctew/8uJZ27ri15+On6knVsko5Zl/w333zTaa50Hh5cS94f/bfffts9+eST7vnnn0+8GfV+7ffW8r7fFdtZxydv22HfyrKNsJdlJOgHBCAAAQhAAAIQgAAEYggg7DFQyIIABCAAAQhAAAIQgEBZCCDsZRkJ+gEBCEAAAhCAAAQgAIEYAgh7DBSyIAABCEAAAhCAAAQgUBYCCHtZRoJ+QAACEIAABCAAAQhAIIYAwh4DhSwIQAACEIAABCAAAQiUhQDCXpaRoB8QgAAEIAABCEAAAhCIIYCwx0AhCwIQgAAEIAABCEAAAmUhgLCXZSToBwQgAAEIQAACEIAABGIIIOwxUMiCAAQgAAEIQAACEIBAWQgg7GUZCfoBAQhAoMIEZs6c6YYM4U9KhYeQrkMAAiUmwNW1xIND1yAAAQhUhUARwi7hnzFjRlVOmX5CAAIQ6BkBhL1nqDkQBCAAAQi0IoCwt6JDGQQg0M8EEPZ+Hn3OHQIQ6CsCy5Ytc/bSia9cudLNnj3bXX/99W716tWJLFatWuVuuOEGp7voy5cvdxs3bhxQN9quFa5bt87X17bW586d22jD6mip9tSuhH3y5Ml+Xdt6RZP6oT7opba0TYIABCDQDwQQ9n4YZc4RAhCAgHNe1iXFEt5jjz3WDR8+3H3mM59x22yzjRsxYkSstE+bNs2LtPaz16hRowbIstpUeTRpeovyFi1a5IYOHdrYX3kSc0uSfWs7XKqOhF7HtLKRI0c21rUvCQIQgEDdCTRfXet+tpwfBCAAgT4mYGI8adIkd+qppzZIPPvss27rrbd2Y8aMaeRpxYT7xBNPbOTrrvb222/vZb+R6Zz/ECChjibbf9iwYf7DgpWpPdUNZVt5cXPY58yZ4+tL/KNJfdGdexIEIACBuhNovrrW/Ww5PwhAAAJ9TMCEfeedd3br169vImF3yLW0JDGXbIfJBFpLS7a/bWtpwh6Ktu6Yx8l5XJ7asbv80bZZhwAEINBPBBD2fhptzhUCEOhrAibsEydOHMDhySef9BL9jW98w5fp7nWSQJtwS6QttRL2uLvganvChAm2u18mHU/CrzL9B+Cee+6JnUPf1BAbEIAABGpGAGGv2YByOhCAAASSCJiwn3POOQOqvP32216KDz/8cF9mdeOmqKiCBHr06NGNdloJe6NSZCXc39pMOp7ydcdf++mlOe36IiwJAhCAQD8QQNj7YZQ5RwhAAAKRL52ecMIJA3isWbPGi/Dxxx/vy7IIe/QOebeF3TqsfkneNVVH4h6dlmN1WEIAAhCoGwGEvW4jyvlAAAIQSCBgEq4nw4TJpp1ccMEFjSIJcfhFVBUuWbLEy3L0bnivhN06p2k5uuMevctvZSwhAAEI1I0Awl63EeV8IAABCCQQMGGXiC9evLip1hFHHOG22267pkc7xj3NJfqIxejc9KKEPXrX3jqofodJ/dCjIuPqh3XZhgAEIFB1Agh71UeQ/kMAAhDISMCE3eRaz0LXfPbDDjvM3zFXfjRJyG3qydFHH+2mT5/uH+co4Q+f/GJtRvfXHXjVjUvKD++O2wcEzU/XnX27u696ema8+qvj6KVttREn83HHIw8CEIBAlQnEX0mrfEb0HQIQgAAEYglEhV132KdMmeJl/etf/7q79dZbY/fRnWyJt6RZL0l1nCSbSEcbUb3otJlomfJD6Ve58lRmL+WpHT2Rxvpg/eCXTqNEWYcABOpMAGGv8+hybhCAAAQiBKLCHslmFQIQgAAESk4AYS/5ANE9CEAAAkURQNiLIkk7EIAABHpLAGHvLW+OBgEIQGDQCCDsg4aeA0MAAhDoiADC3hE+doYABCBQHQISdntVp9f0FAIQgAAEEHZiAAIQgAAEIAABCEAAAiUmgLCXeHDoGgQgAAEIQAACEIAABBB2YgACEIAABCAAAQhAAAIlJoCwl3hw6BoEIAABCEAAAhCAAAQQdmIAAhCAAAQgAAEIQAACJSaAsJd4cOgaBCAAAQhAAAIQgAAEEHZiAAIQgAAEIAABCEAAAiUmgLCXeHDoGgQgAAEIQAACEIAABBB2YgACEIAABCAAAQhAAAIlJoCwl3hw6BoEIAABCEAAAhCAAAQQdmIAAhCAAAQgAAEIQAACJSaAsJd4cOgaBCAAAQhAAAIQgAAEEHZiAAIQgAAEIAABCEAAAiUmgLCXeHDoGgQgAAEIQAACEIAABBB2YgACEIAABCAAAQhAAAIlJoCwl3hw6BoEIAABCEAAAhCAAAQQdmIAAhCAAAQgAAEIQAACJSaAsJd4cOgaBCAAAQhAAAIQgAAEEHZiAAIQgAAEIAABCEAAAiUmgLCXeHDoGgQgAAEIQAACEIAABBB2YgACEIAABCAAAQhAAAIlJoCwl3hw6BoEIAABCEAAAhCAAAQQdmIAAhCAAAQgAAEIQAACJSaAsJd4cOgaBCAAAQhAAAIQgAAEEHZiAAIQgAAEIAABCEAAAiUmgLCXeHDoGgQgAAEIQAACEIAABBB2YgACEIAABCAAAQhAAAIlJoCwl3hw6BoEIAABCEAAAhCAAAQQdmIAAhCAAAQgAAEIQAACJSbw/wOwGerU3YuWcwAAAABJRU5ErkJggg==;" vertex="1" parent="1">
          <mxGeometry x="5" y="590" width="256.46" height="180" as="geometry" />
        </mxCell>
        <mxCell id="9fY33cOpb0TvVjGmPDQJ-8" value="" style="shape=image;verticalLabelPosition=bottom;labelBackgroundColor=#ffffff;verticalAlign=top;aspect=fixed;imageAspect=0;image=data:image/png,iVBORw0KGgoAAAANSUhEUgAAAk0AAAGaCAYAAAASKXdSAAAgAElEQVR4Ae29DZAV12HnS1KJ9QESmIVYhSwNGxThiI2YiEc56CMQKwJkg0FCY0kPR1BAiMKSBXkjNGI3C1G9VwoVWaiIefPGoEJGKI6pkrCCsGXjGJUlhonA4WGh4KxlUTZQsihUBEUG87Kps/U/8bk+3dN9b9+Z7nv743eqmu4+ffp8/M65t390n9szzBAgAAEIQAACEIAABBoSGNYwBQkgAAEIQAACEIAABAzSxCCAAAQgAAEIQAACCQggTQkgkQQCEIAABCAAAQggTYwBCEAAAhCAAAQgkIAA0pQAEkkgAAEIQAACEIAA0sQYgAAEIAABCEAAAgkIIE0JIJEEAhCAAAQgAAEIIE2MAQhAAAIQgAAEIJCAANKUABJJIAABCEAAAhCAANLEGIAABCAAAQhAAAIJCCBNCSCRBAIQgAAEIAABCCBNjAEIQAACEIAABCCQgADSlAASSSAAAQhAAAIQgADSxBiAAAQgAAEIQAACCQggTQkgkQQCEIAABCAAAQggTYwBCEAAAhCAAAQgkIAA0pQAEkkgAAEIQAACEIAA0sQYgAAEIAABCEAAAgkIIE0JIJEEAhCAAAQgAAEIIE2MAQhAAAIQgAAEIJCAANKUABJJIAABCEAAAhCAANLEGIAABCAAAQhAAAIJCCBNCSCRBAIQgAAEIAABCCBNjAEIQAACEIAABCCQgADSlAASSSAAAQhAAAIQgADSxBiAAAQgAAEIQAACCQggTQkgkQQCEIAABCAAAQggTYwBCEAAAhCAAAQgkIAA0pQAEkkg0G4C+/btM3HLUOo2Y8YMs379+loWKkNxWhOaJxDmGZcDnOPIEA+BfBNAmvLdP9QOApaAxGbYsGGRy1AQKc+wNCkOaRoc1TDPuFzEdzCcp0+fbrZt2xaXLfEQgEDGBJCmjAGTPQTSIOCkSRfb8DKU/MMXeT/voeRb1XPDPOM4DJaz8l+3bl1ctsRDAAIZE0CaMgZM9hBIg4CTpqHm9bWvfc1s3LjRHD582GYVvsjXu5jrnK9+9av2zpTWZ8+eHVCd48ePm1deecU89dRTdj0gQZ0I5a/z1FblEZW/4lz+zzzzTK0dfrZ+mrh81E7VVUHbKtPtK26w7fB5unx37Nhhzp8/71cxIL7+AZWrdqk+YuzXSfkp/8WLF1sGapt/XPm4Popj48r6wQ9+YDZt2mR27dplOStvt7g0ykuLy1d9ozQu6JjKcX0d1V9+nkePHjWbN282L7/8sjl37pzLxhw6dMjW5ctf/nItjg0I5JUA0pTXnqFeEPAI+NJ05MgR70iyzR/96EfmU5/6lLniiivsnCWtdbHzL/LKSRc5xfkXR10MV69ebeN1TI+ItNbiB8mYi+/o6LDbmuMTdTH1z9Pxzs5Om37y5Mm1/FWOH3SBHzVqlE2n/F0Zfl3DaVQf5e0u/i4/xa9atapWrvZdPmqHK0f1cXk0aofyVlr1VVdXl90eP368XX/84x83p0+fdsVHclZ9dL7apbaPHDnS7ruTdCy8+Hed3Pk6z50rwQrX240l1W3KlCnmhhtuiKyP6qBl0aJFtXJdefPmzavV1fWD8gtzVv+7eV6qu+MxdepU26wHHnjA5uPixY0AgTwTCH7r5bmm1A0CFSbgLnTuonn11VeblStXmh//+MeJqMydO9dMmjTJ6H/7Cm+99ZaZP3++vWApbxeipEkXSpUrmfCDP7dGshJOowuoLqi66NYLTrbCF1x/X3dUlL8u4r4EKN7dbVG8ZEei49K4Ouii7AfHUaLhB9d+P175qx26+DcKylcX/s9+9rPm7bfftsnFSfG6y+KCK8eJmmtfmLHPQOcqHycuLi+tXRn++S7OT9/b22vz8Pt8586dNk55u/ooT7FWnATJ8XRlujtUbl/1F/cwZydNt99+u72j5NdVdYiKf/rpp122rCGQOwJIU+66hApBYCABXWCWL19uL4668EmCdEHTnYJ//ud/HniCF7N3716b9uGHH/ZijXn22WdtvH8BDV/MdYLKaSQ+7u5IoADvYh6O9/edlIUvzH4aXbh196ReGidfTqLc+U4edKF3QW3SRT4cVE5UvJPCsMSEz1e+o0ePDjyO06O5D33oQ+aP//iPa8nDnN2+X8daYm9D+fsS5A6Jf1S91R6JpAu33nqr7U9Jsx9uu+02Gx8lTfWY+3m4Nvj8JU2q86uvvlpLeuHCBXPJJZfExi9ZsqSWlg0I5I0A0pS3HqE+EEhIQLKjC9KaNWvqnqH/uSudf0HUCd///vdtfD1pchfCJBdz9xhG+blFj4eiyvYr7MrQXQo9BtRcnnBwj4rC8f6+Eys/Ttu66KsOvmxo37+b5M5R/GDboTx0/rJly1x2tbW74+IiXJtdn6iOEh8JjphprlCUrITb4fKLi3dC6kRGdyi1hIMbS64+Oi7mUSKmY6qbznHt0to9YvXzULwe/4VDvXgdI0AgrwSQprz2DPWCQAICuljqMVu9sGHDBnsxP3PmTCDZv/zLv9h4XfxcCF/Mw/sunb/W3RfVw91tcoLjrxvdodFx3c1yc3EkD/6jJsUrv3pBx3XhjgphqQjvu3OG2g6d7/N0+UoEfBmI4ioRkchJVJSPFgmUHxTny587Fhfv7rI5kbnsssvMTTfd5E6rrd0jOpdOB1z/1RL9fEP1FGf1ieoiodZ57k6fn0e43S6vZuPdeawh0G4CSFO7e4DyITAEArpYNpo8+zd/8zf2AqwLqB9ee+01G+9f5HXBU57uwueEyBcYPw+3rXOi7ty4482sVabuGilPJ1txF3A/X5Wvc8JBd1kU78tGeN+dIxFo9CjSpY1aK1+fp0sTloQwZ5fOrVVnd5fIZx9Xb8VH8Xd5uLtWN954o/nVX/1V87Of/cwVZdeag6U8XL8rMo65q3v47qP2w3mE2+0KbTbenccaAu0mMPAbpt01onwIQCARAV2cdZHq7u6um14/6Va6pUuXBtJ94QtfsPH+Rd5dEP2Lp+4gxd3BcRnqAqu7Q+7i7OIHuw7Xw138/XqF83Z3VcIXc3euEzCdJx6KDwcJk9rhHmeFjzfaV74+T5c+LAnh9rl04XW4nuF9l97NXQrzV99pcUE/HlAe+/fvd1F2rTSK9/nGSZPj7PNUJk50/TzC7XaFNhvvzmMNgXYTQJra3QOUD4EEBDThWxdjPUbRnQf96kgXOclM+EIZlZ0mkSu9ztdF7fnnnzfXXnutjfMv8lEXc3cHQRc6vRtIi+Yd+Y+OJBm6S6P66JhLp7k5Oq9ekKhoLpM7R2v3+Me1TWtd2CU0ytOlVd39i7cebSmNq4N7rYIu6H4Qiyhpcu3Q/CqXh8pK0g7lr3x9nq7MsCSEOWtfPP0ylY/y8yXQyamOqV5O7lx+4ubYuF9H+ufr15YaS/ol5datW83f/u3fmnvvvdfWWWUpHxfipEllKq0/HlR39X84j3C7Xd7NxrvzWEOg3QSQpnb3AOVDIAEB994fXZS0fOxjH7MXulOnTiU4+9+T6I7U8OHD7fnXXXedeemll+y2f5F3F1//4qmzte/PtVEdwiKii6m72+DqKdFp9LhL8uLudLjzdMH2ZUh1kDgpL3dxVlrVyYmDn8blo7RRj610PEqalIfyUzkuD62TtEPnKq3PU3EKYUkIc1aZYb4q0xce5eMYi0+4DeE+ijpfeejXlitWrDBjx441en+U6qsXSyq/Y8eO2frqnzhp0jHVy+8H9bvilIc/dsLtdpk3G+/OYw2BdhNAmtrdA5QPgSYI6D1L4Z+LN3G6/Sl8WEaaOZ+05SQgcZLwvP/+++VsIK2CQEoEkKaUQJINBCAAgSIQ0Hu+/OCESY9wCRCAQH0CSFN9PhyFAAQgUCoCejSmu0r+ojlJ/mPOUjWYxkAgRQJIU4owyQoCEIBA3gmcPHnSzjvS3KPvfve7gb+Jl/e6Uz8ItJsA0tTuHqB8CEAAAhCAAAQKQQBpKkQ3UUkIQAACEIAABNpNAGlqdw9QPgQgAAEIQAAChSCANLWpm5588kn7Qr+vfOUrhgUGjAHGAGOAMcAYSD4G/vIv/9JeQ1t9CUeaWk385+VJmi699FIzbdo0FhgwBhgDjAHGAGOgiTGgl8H+yq/8Ssuv4EhTy5H/e4Hf/va3zW/8xm+0qXSKhQAEIAABCBSXwPe+9z3z4Q9/uOUNQJpajvzfC0Sa2gSeYiEAAQhAoPAEkKbCd2FzDUCamuNFaghAAAIQgIAjgDQ5EhVZI00V6WiaCQEIQAACqRNAmlJHmu8MkaZ89w+1gwAEIACB/BJAmvLbN5nUDGnKBCuZQgACEIBABQggTRXoZL+JSJNPg20IQAACEIBAcgJIU3JWpUiJNJWiG2kEBCAAAQi0gQDS1Abo7SwSaWonfcqGAAQgAIEiE0Caitx7g6g70jQIaJwCAQhAAAIQMMYgTRUbBkhTxTqc5kIAAhCAQGoEkKbUUBYjI6SpGP1ELSEAAQhAIH8EkKYU+uTs2bPmmWeesX/5eMaMGWbbtm2xua5fv958/OMfN6NGjTLz5883+/btC6TduXOnmTt3rhk3bpzNT3mHw/bt2wNpwsfr7SNN9ehwDAIQgAAEIBBPAGmKZ5P4iMSno6PDzJs3z67XrVsXee79999vJk2aZLZu3Wr27Nlj1q5dG5Cm3bt3m2HDhhmJlba7urpMZ2enee+992r56ZjSbNq0yezatcvmp3RJQ1bS9Fz/j0wzy6ovH24qvfImQAACEIAABNpJAGlKmf706dNNlDQ9++yzVnYOHToUW6LuMC1cuDBwfMyYMWbHjh21OEnXhg0bavv9/f02X0lWkpCVND22+03T8chLiZd7ew8kTqt8u5//XpLmkQYCEIAABCCQGQGkKWW0cdJ066232kdqH3zwgXn99dfN8ePHAyWfOXPGyk/4cZ0e9z300EM27blz5xqmCWQasYM0RUAhCgIQgAAEIJCAANKUAFIzSeKk6eqrrzarVq2yj9PGjx9v5Wfx4sU1eVJH6LFbWJqWLVtmH9OpDkePHrVpTp48GaiSxGrBggWBOLfT09Nj/EUCpvlSaQfuNKVNlPwgAAEIQCBvBJCmlHskTpouueQSK0xbtmyxJeqxmh69LV++3O739fVFSlN3d7eZOXNmIM2FCxcCtZY0zZo1KxDndlavXm3mzJlTW6ZNm4Y0OTisIQABCEAAAk0QQJqagJUkaZw0TZgwwVx55ZWBLP7wD//QXH/99Tbu7bffjpSm++67z+iOlIIe6elu1LFjxwL5SJqWLl0aiIvb4fFcHBniIQABCEAAAvUJIE31+TR9NE6abrvtNvObv/mbgfx6e3vtqwcUqblOEiK9csAPU6dONY8++qiNunjxok2jX975QZPD9Uu8JAFpSkKJNBCAAAQgAIGBBJCmgUyGFBMnTRIkSdHBgwdr+esO0ac//enavh7V6Rd0LmgO0/DhwwPznHRcrx1wQZKlfOv9Ks+l1Rpp8mmwDQEIQAACEEhOAGlKzqpuSsmSJEgvrdREb21r4rcf7rnnHvNbv/VbNv7OO++0svPaa6/VkkiSdNdI85NWrFhht92cJ5dIrxbQRO677rrLPpKTMPkS5dLFrZGmODLEQwACEIAABOoTQJrq80l8VO9mCi9Rbwb/8pe/bB5//HErOpoMHg4SJ00W17uYXnjhhfBhu69Oa5Qm8kTuNMVhIR4CEIAABCDQkADS1BBRuRJwp6lc/UlrIAABCECgdQSQptaxzkVJSFMuuoFKQAACEIBAAQkgTQXstKFUGWkaCj3OhQAEIACBKhNAmirW+0hTxTqc5kIAAhCAQGoEkKbUUBYjI6SpGP1ELSEAAQhAIH8EkKb89UmmNUKaMsVL5hCAAAQgUGICSFOJOzeqaUhTFBXiIAABCEAAAo0JIE2NGZUqBdJUqu6kMRCAAAQg0EICSFMLYeehKKQpD71AHSAAAQhAoIgEkKYi9toQ6ow0DQEep0IAAhCAQKUJIE0V636kqWIdTnMhAAEIQCA1AkhTaiiLkRHSVIx+opYQgAAEIJA/AkhT/vok0xohTZniJXMIQAACECgxAaSpxJ0b1TSkKYoKcRCAAAQgAIHGBJCmxoxKlQJpKlV30hgIQAACEGghAaSphbDzUBTSlIdeoA4QgAAEIFBEAkhTEXttCHVGmoYAj1MhAAEIQKDSBJCminU/0lSxDqe5EIAABCCQGgGkKTWUxcgIaSpGP1FLCEAAAhDIHwGkKX99kmmNkKZM8ZI5BCAAAQiUmADSVOLOjWoa0hRFhTgIQAACEIBAYwJIU2NGpUqBNJWqO2kMBCAAAQi0kADS1ELYeSgKacpDL1AHCEAAAhAoIgGkqYi9NoQ6I01DgMepEIAABCBQaQJIU4rdf/bsWfPKK6+Y48ePN8x137595vDhw5HpdKy3t7duPknSRGWONEVRIQ4CEIAABCDQmADS1JhRwxSSn/Hjx5thw4bZZd26dXXP0XGlnT59+oB0XV1dZtSoUWbKlCk2zcaNGwNpJGQzZ84048aNM52dnTbNzp07A2nq7SBN9ehwDAIQgAAEIBBPAGmKZ5P4iERm27Zt9s6RRKieNEmwRo4caSZPnjxAmtavX28mTZpkjh49asuWDEmu+vv7a3WRVGlxQedIoE6dOuWi6q6Rprp4OAgBCEAAAhCIJYA0xaIZ3IFG0iRZ2rVrlxUm/07TxYsXrfxIgvwwceJE48dJoiRofhg9enQgjX8svI00hYmwDwEIQAACEEhGAGlKxilxqnrSpDtQ8+bNs3kpnS9NulslIdJcJT/cfffdZunSpTbqxIkTNs2RI0f8JGbGjBlmyZIlgbi4HaQpjgzxEIAABCAAgfoEkKb6fJo+GidN7rGcmyQelqa+vr5IaVqzZo2ZNWuWrYdLc/78+UC9JE2a5xQVVq9eba666qraortSepyXdnhs95um45GXEi/39h5InFb5dj//vbSrTH4QgAAEIACBpgggTU3hapw4Tpr0WM6f1B2WpjfeeCNSmh588EGzYMECW7A6S3ej3nnnnUBFJE3+PCf/4MGDB42/9PT0mGuuucZPkso20pQKRjKBAAQgAIEcE0CaUu6cKGnSIzf9Ik5zk9yiX9tpcfOV3n333Uhpmj17tlm5cqWt5ZkzZ2yaAwcOBGotaVq1alUgLm6Hx3NxZIiHAAQgAAEI1CeANNXn0/TRKGnSIznNZ/KXjo4Oo8X/pZ1eM+AkyhUssdI7m1zQo7WtW7e6XfurOd198tPUDkZsIE0RUIiCAAQgAAEIJCCANCWAlCSJ7ibpxZZ6d9LixYvtdtzLK5Vf+PGc4iQ+EiC9auD06dNWoLTv5kEpjeYo6bUE+/fvt/F6LCfZShqQpqSkSAcBCEAAAhAIEkCagjwGvSe5CS8So7gQJU1KqztNEyZMMCNGjDA333yzefXVVwdk0d3dHUjj3us0IGFEBNIUAYUoCEAAAhCAQAICSFMCSGVKgjSVqTdpCwQgAAEItJIA0tRK2jkoC2nKQSdQBQhAAAIQKCQBpKmQ3Tb4SiNNg2fHmRCAAAQgUG0CSFPF+h9pqliH01wIQAACEEiNANKUGspiZIQ0FaOfqCUEIAABCOSPANKUvz7JtEZIU6Z4yRwCEIAABEpMAGkqcedGNQ1piqJCHAQgAAEIQKAxAaSpMaNSpUCaStWdNAYCEIAABFpIAGlqIew8FIU05aEXqAMEIAABCBSRANJUxF4bQp2RpiHA41QIQAACEKg0AaSpYt2PNFWsw2kuBCAAAQikRgBpSg1lMTJCmorRT9QSAhCAAATyRwBpyl+fZFojpClTvGQOAQhAAAIlJoA0lbhzo5qGNEVRIQ4CEIAABCDQmADS1JhRqVIgTaXqThoDAQhAAAItJIA0tRB2HopCmvLQC9QBAhCAAASKSABpKmKvDaHOSNMQ4HEqBCAAAQhUmgDSVLHuR5oq1uE0FwIQgAAEUiOANKWGshgZIU3F6CdqCQEIQAAC+SOANOWvTzKtEdKUKV4yhwAEIACBEhNAmkrcuVFNQ5qiqBAHAQhAAAIQaEwAaWrMqFQpkKZSdSeNgQAEIACBFhJAmloIOw9FIU156AXqAAEIQAACRSSANBWx14ZQZ6RpCPA4FQIQgAAEKk0AaapY9yNNFetwmgsBCEAAAqkRQJpSQHn27FnzzDPPmNWrV5sZM2aYbdu2Dch17969ZsmSJeajH/2o+chHPmLuuusu89Zbbw1It3PnTjN37lwzbtw4m5/yDoft27cH0oSP19tHmurR4RgEIAABCEAgngDSFM8m8ZF9+/aZjo4OM2/ePLtet27dgHMlU4sXLzaSIknVZz7zGTNp0iRz9OjRWtrdu3ebYcOGmfXr1xttd3V1mc7OTvPee+/V0uiY0mzatMns2rXL5qF0SQPSlJQU6SAAAQhAAAJBAkhTkMeQ96ZPn26ipOnYsWOBvCVPkp+nn366Fq87TAsXLqzta2PMmDFmx44dtTiJ1oYNG2r7/f39Nh9JVpKANCWhRBoIQAACEIDAQAJI00AmQ4qJk6ZwprrD5EvTmTNn7L7uWvlBd6geeughG3Xu3LmGafxzo7aRpigqxEEAAhCAAAQaE0CaGjNqKkVSaVqzZo25+uqrzZEjR2z+6ghJVFiali1bZh/TKZETrZMnTwbqJLFasGBBIM7t9PT0GH+RgGm+VNrhsd1vmo5HXkq83Nt7IHFa5dv9/PfSrjL5QQACEIAABJoigDQ1hatx4iTS5B7NPf/887UM+/r6IqWpu7vbzJw506ZzaS5cuFA7TxuSplmzZgXi3I4mp8+ZM6e2TJs2rZDS1NXTZ2b85b7Eyx89e8ghYA0BCEAAAhBIhQDSlArGX2TSSJqcMGlCtx/efvvtSGm677777ARypT1+/LhNE54fJWlaunSpn13sdlEfz0mamrmThTTFDgEOQAACEIDAIAkgTYMEF3daPWmKEybl9cEHH1ghUho/TJ061Tz66KM26uLFizbNnj17/CT2F3Rr164NxMXtIE1xZIiHAAQgAAEI1CeANNXn0/TROGmqJ0yukOXLl9v3L7l9zWEaPnx4YJ6TfmHn36Vy+R46lOxxFNLk6LKGAAQgAAEINEcAaWqOV2xqyZIek40aNcqMHz/ebq9ataqWXpO8dTy8+AIkSdIrBTQ/acWKFXZbIuUHvVpAE7n1ckw9klO+fh5+2qhtpCmKCnEQgAAEIACBxgSQpsaMEqXQu5nCi/9mcIlN3OIXIHHasmWLfRfTCy+84B+qbavTGqWpJQ5tVEWa5m9+zWz4+rGmlhAqdiEAAQhAAAIBAkhTAEf5d6okTc1MHL+np6/8nU8LIQABCEBgSASQpiHhK97JSFP0u6SQpuKNZWoMAQhAoNUEkKZWE29zeUgT0tTmIUjxEIAABApLAGkqbNcNruJIE9I0uJHDWRCAAAQggDRVbAwgTUhTxYY8zYUABCCQGgGkKTWUxcgIaUKaijFSqSUEIACB/BFAmvLXJ5nWCGlCmjIdYGQOAQhAoMQEkKYSd25U05AmpClqXBAHAQhAAAKNCVRemg4fPtyYUolSIE1IU4mGM02BAAQg0FIClZcm/VmT22+/3WzdutX89Kc/bSn8dhSGNCFN7Rh3lAkBCECgDAQqL00/+clPjP5G3C//8i+bsWPH2r/59p3vfKcMfRvZBqQJaYocGERCAAIQgEBDApWXJp/Q5z//eTNx4kT7R3B1B2rz5s3m9OnTfpLCbyNNSFPhBzENgAAEINAmAkhTBPjdu3ebuXPnWnkaP368+eu//uuIVMWMQpqQpmKOXGoNAQhAoP0EkKaf98GJEyfMww8/bEaOHGkuu+wys2bNGnPy5EnT29trRo8ebdft766h1wBpQpqGPorIAQIQgEA1CVRemnbu3GmmTZtm7yrdeOON5otf/OKAkbBu3Tqjx3VlCEgT0lSGcUwbIAABCLSDQOWlSTI0b9488/LLL8fyX79+vdFShoA0IU1lGMe0AQIQgEA7CFRemv7xH/+xHdzbVibShDS1bfBRMAQgAIGCE6i8NO3atcvs27dvQDcqTsfKFpAmpKlsY5r2QAACEGgVgcpLU0dHh4l6K7ikqbOzs1X90LJykCakqWWDjYIgAAEIlIxA5aVp2LBhkV169uxZOzk88mCBI5EmpKnAw5eqQwACEGgrgcpLk+40RT2GU9zkyZPb2jlZFI40IU1ZjCvyhAAEIFAFApWXJv0JFT2G8x/RuUdzetVA2QLShDSVbUzTHghAAAKtIlB5adJjOL1yQI/p/EVxZQxIE9JUxnFNmyAAAQi0gkDlpclB1p2mbdu22cW/6+SOl2WNNCFNZRnLtAMCEIBAqwkgTSkS112rV155xRw/fjw2VwmZXpRZT8z0eFB/vqVePknSRFUCaUKaosYFcRCAAAQg0JgA0mSMfU+Te+u3v9adpyRBAqQ/7Ose78XNhVLeV1xxhf2TLFprPxy6urrMqFGjzJQpU2x+GzduDCSRSM2cOdOMGzfOzsVSmfpTMEkD0oQ0JR0rpIMABCAAgSCBykuTBEfiMX369AGLJoknCRIZCZbkSflESdPu3bttOYcOHbJZaq1yFe+CJGrSpEnm6NGjNkoypDT9/f0uiZFUaXFB50igTp065aLqrpEmpKnuAOEgBCAAAQjEEqi8NI0cOTLylQOxxBociJOmuXPnBmRH2dx5551G8QoXL1608hO++zRx4sTAHSlJVPgO2OjRowNp6lURaUKa6o0PjkEAAhCAQDyBykuTJKTe3KF4dNFH4qTp+uuvN+FHbRIkxSuoDqqL5ir54e677zZLly61USdOnLBpjhw54iexj/uWLFkSiIvbQZqQprixQTwEIAABCNQnUHlp0iO4sMzUR1b/aJw0XXrppWbPnj2BkyVNilfo6+uLlKY1a9aYWbNmBdKcP38+kM+MGTPsPKdA5M93Vq9eba666qraortSepyXdnhs95um45FoIWRpp+cAACAASURBVImKv7f3QFPpu3r6mko/f/NrTaW/p6cvbSTkBwEIQAACJSNQeWnSoy5NvJ4/f759xCWRcUv4MViSvo+TprFjxw6YsK1yFK/wxhtvRErTgw8+aBYsWGDTqLN0N+qdd94JVEXS5M9z8g8ePHjQ+EtPT4+55ppr/CSpbCNNqWAkEwhAAAIQyDGBykuT7jRJdKKWpBPB/f6Nk6abbrrJ/MVf/IWf1MqZ4hXefffdSGmaPXu2WblypU1z5swZm+bAgQOBfCRNSevK47nou2HcaQoMKXYgAAEIQCCCQOWlKYLJkKLipGn58uV27pGfuWRH8S7oNQO6++QHvcpA72xyQY/Wtm7d6nbtr+Z098lPUzsYsYE0IU0Rw4IoCEAAAhBIQABp+jkk92JKrQcTNIFbL7bU37FbvHix3fZfYOleMeAe+Wkt2XGvIFCZEh/F6VUDp0+ftgKlfX+iuuYo6bUE+/fvt/F6LCfZShqQJqQp6VghHQQgAAEIBAlUXpokSZrPJDnR4n69tmjRosSPvITUne+vddfJD5KhG2+80abVOuqllLrTNGHCBDNixAhz8803m1dffdXPwm53d3cH0rj3Og1IGBGBNCFNEcOCKAhAAAIQSECg8tKkuUCTJ0+2d20kOU6atNZdo7IFpAlpKtuYpj0QgAAEWkWg8tKkl1u6x2i+NOkOlO4alS0gTUhT2cY07YEABCDQKgJI08iRtTlDvjTpTlNHR0er+qFl5SBNSFPLBhsFQQACECgZgcpL07x582p/K86XJsVrXlPZAtKENJVtTNMeCEAAAq0iUHlp0i/T9IhO85f0835NCtdacf6v1lrVIVmXgzQhTVmPMfKHAAQgUFYClZcmdazmL61bt672gkttD/bVA3kfKEgT0pT3MUr9IAABCOSVANKU157JqF5IE9KU0dAiWwhAAAKlJ1B5adIv5/RSyqjF/aquTKMAaUKayjSeaQsEIACBVhKovDRp8rf/Qkp/W8fKFpAmpKlsY5r2QAACEGgVgcpLUxToXbt22flN3GmKohMd99juN03HI9FCEhV/b++BptJ39fQ1lX7+5teaSs8f7I3uV2IhAAEIQOAXBJCmX7AIbEmceCN4AEndHaSpLh4OQgACEIBACQggTTGdqJdb8kbwGDgR0UhTBBSiIAABCECgVASQpoju1GM5va9JL7gsW2BOU/QjRB7PlW2k0x4IQAAC6ROovDTFTQTXn1BhTlPyAcedpuSsSAkBCEAAAsUkUHlpkhjpUZy/lPXFlhqi3GniTlMxv6qoNQQgAIH2E6i8NLW/C1pbA6QJaWrtiKM0CEAAAuUhUHlpWr9+vUm6lKHbkSakqQzjmDZAAAIQaAeBykvTjBkzjBb9Uu7Xfu3X7KJtF++v29FBaZeJNCFNaY8p8oMABCBQFQKVlybdZfrEJz5hXnzxxVqfa/uWW26xd6BqkSXZQJqQppIMZZoBAQhAoOUEKi9NEyZMsH93LkxecqFjZQtIE9JUtjFNeyAAAQi0ikDlpenKK6+0v5wLA9ev6XSsbAFpQprKNqZpDwQgAIFWEai8NN199912/tL27dvN8ePH7aJtzWXSsbIFpAlpKtuYpj0QgAAEWkWg8tJ08uRJc8cdd9iJ4JoA7pa5c+caHStbQJqQprKNadoDAQhAoFUEKi9NDvRLL71kNm/ebHp7e83evXtddOnWSBPSVLpBTYMgAAEItIgA0tQi0HkpBmlCmvIyFqkHBCAAgaIRQJqMMevWrTOjRo2yj+Y0AVxh48aNdkmzQzdt2mTuvPNOW85dd91lvvSlLw3IfufOnUaPBseNG2dWr15tov6ki+Zc+WkGZFInAmlCmuoMDw5BAAIQgEAdApWXJgnT5MmTza5du+zaSZP29cd80woSJs2Xevjhh+2v9ZYvX273t23bViti9+7dNk7vjtJ2V1eX6ezsNO+9914tjY4pH+WnOk6aNMmmqyVosIE0IU0NhgiHIQABCEAghkDlpamjo6P2ygFJkpMm3eGRnKQVJECLFy8OZDd+/PiA8Oju0cKFCwNpxowZY3bs2FGLkyRt2LChtt/f32/rKclKEpAmpCnJOCENBCAAAQgMJFB5aZIYuUdgvjQdPnzYSKjSCo8//riZNm1aLbvvfve75pJLLjGKVzhz5oyVHydtLqFeffDQQw/Z3XPnzjVM486LWyNNSFPc2CAeAhCAAATqE6i8NEmUNH9JwZcmPbabN29efXpNHH3rrbeM5jHdeuut9s+zTJkyxTzwwAP2vVDKRh0hgQtL07Jly2p3o44ePWrThF+FILFasGBBZG16enqMv0jANF8q7fDY7jdNxyPRQhIVf2/vgabSd/X0NZV+/ubXmkp/T09f2kjIDwIQgAAESkag8tKkO0qSFT060+MyrefPn2/jdCytcPr0abN06VKbr5uX9LnPfc588MEHtoi+vj57LCxN3d3dZubMmYE0Fy5cCFRL0jRr1qxAnNvRZPI5c+bUFt3tQpoGyh3S5EYMawhAAAIQiCNQeWkSGMmR7irpcZwWbacpTCpDMnbdddcF+kH7bp7T22+/HSlN9913Xy2N3lguwTt27FggH0mThCxJ4PHcQGHSnTCkKcnoIQ0EIACBahOovDTpMZxkJOsg2dEdJj+4O06K0x0npdErB/wwdepU8+ijj9qoixcv2jR79uzxk9hf0K1duzYQF7eDNCFNcWODeAhAAAIQqE+g8tIkUWmFNGkOkxY/hOP0GgL9gs4FzWEaPnx4YJ6TjvvyJclSGw4dOuROq7tGmpCmugOEgxCAAAQgEEug8tK0aNGi2kTwWEopHJDcjBgxwv4hYEmPHqlp37+zJEnSKwU0P2nFihV2WyLlB71aQHOSNKncnyPlp6m3jTQhTfXGB8cgAAEIQCCeQOWlSb+c050azS2SzPiL/+LJeITJj+zfvz+Qv/bDQeK0ZcsW+y6mF154IXzY7qvTGqWJPNEYgzQhTXFjg3gIQAACEKhPoPLStGrVKvuqAb1uILzoWNkC0oQ0lW1M0x4IQAACrSJQSWnSz/rDP+1vFfB2l4M0IU3tHoOUDwEIQKCoBCopTZpP5KTJ3y5qJzZTb6QJaWpmvJAWAhCAAAR+QaCS0nT//febr3zlK5YC0vSLwTCULd4IPhR6nAsBCEAAAkUgUElpeuqpp8zo0aPtL9gkTfWWInRiM3XkThN3mpoZL6SFAAQgAIFfEKikNOlFkv39/Wbz5s21VwD4v5rzt3+BqhxbSBPSVI6RTCsgAAEItJ5AJaXJx8zjOZ/G4Ld5PDd4dpwJAQhAAALFIFB5aSpGN6VXS+40cacpvdFEThCAAASqRQBpqlZ/83LLR5Cmig15mgsBCEAgNQJIU2ooi5ERd5qQpmKMVGoJAQhAIH8EkKb89UmmNUKakKZMBxiZQwACECgxAaSpxJ0b1TSkCWmKGhfEQQACEIBAYwKVlKY9e/aYpEtjhMVKgTQhTcUasdQWAhCAQH4IVFKapk2bZoYPH95wUbqyBaQJaSrbmKY9EIAABFpFoJLS1Cq4eSwHaUKa8jguqRMEIACBIhBAmorQSynWEWlCmlIcTmQFAQhAoFIEKilN+ttzSZeyjQakCWkq25imPRCAAARaRaCS0qS5SpMnT264MKcp+TDkz6gkZ0VKCEAAAhAoJoFKSlMxuyqdWnOniTtN6YwkcoEABCBQPQJIU8X6HGlCmio25GkuBCAAgdQIIE3GmI0bN5pRo0aZYcOG2UXbmvNUxoA0IU1lHNe0CQIQgEArCFRemiRMI0eONOvWrTP79u2zi7YVp2NlC0gT0lS2MU17IAABCLSKQOWlSRPCd+3aNYC34jo7OwfEFz0CaUKaij6GqT8EIACBdhGovDTpkdzZs2cH8D98+LB9VDfgQMEjkCakqeBDmOpDAAIQaBuBykvT9OnTIx/D6dGcjqUdJGi6i/XEE0/YR4Hvv//+gCL0mLC3t9ccP358wDEXkSSNS+uvkSakyR8PbEMAAhCAQHIClZcmyYfuNs2YMcOsX7/eLtpWnI6lGfbu3Wuuv/56M378eDN16lT7t+/CZXR1ddlJ6VOmTLF1CM+rkkjNnDnTjBs3zj4+VD137tyZuJpIE9KUeLCQEAIQgAAEAgQqL02ioUdx8+bNs3eWdHdp0aJFde/yBAgm3HnrrbfM2LFjrZS5U06ePBkQM0nbpEmTzNGjR20SyZCkqL+/351iJFVaXNA5EqhTp065qLprpAlpqjtAOAgBCEAAArEEKi9NkiRJU9ZhxYoVRneP4sLFixet/EiC/DBx4sSAaEmitm3b5icxo0ePDqQJHAztIE1IU2hIsAsBCEAAAgkJVF6aJCH15g4l5Ngw2Y033mgeeOABKzef/OQnzdKlSwN3mVQH1SX8uO7uu++2aVXAiRMnbJojR44EytPjxCVLlgTi4naQJqQpbmwQDwEIQAAC9QlUXppWrVpl39FUH9PQj1522WVWmDSfSXeKJEOSJE34Vujr64uUpjVr1phZs2YF0pw/fz5QIUmT5jlFhdWrV5urrrqqtuiulB7npR3423NpEyU/CEAAAhDIG4HKS5MmWusN4P5EcDchPPwYbCidp/lMkiQ3X0l53XrrrXbR9htvvBEpTQ8++KBZsGCBLVqdpTzeeeedQFVUd3+ek3/w4MGDxl96enrMNddc4ydJZRtpSgUjmUAAAhCAQI4JVF6adKdJ85qiFh1LK9x00012krefn6TsiiuusFHvvvtupDTNnj3brFy50qY5c+aMTXPgwAE/Gyt8SevK4zkezwUGDzsQgAAEIJCYQOWlKTGpISZcvny5+fCHP2z89zItXrw48NZxTRQPTwTX4zz3CE9V0KO1rVu31mqjX835j/lqB2I2kCakKWZoEA0BCEAAAg0IIE0NAKV1+NChQ1ZuNm/ebE6fPm12795t39e0YcOGWhGSIwmQXjWgNBIo7fsT1TVHSa8l2L9/v43XY7l6v8qrZf7zDaQJaQqPCfYhAAEIQCAZAaQpGadUUkmGfvu3f9tcfvnlVob+5E/+ZEC+EqUJEyaYESNGmJtvvtm8+uqrA9J0d3cH0vjzpAYkDkUgTUhTaEiwCwEIQAACCQkgTQlBlSUZ0oQ0lWUs0w4IQAACrSaANLWaeJvLQ5qQpjYPQYqHAAQgUFgCSFNhu25wFUeakKbBjRzOggAEIAABpKliYwBpQpoqNuRpLgQgAIHUCCBNqaEsRkZIE9JUjJFKLSEAAQjkjwDSlL8+ybRGSFO0NM3a+B2z5JmDTS2ZdhSZQwACEIBA7gggTbnrkmwrhDTFS1PHI9HHouJv//wr2XYUuUMAAhCAQO4IIE2565JsK4Q0RYuR7jRFyVFcHNKU7TgldwhAAAJ5JIA05bFXMqwT0oQ0ZTi8yBoCEIBAqQkgTaXu3oGNQ5qQpoGjghgIQAACEEhCAGlKQqlEaZAmpKlEw5mmQAACEGgpAaSppbjbXxjShDS1fxRSAwhAAALFJIA0FbPfBl1rpAlpGvTg4UQIQAACFSeANFVsACBNSFPFhjzNhQAEIJAaAaQpNZTFyAhpQpqKMVKpJQQgAIH8EUCa8tcnmdYIaUKaMh1gZA4BCECgxASQphJ3blTTkCakKWpcEAcBCEAAAo0JIE2NGZUqBdKENJVqQNMYCEAAAi0kgDS1EHYeikKakKY8jEPqAAEIQKCIBJCmIvbaEOqMNCFNQxg+nAoBCECg0gSQpop1P9KENFVsyNNcCEAAAqkRQJpSQ1mMjJAmpKkYI5VaQgACEMgfAaQpf32SaY2QJqQp0wFG5hCAAARKTABpKnHnRjUNaUpHmm7b8G1zw/94OfHS+dg3o7qDOAhAAAIQKBABpKlAnZVGVZGm9KSp45HovKLikaY0Ri95QAACEGgvAaSpDfwPHz5sZsyYYVatWjWg9J07d5q5c+eacePGmdWrV5uzZ88OSLN9+/ZAmgEJ6kQgTdGiM2vjd0yU7MTF6U5T3LGoeKSpzqDkEAQgAIGCEECa2tBRkydPNiNHjjTTp08PlL57924zbNgws379eqPtrq4u09nZad57771aOh1Tmk2bNpldu3aZSZMm2XS1BA02kCakqcEQ4TAEIAABCMQQQJpiwGQVvW7dOjNv3jwrTGFp0h2mhQsXBooeM2aM2bFjRy1OkrRhw4bafn9/v5UoSVaSgDQhTUnGCWkgAAEIQGAgAaRpIJPMYvRYTneY9MhNwuRL05kzZ6z87Nu3L1C+HuM99NBDNu7cuXMN0wROjthBmpCmiGFBFAQgAAEIJCCANCWAlFYSPZbbuHGjzS4sTeoIPXYLS9OyZctqj9+OHj1q05w8eTJQJYnVggULAnFup6enx/iLBEzzpdIOj+1+s6k5Pvf2HmgqfVdPX1Pp529+ran0zGlKe0SQHwQgAIHyEUCaWtSneizn31kKS1NfX1+kNHV3d5uZM2faWro0Fy5cCNRa0jRr1qxAnNvRZPI5c+bUlmnTpiFNEb96Q5rciGENAQhAAAJxBJCmODIpxh8/ftw+ltPahbA0vf3225HSdN9995nFixfb03S+7kYdO3bMZWPXkqalS5cG4uJ2eDzH47m4sUE8BCAAAQjUJ4A01eeTylE9cpPsxC0q5IMPPrDH9coBP0ydOtU8+uijNurixYs2zZ49e/wk9hd0a9euDcTF7SBNSFPc2CAeAhCAAATqE0Ca6vPJ7Gj4TpMKWr58uX3/kitUc5iGDx8emOekX9jptQMuSLIkY4cOHXJRdddIE9JUd4BwEAIQgAAEYgkgTbFosj0QJU2SJL1SQPOTVqxYYbclUn7QqwU0kfuuu+6yj+QkTL5E+WmjtpEmpClqXBAHAQhAAAKNCSBNjRllkmLbtm1GSzhInLZs2WLfxfTCCy+ED9t9dVqjNJEnGmOQJqQpbmwQDwEIQAAC9QkgTfX5lO4o0oQ0lW5Q0yAIQAACLSKANLUIdF6KQZqQpryMReoBAQhAoGgEkKai9dgQ64s0IU1DHEKcDgEIQKCyBJCminU90oQ0VWzI01wIQAACqRFAmlJDWYyMkCakqRgjlVpCAAIQyB8BpCl/fZJpjZCm9kjTbz/2zUz7lcwhAAEIQCB7AkhT9oxzVQLS1B5p6kSacvU5oDIQgAAEBkMAaRoMtQKfgzQhTQUevlQdAhCAQFsJIE1txd/6wpGm9kgTj+daP9YpEQIQgEDaBJCmtInmPD+kqT3SxOO5nH8wqB4EIACBBASQpgSQypQEaUKayjSeaQsEIACBVhJAmlpJOwdlIU1IUw6GIVWAAAQgUEgCSFMhu23wlUaakKbBjx7OhAAEIFBtAkhTxfofaUKaKjbkaS4EIACB1AggTamhLEZGSFN7pIlfzxXj80EtIQABCNQjgDTVo1PCY0hTe6SJX8+V8MNEkyAAgcoRQJoq1uVIE9JUsSFPcyEAAQikRgBpSg1lMTJCmpCmYoxUagkBCEAgfwSQpvz1SaY1QpqQpkwHGJlDAAIQKDEBpKnEnRvVNKSpPdI0mIngHY9E1zUu/r0PLkZ1OXEQgAAEIJASAaQpJZBFyQZpihaRWRu/Y+JkJCr+tg3fbir9YCaCR5VbLw5pKsqnkHpCAAJFJYA0FbXnBllvpAlpGuTQ4TQIQAAClSeANFVsCCBN5ZWmp771P80Xv/PDxMsP3v2Xio1+mgsBCEBgaASQpqHxK9zZSFN5pWnyn3+jqUeGSFPhPr5UGAIQaDMBpKmFHfD666+bzZs3m02bNplvfOMbsSXv27fP9Pb2muPHjw8pTdTJSFN7pKkVE8GRpqgRTxwEIACB9AggTemxrJvTjBkzzLBhw8ykSZPM+PHj7fb69esHnNPV1WVGjRplpkyZYtNs3LgxkEYiNXPmTDNu3DjT2dlp0+zcuTOQpt4O0tQeaWrFRHCkqd7I5xgEIACBoRNAmobOMFEODzzwgPn7v//7Wtonn3zSCs+LL75Yi5NESaqOHj1q4yRDEq3+/v5aGkmVFhd0jgTq1KlTLqruGmlCmtwv8Hg8V/ejwkEIQAACAwggTQOQtC5CQuTuNl28eNHKj9t3tZg4cWItjeJ0zrZt29xhux49enQgTeBgaAdpQpqQptCHgl0IQAACCQkgTQlBpZ1Md5gkQO5Okx67aV/zmfxw9913m6VLl9qoEydO2DRHjhzxkxg9+luyZEkgLm4HaUKakKa4TwfxEIAABOoTQJrq88ns6C233GKWLVtWy7+vry9SmtasWWNmzZpl07k058+fr52nDUmT5jlFhdWrV5urrrqqtuiulB7npR0e2/1mU7/curf3QFPpu3r6mko/f/NrTaUvw8stmdOU9qgmPwhAAAJBAkhTkEdL9jQnSXOX/HlIb7zxRqQ0Pfjgg2bBggW2Xuos3Y165513AvWUNPnznPyDBw8eNP7S09NjrrnmGj9JKttIU/QdLHdXh4ngqQwzMoEABCDQVgJIU4vxO2Fyk71d8e+++26kNM2ePdusXLnSJjtz5oxNc+DAAXeaXUuaVq1aFYiL2+HxXLTccKcpbsQQDwEIQAACjgDS5Ei0YB0nTK5ovWYgPBFcryfQO5tc0KO1rVu3ul17t0p3n/w0tYMRG0gT0uTufvHruYgPCFEQgAAE6hBAmurASfOQEyZN9A4vrhyJjwRIrxo4ffq0FSjt+y+51BwlPdrbv3+/jVe+kq2kAWlCmgYrTff09Jk5m15NvHz9jeBj5KRjlHQQgAAE8koAaWpRz0h+opbwnSXtT5gwwYwYMcLcfPPN5tVXXx1Qw+7u7kCa8KO+ASd4EUgT0jQUaXLnJlkjTd4Hj00IQKAUBJCmUnRj8kYgTUiTE55mH8/pTpM7N8kaaUr+uSQlBCBQDAJIUzH6KbVaIk3tkabJf/5Nc+CHZ5pakoiJnybrVw4gTal9DMkIAhAoKAGkqaAdN9hqI03tkyZfcLLYRpoG+6ngPAhAAALJCCBNyTiVJhXShDQ5YePxXGk+1jQEAhBoEQGkqUWg81IM0tQeaer88282NR/IiU0za+405eVTRj0gAIGyEkCaytqzMe1CmtojTZrT1IwADSYt0hQz6ImGAAQgkBIBpCklkEXJBmlCmpyQ8XiuKJ9a6gkBCOSFANKUl55oUT2QJqQJaWrRh41iIACB0hFAmkrXpfUbhDQhTUhT/c8IRyEAAQjEEUCa4siUNB5pao80MRG8pB8omgUBCFSKANJUqe42BmlqjzQxEbxiHzSaCwEIlJIA0lTKbo1vFNKENPF4Lv7zwREIQAAC9QggTfXolPAY0oQ0IU35+GB/7+Q/m+7nv9fUko+aUwsIVJcA0lSxvkeakCakKR8fekmT64sk65sf/7t8VJxaQKDCBJCminU+0tQeaWIieMU+aAmaizQlgEQSCOSMANKUsw7JujpIU3ukiYngjUf2Bz/7V9Ps0jjX/KZAmvLbN9QMAnEEkKY4MiWNR5qQJvcoKG9vBNf8Hle3JOu/+vYPCv0pRZoK3X1UvqIEkKaKdTzShDQ5IUGa2vvhR5ray5/SITAYAkjTYKgV+BykCWlCmvLxAUaa8tEP1AICzRBAmpqhVYK0SFN7pKmKE8H/83PfNRv3/lPipev/7ePx3CPR41Oiy6/nSvAFTBMKTwBpKnwXNtcApCn6ojRr43eaumDftuHbTaWv4kTw+V94rSlGSFP02HR3BpGm5r7rSA2BLAggTVlQzXGeSFP0hSlraarinSakqf4XAY/n6vPhKATySABpymOvZFgnpKk90sSdpmju7i6K1txpqs+IO00ZfjGSNQQSEkCaEoIqSzKkKfrClPWdJqQpmjvS1JiLY4Q0leVbmHYUmQDSVOTeG0TdkaboixTS1Hgw3dPT3ERtHs/VZ8rjufp8OAqBPBJAmvLYKw3qtH37djN37lwzbtw4s3r16gapg4eRJqTJ3bnI+j1NSFPwsxfea1aaPv5/f8t8+/vvJl5ePvpO4rQu3/P///8KV5N9CEDAI4A0eTCKsLl+/XozbNgws2nTJrNr1y4zadIk09XVlbjqSBPS5KRp497/aZ7r/1HiZfZTzf3CMGtpWvalg4nr7tqZ+IPSgoSDkSbXd0nWH/vvX2/q14vKE2lqQcdTRKEJIE0F6z5J0oYNG2q17u/vtxK1e/fuWly9DaQJaXIX3GZfm5A3abq390BTUvDY7jfrfTRafgxpajlyCoTAkAkgTUNG2LoMzp07ZwVp3759gUJnzJhhHnrooUBc3A7ShDRVVZo+09tn/uvO/6+pJe5zlEY80pQGRfKAQGsJIE2t5T2k0o4ePWql6eTJk4F8JE0LFiwIxLmdnp4e4y/33HOPGTlyZCDOPz7Y7bkr/ocZPes/J17+j4VrEqdVvjf9n82l77zvT5vK/4au/9pU+uvueqip9B+d+1+aSt8MS5e22TKabcOkzzTHqNk+aLaPmx1DU5occ7cv+2+pf078z9efPb6xqTHxH+etbir9VZ/8k6bSaxxt+sL/k2mb/fazHfxuhkcyHhMXfM5c++n/knjp/r8+n+qY/rM/+zNz+eWXu0tsy9bDWlZSiQrq6+uz0nThwoVAqyRNs2bNCsS5HU0UnzNnTm3R471Ro0bV9v1jg92+/fbbzeWXDzefmDk78XLz781MnFb5tjp955Sp5vLh8W1qtj633T6rqfY2w9KlbVTGxN+8wYwZ+2u1ejTbhjymv+baDnNtx3+stcmxiFo3W3/lMdjPRJLzouqouP8wZqz52A3/aUCbbvlEc5+ZGb+f/PPo6nLnJz+VSZuHDx9upk2blkneSVinneZTn/qUUZvuuOOO0rRp+vTptk1ps0o7PzdWk6x/q/Mmc+XIkan20e/+7u+aj3zkI+4S27I10jQI1MePH7fSdOzYscDZkqalS5cG4lq58+Mf/9j80i/9UiuLzLysvXv3mokTJ2ZeTisL2Lx5s/n0pz/dyiIzL2vVqlXmT//0TzMvp5UF1A0hBgAAESRJREFU3HnnneaLX/xiK4vMvKxf//VfN6+88krm5bSqgH/913+138XvvPNOq4rMvBw9ybjyyiszL6eVBbzwwgtm6tSprSwys7KQpkGgvXjxov2g7tmzJ3C27h6tXbs2ENfKHaSplbQHXxbSNHh2rTwTaWol7cGVhTQNjlurz0KaWk08h+Xp/Ux67YALO3futCJ16NAhF9XyNdLUcuSDKhBpGhS2lp+ENLUcedMFIk1NI2vLCUhTW7Dnq1C9WkAvtbzrrrvsIzm9s8mXqHbUFmlqB/Xmy0SammfWjjOQpnZQb65MpKk5Xu1KjTS1i3zOytVPHrds2WLf16RB0e7wb//2b0ZLmQJtKkZv0k/0UzsIuHFXpu8916Z28MyqzDK1iTlNWY0S8oUABCAAAQhAoFQEkKZSdSeNgQAEIAABCEAgKwJIU1ZkyRcCEIAABCAAgVIRQJpK1Z00BgIQgAAEIACBrAggTVmRbXG+Bw4cMIsXL7avPdBaL0jLa9AfOtbLHfXrQ73RVb9AfOuttwLV1YtCo5ZAImPsLxanTJli9I6spH/3L5xHGvv65WSS+m7fvt3odRVqu94SHxWUl9qkpV2/yDx8+HBke9TGbdu21aod1eaoOqutarPaLgatCGfPnjXPPPOM5Ryut19+ks+OXimSh37Ti3Wfeuop+1lXm9RP4fDcc88ZvSlbL0icMGFC5EtHk/ZbK8ZikjalWd9WjEX1i9jNnz/ffo7CfVTv8+X3aVS7w3/zVOPcb5PGatrhJz/5idm4caN9m7x+KX7jjTfaP4kSVY5fl6jPepL66vqV1+sZ0hTV6wWL00s2R4wYYT+k+kB1dXVZiTh16lQuW6IP3fLly40+3LoAf+Yzn7H19UXPfVnoi8df/AYpXnn19vaaHTt22DzU9nYE1UV19uuqbT+4+m7atMns2rUrsr733XeflQu1R4tEI5yPn2dW27qQrVu3LrDMmzfP8tYxF9yrNuq1241HtVltd+e4PLJa67PQ0dFhXL3VnnBI8tnR60VUZ9Vd25Kn8DhzfeuPRfVl2kFtmDx5slm0aJGtU/gCqvIcX7VNF7rf+73fG1DfqLEaHmeqv/4zonGodrl8s2qT/nyIyohqU7P1jfvsqN/Uf+rHLMei2qLFjb0ws6jPl9Lr75H6wTH3P18+H/39087OTtu/apMbh9pOM6jM8ePHmyeffNL2j8ahpDw8Zhp91t97772G9dV1S+NOeatcrbWfl+sZ0pTmyGpTXsuWLRvwZzmuu+66AQO6TdUbUKz+1+IH92LQp59+uhbtpKkWEdrQB0hCobtWLrz22mv2S/drX/uai2rZWh9s1TkunD9/3v5xSb++/f39tr7uC05fgPqS1HucXNAXu9qZhy8MXQD0xe6HuIucS6O2KY3a6oIY6EuwlUF1iJKmJJ8dXWQXLlxYq+7rr78e6Dc3FtVXLrixGP6j3u54Gus49u+//34g++7ublvf73//+7V4JyG1iNCGG4tqhwtZj0VdIOPalEZ92zEWXZscw3prCb7+HJEf4ni4NGvWrDFjxoxxu3atsaoxm2ZQO8JBf2dVIuVCEr6S2Ub1dZLk8tU6T9czpMnvmYJu33TTTQMESQOvKH/rR3eY9OUQJU36sP7gBz8Y0DPPP/985Bes8lHbWx2cNMXV1315hr98dDFwjxVffPFFc+mll5rTp08Hqq82qb3tDLqlrnr4j+ZUH8WpTVqiBEFtC8ukY3Hu3LmWNUn1jJKmRp+dM2fO1NroV/b3f//3a/3mxqJ/3LFRn2YVHPtG+ff09Ng2REmT+iLq86V6K/9wUFxWY9GNC63DwUnTUOrbjrHo2hRuT3jfpfMfzSmN62P9p0N3acJBXOI+Xxq7WYY/+IM/CEhTEr710rj66roV/g7P0/Vs4KciS8rknQmBsWPH2lvofuYaZO34C9B+HZJu63/7V199tTly5EjtFH0RXHvttfZLQ18ct9xyi/nqV79aO/5Xf/VX9lj4Qt2u/5GId7i+/gXTfSmG66t2LliwwLZLd5iuv/76Whvdhtqv9rYz6DGPHh1InvyguvmLHun4F2e1Lfyl7u5i+I9j/Tyz2FYdo6Sp0WdHL7DVueo/PyxZsqTWb24s+se1rbHo3zUMHx/qflS9ovK844477OfHP6Y+8fst/LhR9Vb9w0HnZDUW3WckzFp1SKO+7RiLrk1hjuF9PW7VY9dw8PtI27qz5Adx0fenH1yZGrtZBX3GdcfIr08Svhpnjeqr61b4P2d5up4hTVmNqhbme8kll5ivf/3rgRI1yHTXIu9BF2N9GYT/96o5FC7or7KrPaNGjapNfH388cfteRcuXHDJ7Pp3fud3BvwvJZAgox3VzwV9aYXr677IwvXVl97s2bPtqWrTtGnTXDa1tfjoWDuDHh3oiz0c3KNFyZSkds6cOQFJUtvURj+IgdrU19fnR2e6rfKipKnRZ0eTxHWu+s8PeuTl95vShIPGYpb9FlWvcB00DpXOF3il8S9Kepx966232h8euPNVb9U/HJRXVm1yn5Ew67Tq246x6NoU5ujv67Oj7za/T9xxx0JzoHRc/DXR2gV9tjQW/eDK1NjNKri5YX7+SfjqkV6j+uq69fLLL/tZ2+/TvFzPBn7SA1VlpwgE9AsZ3YL3g74sP/axj/lRudt2c5l84YirpHte/qUvfckm0bNxfYEcO3YscMpVV13VFmkKVMIYo3klqp+rr/siC9dXX3p/9Ed/ZE9/9tlnzUc/+tFwVjYftbddQY8M1Jbwo4Oo+qxdu9am/eEPf2gPq21haRID5XfixImoLDKJU3lR0tTos/OjH/3I1tVdvFzlPvvZz9b6zY1Fd8ytNRbVp1kFtSlcL78sJ0xJfk3lPl+u31Rv1T8cVGZWY9F9Ruq1ydVnMPVtx1h0bXL1jlo7GQrfxY1Kq8db/t1ofbbCPzhwZWrsZhHcZO/wneIkfJcuXdqwvrpu+f9pVhvydD1DmrIYVS3OUx+chx9+OFDqihUr7M+OA5E52mlGmFRt/U9LX9i6M6XwrW99y+7rF0IuaI6M0iSRMHdOlmtNknT1dV9kfn1VtvuViLZdGv/LSJOM1Sa1t10h7tFBVH3cBeAf/uEf7GH1RXjStxioTa0MKi9Kmhp9di5evGgfc4fFw5934caiP1nfjUX1aVZBbYrLvxlhUv3c58v1mxuL/ryzrMeiKzOuTT7HwdS3HWPRtcmve3jb/RoyHB+1r8+X7kq5oPEbnruqsapHXBq7aYc4YVI5SfgqTaP66nUZun75IU/Xs9Z+c/kU2E6NgH4GqtueLuiiq7kael9LHkMSYQrfhXjiiSfshfab3/xmrUl6pKAPoQsu3/C8IXc8y3W4vk4e/PrqCy5cX91y/qd/+qda1dRvfhptq53tCu7RgZM/vx66IPzsZz+rRWkC+/3332/H3k9/+lMbr7apjb50qE368m1liJOmJJ8d/e/e/zWS/jh3uN+ixqL6MssQJ03iq2M+c78e4X7TMb0TR/V1/aY47ft5ZD0WnWBo7Ye06uvGov/H1bMei65Nfnv8bSd/4TYrTfgRle4c6T9in/zkJ2tZqC3Dhw8PvJdPY1VjNu1QT5hUluMbHjP+Z12P5BvVV9ctjT2xUdBa+3m5niFNaY+sNuSnwaoL8syZM2u27w/UNlSpbpH6Qld9w4u+wFxQGrVBcXrJo/Z9MVQ6fThdOv2SQ9t+Hi6vVqxdPVS+7qxE1VePFPT6AL3MU7epo+rr5FDtcW3yv4Ra0Ra/DCd/UY8O9EWv9uiCu3LlSvuFrjZJRPwgJopXm9V2nSMWrQh6RYLGmcrXBUfb/s+6k3x29J8Q9anqrv/x6pFeeJxFjUX1ZdpBj0jd50Zt0jt6tK9+UnAXaZfGX7sLs+s3/TRd7RCXqH7zx6I+i0qTxVhU3VVPtSWuTRozzdQ37rOj9qr/1I9ZjsVwm1w/hB9xayxqvmBUUF313ae6Ov7i49+J1nl6553Gp9LpO1Lb4TRR+TcTp7ooX9cOf+3no3SqY73PepL6qr3ueqa19vMSkKa89MQQ66HJtZproEGb1ZyDIVaxdrrqGLe4RFu2bAmkiWvTN77xDfuSOt0JCU92dXm1Yp20vvpFi9LqXUX+/3j9Oro26b042m5n0Asp3QU5XA9dfFVHvy/99zH56dVWtVltz/JXPX6Z2tYjufASbk+Sz44uQnnoN/2vO9we7ftC5PeHv+2n0RxI/1hcv7ViLKpejdqUZn1bMRbj2uTunrhxqu8tfcaiguL1mfH7Keq1AzrXb1PawqT8/TqEt8N19+sS91n308TVN6/XM6Qp3OPsQwACEIAABCAAgQgCSFMEFKIgAAEIQAACEIBAmADSFCbCPgQgAAEIQAACEIgggDRFQCEKAhCAAAQgAAEIhAkgTWEi7EMAAhCAAAQgAIEIAkhTBBSiIAABCEAAAhCAQJgA0hQmwj4EIAABCEAAAhCIIIA0RUAhCgIQqC4BvWPHvdOouhRoOQQgEEUAaYqiQhwEIFBZAnrbsV7glzTobemvvPJK0uSkgwAECkwAaSpw51F1CEAgfQLujcdJc9ZdKf3pCAIEIFB+AnzSy9/HtBAClSDgP1bTH23Wvv6IcFTQ3wDT3aGoO0R+PjpX+7qbpD+BofT+3w9T/FNPPWWlyeXn/6kMvxw/PqpOxEEAAvkngDTlv4+oIQQgkICA5EZ3fHSnSGv3h2j19/H8MG/ePDNy5EijP+arP5aqx3H+HyQOP55TXosWLbJpdY7OdX/0V1I0efJkW56OaXF/284vx53n14NtCECgeASQpuL1GTWGAAQiCDhp+tznPleTIAnM8OHD7V0inaI/kCrpcXd9JEsSJydBShMlTZIeF1w5Lg+3745rLZmSbPky5m/7admGAASKQwBpKk5fUVMIQKAOAScvf/d3f1dLdf78efOhD33I7Ny508ZJfnxBUqREatSoUbVzoqRJeftBQuTiXLn+cSdNenSHLPlk2IZAsQkgTcXuP2oPAQj8nECUvOiQL0G6y7Ru3boAs/B5fnol9AXJnejHhc93aXSXS3exlLazs9M888wz7hBrCECgoASQpoJ2HNWGAASCBJy87N+/P3BgxIgR5rnnnrNxutMUlibJjcTGhbSkyeWnx3gq0xctd4w1BCBQLAK/+KYoVr2pLQQgAIEAASdNTzzxRC1eAiVZef31122cHs1pgrgfJFKatO1Cs9LkHsU1egynCeN6FEiAAASKSwBpKm7fUXMIQMAj4KSpq6vL3HDDDWbx4sVWmBYuXFhLJbHRIzM9LtOv7CRI/sRwJWxWmnSOy1Pn6s6V6uLKUDnz588fUE6tUmxAAAKFIYA0FaarqCgEIFCPgJMmpdmxY4eVIjcB3D9P4qQ7PnpkpnX4DlH45ZZK534p5/IJxykPla94rbUvedK+lqhyXF6sIQCB4hBAmorTV9QUAhCoQ8CXpjrJOAQBCEBg0ASQpkGj40QIQCBPBJCmPPUGdYFAOQkgTeXsV1oFgcoRkDRpIUAAAhDIigDSlBVZ8oUABCAAAQhAoFQEkKZSdSeNgQAEIAABCEAgKwJIU1ZkyRcCEIAABCAAgVIRQJpK1Z00BgIQgAAEIACBrAggTVmRJV8IQAACEIAABEpFAGkqVXfSGAhAAAIQgAAEsiKANGVFlnwhAAEIQAACECgVAaSpVN1JYyAAAQhAAAIQyIoA0pQVWfKFAAQgAAEIQKBUBJCmUnUnjYEABCAAAQhAICsCSFNWZMkXAhCAAAQgAIFSEUCaStWdNAYCEIAABCAAgawIIE1ZkSVfCEAAAhCAAARKRQBpKlV30hgIQAACEIAABLIigDRlRZZ8IQABCEAAAhAoFYH/DUDATWM3AhXsAAAAAElFTkSuQmCC;" vertex="1" parent="1">
          <mxGeometry x="261.46" y="590" width="258.59" height="180" as="geometry" />
        </mxCell>
        <mxCell id="9fY33cOpb0TvVjGmPDQJ-9" value="" style="shape=image;verticalLabelPosition=bottom;labelBackgroundColor=#ffffff;verticalAlign=top;aspect=fixed;imageAspect=0;image=data:image/png,iVBORw0KGgoAAAANSUhEUgAAAkEAAAF8CAYAAADICG9DAAAgAElEQVR4Ae2dD7AV1Z3nqZoyWAjCsjIhaJQIS1J5URgc40BwIUZBTBBillHXcXiDDMMQDY9RELOzkVi1MRIruKjDMMoQlZgMM0pmWPBvCmvyVNaQUBrin2jC+AfXdaSIJoFYqezZ+p547j3dt++9fe/rd2+f7s+punT36dOnT3/O777+cPrce4cYEgQgAAEIQAACECghgSElvGYuGQIQgAAEIAABCBgkiCCAAAQgAAEIQKCUBJCgUnY7Fw0BCEAAAhCAABJEDEAAAhCAAAQgUEoCSFApu52LhgAEIAABCEAACSIGIAABCEAAAhAoJQEkqJTdzkV3isDhw4fNY489Zl8DOefatWvNrFmzIlVoW/mk1gkk8axXC5zrkSEfAuETQILC70OuIMcE5s+fb4YMGWJfA2mmbtqqx0/aRoJ8IunXk3jWO7odzitWrDB6kSAAgXwTiP5VzXdbaR0EgiKwe/duM3LkSHPKKafUCEyrF5J001b9epFaJ5DEs14t7XCeOXOm0YsEAQjkmwASlO/+oXWBEtBjsPHjx5v169fbm2F8FKfZZe3Zs8eO8jjJSbpp17s5u0dwt9xyi/nGN75hDhw4kHg6Ha8yelynY9Im1fed73zHtk/179u3L/FQ1a/9arvOkZRcGdWX1E7luWN1HrV3y5YtkarcddSrI1L4vQ2fp86hOm+//Xbz9NNP1xRX/Xr5yTFWPY6h2692Tpkyxb7co1B3Da6MO94d24j/rl27bBw5zvH2uLq01LU45u5cynP9VY+Rq1PLt99+2zz44INm06ZNkT559dVXzbZt28zmzZvr9rk7J0sIhEIACQqlp2hnUAT0KGTy5Mm2zRoRaEWCVq5cacv39PSYSZMmmc9+9rNWJOJ1JD2m2b59uxk1apQ9XiNQGolSOf8m7m7SylcbtdQxOrZZktSpvOrVdSXVr5ux5tG4cu4c/siIX8aNlKm8pMBP119/va3HLVXG1eNfh6tD1xGXJL8+t+4kSDd11enaO3r0aLNz505XzC61X+Vd0nkdY7XFXZ/aqKQ8HRN/uePVF+54124Js5Mcv5zaNWLECNu+MWPGWD7x9qg+5S1atKhSr7aV3D7XX65N6kc/uXJaKu5OPPHESvud/OhYx0ntj3Py62MdAqEQQIJC6SnaGQwBd0NxNzV3U0xzAf7N2ZVX3ty5c+1NyeVpqZuSf3PW//iVp3lIkgyX1A7tU1K+bmBqkyujpbuBujx3bHyp+uNzXVS3q1/lVbduuuLgkur1JUvni5dRnur3j3PyI9GIt00CoXz/3K4OP8+1wV86zqeeeqq5//777S6dV8LR29vrF63hrOvz+amw2ub6W9uuTKQij79/PTpO2xIhP51xxhlWSPbv31/JXrhwYU17XLyJp2uDYyUOLs9V4pj6nF0dEqCvfOUrtqiOPffcc82MGTPMhz70IfPtb3/b5qvs8ccfX8PJ1c8SAiERQIJC6i3amnsCuvnoZuZGBdRg3RB1c2+Wjh49asaNG2dvfH7ZN9980xxzzDE1dahOX4IkP7oRuhugX4dbdyM58TLaVn1+u90xbqmbqcr4MuP2uaUr02g0RjfXpHOpDWq/rsMld8OO38jddSTJjupodB2q20mQz0/5GumQCPgpzlnyFRdBv7zW60lQvXaLl87juGmURdurVq2KVH3PPffYfL/dTmDcsZED6mzEGbk6LrroosgRV1xxhT3f17/+9Uj+nDlzzIc//OFIHhsQCJFA87/MIV4VbYZAlwjo5qibpC8ZaSXohRdesDcc/W8/ns455xy7z8+P35w1mqBzNUoSDI0E6SYafym/2c1d59B5NVqSNN/ISUuSnLh2uRuulvGk9ms+jUuuPrftlmqnu/74dUhCfZFyx/hLHaPjX3vtNT+7Ikd+pjuPy3PnljDp8V1c0FSungS5kSpXl7/UeZy8/d3f/Z1tX5zR888/X7lud2wjniojaV2wYIEVPLVZL/W1z8jV8Q//8A+uWrt0nN54443E/EgmGxAIkAASFGCn0eR8EnCjILpx+BNidVPXDU55STdMdzWaDK1yV199tcuqLK+88kq7r5KR8DhMx/o3Nr+sW9fNWaMA7iYdXzaTIMmdbtROhnRO3WCd9NWTFnd+LXVT1nHxG7z2qf3a51K9+tRulYu33203uw53c3fnccukfJ1H+X7SqItrq/bH5/S4dvjHaF35vuT5+1WPk6CbbrrJXp9GAf30zjvv2Hy/PU5gkni6kSfJl9ZVRq+4MNerI4mH2lMv328r6xAIgUD1r00IraWNEMgxAXcj0c2s3ks3wXpJoxI67rzzzqsp8tGPftTu83eorH8zrHfj9Y/RzVCjAFkkiY+7yWqp5B7rNJI9xynpsVr8GupJUL38tNdV7yaelB/nHD+HrkNi6ctN/DrcMW4UyW27pVjqPE6CNP9G2/rEmp+++93v2ny/3x1PLeOp3qM71e3HYr06knjoHPXy4+dnGwJ5J4AE5b2HaF/wBHSz0U0nTdJk2A9+8IORopoYq+PjdWjbvxk6MWgkIE5SkgQkctIWNnSjdSNQbr6PZKte0g1f0uCOceWSjnXX5Mq4pRtNcvLl8tMu693Ek/LjnJPOIbnRNbmk7STZdPy19JO7Ttd3P/zhD82wYcPMxRdf7Bcz69ata0mC1HYnVq4ixw4JckRYlplAur/MZSbEtUNggARakSB9N4u76bpHapojlObmLLmQkOjmq/k67ngd626uuhS1R2WU78ro+2M0zydpNMFdvvapjMq641y7/Ju6u6H39fVVyqk9/s3YlVF9qkt1aiRFIqHrcMmVc9v+0j2OSrqOZnLk2u3Xp/WkfNcfrqz4+Xy1Lp6+1DnZEQPHyx2vR1F+H2lekc7hS4nfFrVJ7FXuU5/6VCU+XH31RnG03/W1a69rq+LEP1+9OpJ4+G1zbWAJgVAJIEGh9hztDoaAbja6yaVN+jI6zTHRMfreGt2Ikm5G8Zuz6pdAuMm32q+XbrrxicqSC90IXRktdROPl/PbrH3uWtxxkhZfblx5SYhff1K5eBnV7cua6mokQdofr8Ndh27qjVIST5VPyledyndJnHQ9joGWYu7Lm8qq7bomV9YdH+8j7a83h+mb3/ymncisOLjsssuMmzyvidMu1RMY7Y/3mfpEI0Fql14u1asjiYeOqZfv6mMJgVAIpP/LHMoV0U4IFIRAsxt5QS6Ty2iBgHs0yhcVtgCNohBoQAAJagCHXRCAAAS6RUCjLQcPHqycXgKk7zDSvDESBCCQDQEkKBuO1AIBCEAgUwLukZP/2E3f8cMIYaaYqazkBJCgkgcAlw8BCOSTgOYOaY6UpEevRvO18nkFtAoC+SeABOW/j2ghBCAAAQhAAAKDQCC3EqTfUXruuefMjh077CcRHn/88ZrLd/9DSlrGC+t/VBpejn/6JF6ObQhAAAIQgAAEykEgtxIksdF3abjfutFz8YkTJ5qHH3640jMq4z8vd+vK95PkR78Orbq0XLZsmb+bdQhAAAIQgAAESkgg1xL061//utIleh6u706ZPn16Jc9JUCUjYUUjSZKjvXv32r3uExb65tW0SV94dsMNNxj9uCAvGBADxAAxQAwQA+ljQPfQL37xi2lvuR0tl1sJSqKgb84dN25cZVcaCZo3b56ZO3du5RitLF682I4KRTIbbAwdOtR87GMfM9OmTeMFA2KAGCAGiAFioIUYOO6445CgBo6Rate2bdvMSSedZGSULjkJ0mMuic4111xjnn/+ebfbLidNmhT5tldlbtiwwUyYMCFSrtGGvmW1v7+/URH2QQACEIAABCCQQEDfbaWfj8ljyv1IkARHj7O0jM/10bZGh/QzA/q1ZZU54YQTIvOGjj322BoJ2rVrl9HoTlLSxGnNRfJf+iFDJCiJFnkQgAAEIACBxgSQoMZ8Uu2VuHzmM58xn//85+uWdwIzY8aMSpmxY8fWSNC3vvUtM2bMmEoZf+VHP/qRib/0CA4J8imxDgEIQAACEEhHAAlKx6lpKfcNqu+8807dspdeeqn9BJgrcNZZZ9VI0I033mimTp3qijRd8jisKSIKQAACEIAABBIJIEGJWFrPdBIUn/fj16RPkE2ZMqWStWbNmppJ0L29vWb58uWVMs1WkKBmhNgPAQhAAAIQSCaABCVzaZgr4bnzzjvNSy+9ZA4dOmS2bt1amRvkDvyTP/kT+2WKb7zxhv0I/NKlS20ZHevSM888Y/O2bNliszTBWnOMtEybkKC0pCgHAQhAAAIQiBJAgqI8Um1JZPSLye4LELW85JJLIp/+0kRoffmh9mlC9Cc+8QmT9P0/Ep7TTz/dltNSE6lbSUhQK7QoCwEIQAACEKgSQIKqLIJcQ4KC7DYaDQEIQAACOSCABOWgEwbSBCRoIPQ4FgIQgAAEykwACQq895GgwDuQ5kMAAhCAQNcIIEFdQ5/NiZGgbDhSCwQgAAEIlI8AEhR4nyNBgXcgzYcABCAAga4RQIK6hj6bEyNB2XCkFghAAAIQKB8BJCjwPi+aBH1zz8um3dfBw0cC702aDwEIQAACnSSABHWS9iCcq2gSdOp1O80p1/6vtl5I0CAEGFVCAAIQKDABJCjwzi2aBE1AggKPSJoPAQhAIBwCSFA4fZXY0qJJECNBid1MJgQgAAEIDAIBJGgQoHaySiSo+uiMx2GdjDzOBQEIQCB8AkhQ4H1YNAnicVjgAUnzIQABCAREAAkKqLOSmlo0CeJxWFIvkwcBCEAAAoNBAAkaDKodrBMJ4nFYB8ONU0EAAhAoFAEkKPDuRIKQoMBDmOZDAAIQ6BoBJKhr6LM5MRKEBGUTSdQCAQhAoHwEkKDA+7xoEsTE6MADkuZDAAIQCIgAEhRQZyU1tWgSxMTopF4mDwIQgAAEBoMAEjQYVDtYJxLE47AOhhunggAEIFAoAkhQ4N1ZNAnicVjgAUnzIQABCAREAAkKqLOSmlo0CeJxWFIvkwcBCEAAAoNBAAkaDKodrLNoEsRIUAeDh1NBAAIQKDkBJCjwACiaBDESFHhA0nwIQAACARFAggLqrKSmIkFMjE6KC/IgAAEIQKA5ASSoOaNclyiaBPE4LNfhRuMgAAEIFIoAEhR4dxZNgngcFnhA0nwIQAACARFAggLqrKSmIkE8DkuKC/IgAAEIQKA5ASSoOaNcl0CCkKBcByiNgwAEIJBjAkhQjjsnTdOQICQoTZxQBgIQgAAEagkgQbVMgsopmgQxMTqo8KOxEIAABIImgAQF3X3GFE2CmBgdeEDSfAhAAAIBEUCCAuqspKYiQTwOS4oL8iAAAQhAoDkBJKg5o5oSu3fvNhs3bjRr1661r/vvv9+89NJLNeWUsWPHDnPzzTebu+66y+zfvz+xzLZt22w9Wh49ejSxTL3MokkQj8Pq9TT5EIAABCCQNQEkqA2ikqBRo0aZefPmWXmZNWuWGTJkiLn11lsjtfX29pqenh5z9dVX27Jaj4vQwoULzdy5c209Wk6fPt0899xzkXoabRRNgngc1qi32QcBCEAAAlkSQIIyojlt2jQrPK66Xbt2mWHDhkWkR5KzdOlSV8Rs2rTJjB492hw8eLCSd95555nVq1dXtputFE2CGAlq1uPshwAEIACBrAggQRmR1KiPYLp03XXXmT/4gz9wm3a5ZcsWO2L0i1/8wm7PmDHD6Dg/9fX1GQlV2lQ0CWIkKG3PUw4CEIAABAZKAAkaAEE9FtNLIzd6HKY5Qi5Jbi655BK3aZcqq3Ju/tCpp54aOUaFNNdo/PjxkePcxgsvvGDir3Hjxpn+/n5XJPglEhR8F3IBEIAABIIhgAQNoKs0F0iv973vfTUyM3v2bLNmzZpI7U6CHn/8cZs/dOjQmuMeeOABW1/kwPc29u3bZx+x6TGb/yqSBPE4LKnnyYMABCAAgcEggARlQPW1114zl156qbn44osrtWnC85IlSyrbWnES5CZHjx07tkaCtm7dasaMGRM5rtEGj8P4iHyj+GAfBCAAAQjUJ4AE1WfT0h433+enP/2pPW7lypV2lMivxEnQoUOHbPZZZ51VI0F6pDZ16lT/sIbrSBAS1DBA2AkBCEAAAnUJIEF10dTf8fbbb9fs1Bwgzfd55ZVX7L7t27fXjOjok2H6WL1LEh59bN5PGkHSR+rTJiQICUobK5SDAAQgAIEoASQoyiPVluRFQnP33Xcbyc5VV11lBWjx4sWV4w8fPmw/LSapcV+GKEnSlye6pI/GS4JUn0aJtBwxYoTRvKC0CQlCgtLGCuUgAAEIQCBKAAmK8ki1JVlZsGCBmTRpkp2grI/C33TTTTXH/vznPzfLly+3I0KaQC0ZiifND5IoSZC0fOqpp+JFGm4XTYKYGN2wu9kJAQhAAAIZEkCCMoTZjaqKJkF8RL4bUcQ5IQABCJSTABIUeL8jQTwOCzyEaT4EIACBrhFAgrqGPpsTF02CeByWTVxQCwQgAAEINCeABDVnlOsSRZMgHoflOtxoHAQgAIFCEUCCAu9OJIjHYYGHMM2HAAQg0DUCSFDX0GdzYiQICcomkqgFAhCAQPkIIEGB9zkShAQFHsI0HwIQgEDXCCBBXUOfzYmLJkFMjM4mLqgFAhCAAASaE0CCmjPKdYmiSRATo3MdbjQOAhCAQKEIIEGBdycSxOOwwEOY5kMAAhDoGgEkqGvoszkxEoQEZRNJ1AIBCECgfASQoMD7HAlCggIPYZoPAQhAoGsEkKCuoc/mxEWTICZGZxMX1AIBCEAAAs0JIEHNGeW6RNEkiInRuQ43GgcBCECgUASQoMC7EwnicVjgIUzzIQABCHSNABLUNfTZnLhoEsTjsGziglogAAEIQKA5ASSoOaNclyiaBPE4LNfhRuMgAAEIFIoAEhR4dyJBPA4LPIRpPgQgAIGuEUCCuoY+mxMjQUhQNpFELRCAAATKRwAJCrzPkSAkKPAQpvkQgAAEukYACeoa+mxOXDQJYmJ0NnFBLRCAAAQg0JwAEtScUa5LFE2CmBid63CjcRCAAAQKRQAJCrw7kSAehwUewjQfAhCAQNcIIEFdQ5/NiZEgJCibSKIWCEAAAuUjgAQF3udIEBIUeAjTfAhAAAJdI4AEdQ19NicumgQxMTqbuKAWCEAAAhBoTgAJas4o1yWKJkFMjM51uNE4CEAAAoUigAQF3p1IEI/DAg9hmg8BCECgawSQoK6hz+bESBASlE0kUQsEIACB8hFAggLvcyQICQo8hGk+BCAAga4RQIK6hj6bEyNBSFA2kUQtEIAABMpHAAkKvM+RICQo8BCm+RCAAAS6RgAJagP9vn37TF9fn5k1a1bltXv37khN2vb3u/V4uf3795sVK1bYslo++eSTkXqabSBBSFCzGGE/BCAAAQgkE0CCkrk0zF27dq2Vlo0bNxpJjbZHjBhhNmzYUDlO+UOGDLH7tN+9fAl64403TE9Pj93n6hk+fLjZtWtXpZ5mK0WTIL4nqFmPsx8CEIAABLIigAS1QfLRRx+tOUojPb29vZV8J0GVjISV9evXm4kTJ0b2XHjhhXaUKZLZYKNoEsT3BDXobHZBAAIQgECmBJCgjHAuX748UYIkQ3v27DGHDh2qOdOMGTPsKJC/QyNG06ZN87MariNBPA5rGCDshAAEIACBugSQoLpo0u/41a9+ZR9rbd68uXKQGwnSIzH3Wr16dWW/Vk4++eQaCdqyZYs56aSTIuXchuYi3XPPPZHXCSecYPr7+12R4JeMBAXfhVwABCAAgWAIIEEZdJUehc2bNy9SkyRo7969Nu/FF1+084UkQ5pQ7ZKbM+S2tXTy5Oe5dUnQzJkzI69hw4YhQdf+bjTo4OEjDhVLCEAAAhCAQFMCSFBTRI0L/OEf/qEd6ZHoNEunnXaamTRpUqXY+PHja0aC7rjjjrojQZUDvRUeh/E4zAsHViEAAQhAoAUCSFALsOJFNQLUyvydpUuX2k+RuXrOPvtso7lEflq1alVLdSJBSJAfP6xDAAIQgEB6AkhQelaRkp/+9KfNOeecE8nzN37wgx/4m3Zdj780GdqlTZs2mTFjxpgDBw64LDNnzhxz4403VrabrSBBSFCzGGE/BCAAAQgkE0CCkrk0zNUnuOJzc9yXIboDtT179mxz1VVX2U+N6dGXJjE//PDDrohdLly40JZTnSqv41544YVImUYbSBAS1Cg+2AcBCEAAAvUJIEH12dTd4774MGnpDvrWt75lR3QuvfRSs2DBAqNPhj3//PNud2S5bt06Kz9aHj16NLKv2QYShAQ1ixH2QwACEIBAMgEkKJlLMLlIEBIUTLDSUAhAAAI5I4AE5axDWm0OEoQEtRozlIcABCAAgd8RQIICj4S8SdBbv3jX7PnZobZffFli4AFJ8yEAAQgERAAJCqizkpqaRwk65b0vL2xniQQl9TJ5EIAABCAwGASQoMGg2sE6kSAeh3Uw3DgVBCAAgUIRQIIC704kCAkKPIRpPgQgAIGuEUCCuoY+mxMjQUhQNpFELRCAAATKRwAJCrzPkSAkKPAQpvkQgAAEukYACeoa+mxOjAQhQdlEErVAAAIQKB+B0knQQw89VKheRoKQoEIFNBcDAQhAoIMESidB+qmL008/3Xzta18zL7/8cgdRD86pkCAkaHAii1ohAAEIFJ9A6SRIXXr77bcb/aCpftX98ssvN//yL/8SbE8jQUhQsMFLwyEAAQh0mUApJcgx37lzp7ngggusDGl06IYbbjA//vGP3e4glkgQEhREoNJICEAAAjkkUGoJcv2xd+9es3TpUitDGh3SI7NQEhKEBIUSq7QTAhCAQN4IlFqCNm3aZD72sY9Z+VmxYoV55ZVXzH333WdOPPFEK0V566yk9iBBSFBSXJAHAQhAAALNCZROgvbs2WMuvfRSKz6Sna9+9avmN7/5TYTUli1b7P5IZk43kCAkKKehSbMgAAEI5J5A6SRIj7o+/vGPm7vuuqtu5+zevTuYR2JIEBJUN5DZAQEIQAACDQmUToIeffTRhkBC24kEIUGhxSzthQAEIJAXAqWTII3y6HFXPB04cCAxP14ub9tIEBKUt5ikPRCAAARCIVA6CZo/f75Zv359Tf8cPnw4mHlAfuORICTIjwfWIQABCEAgPYHSSdDMmTONRoOSkj4eX29fUvk85CFBSFAe4pA2QAACEAiRQOkkaNGiRYwEDWKkvvWLd80p11bFpNX1U6/b2fbxBw8fGcQro2oIQAACECgagdJJ0Pbt283IkSMjIz6aDzRr1iyjUaLQEiNBVeFCgkKLXtoLAQhAoLsESidBwq0vRtSjL/8lAZIMhZaQICQotJilvRCAAATyQqCUEiT4Eh6NCmmSdGjzgPzgQYKQID8eWIcABCAAgfQESitB6RHluyQShATlO0JpHQQgAIH8EiilBGkUSN8cnfTKb1cltwwJQoKSI4NcCEAAAhBoRqB0EqRHYJoLNHnyZDsRWnOB/FczYHnbjwQhQXmLSdoDAQhAIBQCpZMgCc/1118fSv80bScShAQ1DRIKQAACEIBAIoFSSpBGg4qSkCAkqCixzHVAAAIQ6DSB0kmQfjdswYIFneY8aOdDgpCgQQsuKoYABCBQcAKlkyB9HH78+PFmypQpTIwehODmG6MHASpVQgACEIDAoBAonQRpJMifCB1fT0N53759pq+vz/T09NhJ1tOmTTNf+9rXag6VcM2YMcOMGDHCTJo0yUpXvNC2bduMOkGTtbXcuHFjvEjDbUaCGAlqGCDshAAEIACBugRKJ0F1SbSwQx+t/6u/+ivz9NNP26P+8R//0YwbN85s2LChUos+hi+xUdlDhw4ZyY62N2/eXCnzzDPP2Lx7773X5rkyW7durZRptjIYEvTs62+bv+//WVuvW7/7k7Z/+0u/M8ZvhzXrcfZDAAIQgEBWBEotQRqpaeenMn7961/X8J83b55ZuHBhJV8jThIjPy1btsyce+65law1a9bYx3KVDGNsHb29vX5Ww/XBkqBWf/jUlZ9yw0NIUMMeYycEIAABCOSFQCklSB+R16iMXu7j8pIWzRNqN11++eXmyiuvrBy+cuVK+6OslQxj7M9z6JxvvfWWzT7zzDNrHpFp5Gjq1Kn+YQ3XkSAehzUMEHZCAAIQgEBdAqWTIMmOxEGjQBIgJ0GHDx+2UlSXVIMdzz77rD324YcfrpTSqNCSJUsq21rROSVBegym9P73v79GgvQobMyYMZHj3IbmIunHX/2X5hv19/e7Ipks9TjMjey0umQkKJMuoBIIQAACEOgAgdJJ0Pz5841ESMmXIG1LUCQqraSjR4/a45YuXRo5bM6cOWb16tWRPCdBTz75pM0/9thjayRo165dZujQoZHj3IYkaNWqVZHX8ccfjwRd+7vRoIOHjzhULCEAAQhAAAJNCZROgvRpMPdliUkSpBGhtOn11183w4cPNxKeeLriiivMRRddFMl2EvTyyy/b/I985CM1EqTJ1RMmTIgc12iDx2E8DmsUH+yDAAQgAIH6BEonQevXr6/M1fElSPkSirRJj8CSHme54zW3Rx+h99Ptt99uJ0u/++67Njs+mVqZy5cvr7TPP7beOhKEBNWLDfIhAAEIQKAxgdJJkEZ69OOp7gsTZ82aZSdEt/IoTB+N12iNHk3VS3p0pTr1sXel/fv3WymSHLm0Y8eOyCM4V6aV7wpCgpAgF08sIQABCECgNQKlkyCHRyM/mh+kx2OaaNzKR+UlMhKcpJerX8u/+Zu/sWU0SVofl/c/Qu/KqS5NhHZLfaqslYQEIUGtxAtlIQABCECgSqC0ElRF0Pqa5vbUe8Vre/HFF+2XKGrCc720Z88eK0FatpqQICSo1ZihPAQgAAEI/I5A6SRIIz6PPfZY3VdogYEEZSNBP/m/vzADeYUWN7QXAhCAAASM/bmq73znO7lEMWQwWqXJ0EmPsVzeYJxzMOtEgrKRoPm39bf93UgP7v8/g3l8UnMAACAASURBVNnF1A0BCEAAAoNEoHQjQUkcNYlZc4Pc9wcllclrHhKEBOU1NmkXBCAAgbwTQILe6yF9amzkyJF576+a9iFBSFBNUJABAQhAAAKpCCBBHiY9EtOoUEgJCUKCQopX2goBCEAgTwSQIGOs+PT19TES9F5klvG3w5gTlKc/S7QFAhCAQGcIlE6C6k2M1oiK+zmNzqDP5iyMBDESlE0kUQsEIACB8hEonQTpI/Lx7/hp5ffC8hYiSBASlLeYpD0QgAAEQiFQOgkKpWPSthMJQoLSxgrlIAABCEAgSqB0EqSfp0j7iqLK5xYShATlMzJpFQQgAIH8EyilBOlHU/VJsGOOOcZMnDjRrisv/sp/9xn7y/f9/f2ZNpWJ0VWxOuXa5ut8WWKm4UdlEIAABDpGoHQSpF91lwDddddd5ujRoxa0ftdr3rx5doSoY+QzOhEjQVVJOXj4SNtU+XRY2+g4EAIQgECwBEonQZdffrnRJ8Ti6fXXXzfDhg0zR460fyON19mJbSQICepEnHEOCEAAAkUkUDoJuuCCCxJHfA4ePGhHiJ566qmg+hkJQoKCClgaCwEIQCBHBEonQZoUrcdhGzdutF+SeOjQIXPvvffax2E9PT3ml7/8ZY66p3lTkCAkqHmUUAICEIAABJIIlE6CBGHx4sVWhCRD7nXeeeeZ/fv3JzHKdR4ShATlOkBpHAQgAIEcEyilBKk/HnnkEbN582Zz8803mx07duS4ixo3DQlCghpHCHshAAEIQKAegdJKUD0goeUjQUhQaDFLeyEAAQjkhUApJUi/ETZq1Cj7KMx9Ukx5K1asyEu/pG4HEoQEpQ4WCkIAAhCAQIRA6SRIsjNy5EizZcsWs2jRosrH5fX7YZofFFpCgpCg0GKW9kIAAhDIC4HSSdD8+fPN+vXrLX+NArmRIGVIgvbt25eXvknVDiQICUoVKBSCAAQgAIEaAqWToJkzZ9pfkReJJAkK7RflkSAkqOZdTQYEIAABCKQiUDoJ0rwfPQZT8iXIPSZLRS1HhZAgJChH4UhTIAABCARFoHQSpJEezQlasGBB5QdT+/r67KMwzRMKLSFBSFBoMUt7IQABCOSFQOkkSOAlQhoNmjx5shUi/xFZXjombTuQICQobaxQDgIQgAAEogRKJ0Ea7Qlt8nO0y6JbSBASFI0ItiAAAQhAIC2B0kmQRn00/6coCQlCgooSy1wHBCAAgU4TKJ0E6ePxmg9UlIQEIUFFiWWuAwIQgECnCZROgnbv3m2/LXrWrFlGvygff3W6AwZ6PiQICRpoDHE8BCAAgbISKJ0EaU6QHonVe4UWCEgQEhRazNJeCEAAAnkhUAoJ0uiPXkVMSBASVMS45pogAAEIdIJAKSTIPfISUK3nTYgOHjxo26RlqwkJ6r4E3bDjx2b7vtfafrXa55SHAAQgAIFsCJRCgjZt2mT+8i//0hLLSoL0G2Tjx4+3X7KoR2vxJNHSb5HFX3EBU3tGjBhhv7hRy2XLlsWrariNBHVfgubf1m9OubbajlbW737y3xr2LzshAAEIQGDwCJRCgvbu3WuGDRtmTjvttMq3RGtidNIrLWr9/Ib7JfpGEtSovkceecRKktqntH//ftPT02M2bNjQ6LDIPiSoKh8HDx+JsGllYyAiM5BjkaBWeomyEIAABLIlUAoJEjJ9QaJGhNyjsXrLVvHq98falaDFixdbEfPP+ad/+qctfYQfCUKC/PhhHQIQgAAE0hMojQQ5JFk9DnP1NZMgnW/u3LnmmmuuMYcOHXKH2aVGprTfTzfddJMdDfLzGq0jQUhQo/hgHwQgAAEI1CdQOgmqj6K9PY0kaMyYMaa3t9eO7Li5QXrk5ZJ+yDUuQffdd585/vjjXZHIUqNZ06ZNi7z0mK+/vz9SbqAbz77+dttzXKbc8FDbx2ouzanX7Wz7eB6HDbTnOR4CEIBAuQggQQPs73oSFK9W834kQhdccEFl16hRo1qWoG3bthn/JdFCgn43GoQEVUKLFQhAAAIQSEEACUoBqVGRtBKkOjQqJPFxacqUKTUSxOMwRoJcfLCEAAQgAIHBJYAEDZBvKxKkOUCTJk2qnFETozVfyE9LliwxCxcu9LMarjMniDlBDQOEnRCAAAQgUJcAElQXTbod9SRIn0Rz6cUXX7Qfe9fjsL6+Ppdt3Efk3XcHuY/I33nnnZUyzVaQICSoWYywHwIQgAAEkgmUQoJ27txp0r6SMdXm6mPxbrKzv3Ql9R1Efr7WV69e7XZXlpoYPXz4cPtReS1XrlxZ2ZdmBQlCgtLECWUgAAEIQKCWQCkkSKMvxx13XKpXLaL2c5577jn7cxj6VNfhw4frVvTaa6/Zclq2mpAgJKjVmKE8BCAAAQj8jkApJKjInY0EIUFFjm+uDQIQgMBgEkCCBpNuB+pGgpCgDoQZp4AABCBQSAKlkKBbbrnFpH2F1stIEBIUWszSXghAAAJ5IVAKCdKcoMmTJ6d65aVj0rYDCUKC0sYK5SAAAQhAIEqgFBIUveRibSFBSFCxIpqrgQAEINA5AkhQ51gPypmQICRoUAKLSiEAAQiUgEApJWj79u1m/Pjxke/x0ff1NPoYe15jAQlCgvIam7QLAhCAQN4JlE6C9O3M+uLCRYsW2e/m0faWLVuMZEK/7RVaQoKQoNBilvZCAAIQyAuB0kmQ5GfFihU1/A8cOGDlqGZHzjOQICQo5yFK8yAAAQjklkDpJEg/d6HHYUlp5MiRRt/uHFJCgpCgkOKVtkIAAhDIE4HSSZBGgRYsWFDTBxIjPSYLLSFBSFBoMUt7IQABCOSFQOkkSI+9NOKjidGaDK2X5gJJgNavX5+XfkndDiQICUodLBSEAAQgAIEIgdJJkK5enwLT3CA9GtNr/vz5dpJ0hEwgG0gQEhRIqNJMCEAAArkjUDoJ0uOwenOCctc7KRqEBCFBKcKEIhCAAAQgkECgdBKkkR99JL4oCQlCgooSy1wHBCAAgU4TKJ0ESYCSJkZ3GnxW50OCkKCsYol6IAABCJSNQOkkSF+OqEnR/sRoN0Fay9ASEoQEhRaztBcCEIBAXgiUToI0EuQmRCct89IxaduBBCFBaWOFchCAAAQgECVQOgmKXn74W0gQEhR+FHMFEIAABLpDAAnqDvfMzooEIUGZBRMVQQACECgZASQo8A5HgpCgwEOY5kMAAhDoGgEkqGvoszkxEoQEZRNJ1AIBCECgfASQoMD7HAlCggIPYZoPAQhAoGsEkKCuoc/mxEgQEpRNJFELBCAAgfIRQIIC73MkCAkKPIRpPgQgAIGuEUCCuoY+mxMjQUhQNpFELRCAAATKRwAJCrzPkSAkKPAQpvkQgAAEukYACeoa+mxOjAQhQdlEErVAAAIQKB8BJCjwPkeCkKDAQ5jmQwACEOgaASSoa+izOTEShARlE0nUAgEIQKB8BJCgwPscCUKCAg9hmg8BCECgawSQoAGgP3DggHnsscfMvn376taiMps2bTK7d++uW0bHr127tmE99Q5GgpCgerFBPgQgAAEINCaABDXmU3fvyJEjzZAhQ+xr5syZieXWr19v9y9dutSMHz/eLFy4sKac5GfcuHFWgrRctmxZTZlGGUgQEtQoPtgHAQhAAAL1CSBB9dk03LN9+3ajUZ7rr7/eJEnQnj17rABt27bN1rN//37T09NjZcdVvGPHDltm7969kTLr1q1zRZoukSAkqGmQUAACEIAABBIJIEGJWNJn1pMgjfB8+MMfjlTkRn3effddmz9v3jwzd+7cSJnFixebWbNmRfIabSBBSFCj+GAfBCAAAQjUJ4AE1WeTak89CbriiivMRRddFKlD84L0CE0jSEqTJk2KjAwpb8OGDWbChAmR4xptIEFIUKP4YB8EIAABCNQngATVZ5NqTz0JmjNnjlm9enWkDidBTzzxhM0/9thjayRo165dZujQoZHj3IYmUP/e7/1e5DVs2DDT39/vimSyfPb1t80p11blopX1KTc81PaxOs+p1+1s+/iDh4+0ff3zb+tv+7wDOfbuJ/+t7TZzIAQgAAEIDIwAEjQwfnXnBGkS9JIlSyK1OwnS/CClsWPH1kjQ1q1bzZgxYyLHuQ2NIMVfJ554IhL0nrAhQS5SWEIAAhCAQBoCSFAaSg3K1BsJWrlyZc3cHidBhw4dsjWeddZZNRKkeUNTp05tcMboLh6HVUeskKBobLAFAQhAAAKNCSBBjfk03VtPgvSpMI3S+GnVqlXm3HPPrWStWbPGSIT8dNlll5nly5f7WQ3XkSAkqGGAsBMCEIAABOoSQILqomm8Q/Nz9EWJvb29ZsqUKXZd2y69+uqrdhK0RnbefPNNIynSpOjNmze7IuaZZ56xeVu2bLF5roz7WH2lYIMVJAgJahAe7IIABCAAgQYEkKAGcBrtWrFihf1+IH1HkP/yj/ne975npk+fboYPH24/8SUhiicJz+mnn25lSEtfkuJlk7aRICQoKS7IgwAEIACB5gSQoOaMcl0CCUKCch2gNA4CEIBAjgkgQTnunDRNQ4KQoDRxQhkIQAACEKglgATVMgkqBwlCgoIKWBoLAQhAIEcEkKAcdUY7TUGCkKB24oZjIAABCEDAGCQo8ChAgpCgwEOY5kMAAhDoGgEkqGvoszkxEoQEZRNJ1AIBCECgfASQoMD7HAlCggIPYZoPAQhAoGsEkKCuoc/mxEgQEpRNJFELBCAAgfIRQIIC73MkCAkKPIRpPgQgAIGuEUCCuoY+mxMjQUhQNpFELRCAAATKRwAJCrzPkSAkKPAQpvkQgAAEukYACeoa+mxOjAQhQdlEErVAAAIQKB8BJCjwPkeCkKDAQ5jmQwACEOgaASSoa+izOTEShARlE0nUAgEIQKB8BJCgwPscCUKCAg9hmg8BCECgawSQoK6hz+bESBASlE0kUQsEIACB8hFAggLvcyQICQo8hGk+BCAAga4RQIK6hj6bEyNBSFA2kUQtEIAABMpHAAkKvM+RICQo8BCm+RCAAAS6RgAJ6hr6bE6MBCFB2UQStUAAAhAoHwEkKPA+R4KQoMBDmOZDAAIQ6BoBJKhr6LM5MRKEBGUTSdQCAQhAoHwEkKDA+xwJQoICD2GaDwEIQKBrBJCgrqHP5sRIEBKUTSRRCwQgAIHyEUCCAu9zJAgJCjyEaT4EIACBrhFAgrqGPpsTI0FIUDaRRC0QgAAEykcACQq8z5EgJCjwEKb5EIAABLpGAAnqGvpsTowEIUHZRBK1QAACECgfASQo8D5HgpCgwEOY5kMAAhDoGgEkqGvoszkxEoQEZRNJ1AIBCECgfASQoMD7HAlCggIPYZoPAQhAoGsEkKCuoc/mxEgQEpRNJFELBCAAgfIRQIIGqc93795t1q5dW/NSfjxt3LjRzJo1y2h59OjR+O6G20gQEtQwQNgJAQhAAAJ1CSBBddEMbIdkZ8iQIVZuJDjuFZeghQsXmrlz51pZ0nL69OnmueeeS31yJAgJSh0sFIQABCAAgQgBJCiCI7sNJ0GNaty0aZMZPXq0OXjwYKXYeeedZ1avXl3ZbraCBCFBzWKE/RCAAAQgkEwACUrmMuDcNBI0Y8YM09vbGzlXX1+fmTZtWiSv0QYSVF4J+s6+g2Ygr0ZxxT4IQAACZSCABA1SLzsJ0iOx4cOH28dc69ati5zt5JNPto/B/Mw77rjDnHTSSX5WZX3fvn3mBz/4QeT1gQ98wPT391fKZLHy7Otvm1OurcpFK+tTbnio7WN1nlOv29n28QcPH2n78uff1t/2eQdy7N1P/lvbbb71uy+23ebV//R02+flQAhAAAJFIYAEDVJPSoK2bNlifvaznxnJi0Z4JESaLO1SfFv5Tp5cGX+pen7/938/8ho2bBgS9J6wIUHpxRUJ8t9ZrEMAAmUlgAR1qOc172f8+PFGwF3Sti9Fypc41RsJcsf5Sx6HVW/8SFCVRbPROyTIfxexDgEIlJUAEtTBnpfwaPTHpbPPPrtGglSGOUHpb+b+zR4JSs8NCXLvQpYQgECZCSBBHex9CdAnPvGJyhnXr19venp6Ktta0Ufm46NDkQKxDUaCqjd+JKjKwpfDpHUkKPZGYhMCECglASRokLpd3wskmbnvvvuMZGfKlCl2FGjr1q2VM77xxhtWglROc4G0HDFihHnwwQcrZZqtIEHVGz8SVGWRJD5+HhLU7J3FfghAoAwEkKBB6uWrr77anH/++fZLEhcsWGC/+0eiE0/79+83y5Yts+W0fOqpp+JFGm4jQdUbPxJUZeELT9I6EtTwbcVOCECgJASQoMA7Ggmq3viRoCqLJPHx85CgwN/4NB8CEMiEABKUCcbuVYIEVW/8SFCVhS88SetIUPfes5wZAhDIDwEkKD990VZLkKDqjR8JqrJIEh8/Dwlq6+3GQRCAQMEIIEGBdygSVL3xI0FVFr7wJK0jQYG/8Wk+BCCQCQEkKBOM3asECare+JGgKosk8fHz/vhvnzD/9INX2351L+I5MwQgAIHsCCBB2bHsSk1IUPXGjwRVWfjCk7T+X/72ibZ/d2zR3//vrsQ6J4UABCCQNQEkKGuiHa4PCare+JGgKosk8fHzkKAOv1E5HQQgkEsCSFAuuyV9o5Cg6o0fCaqy8IUnaR0JSv8eoyQEIFBcAkhQ4H2LBFVv/EhQlUWS+Ph5SFDgb3yaDwEIZEIACcoEY/cqQYKqN34kqMrCF56kdSSoe+9ZzgwBCOSHABKUn75oqyVIUPXGjwRVWSSJj5+HBLX1duMgCECgYASQoMA7FAmq3viRoCoLX3iS1pGgwN/4NB8CEMiEABKUCcbuVYIEVW/8SFCVRZL4+HlIUPfes5wZAhDIDwEkKD990VZLkKDqjR8JqrLwhSdpHQlq6+3GQRCAQMEIIEGBdygSVL3xI0FVFkni4+chQYG/8Wk+BCCQCQEkKBOM3asECare+JGgKgtfeJLWkaDuvWc5MwQgkB8CSFB++qKtliBB1Rs/ElRlkSQ+fh4S1NbbjYMgAIGCEUCCAu9QJKh640eCqix84UlaR4ICf+PTfAhAIBMCSFAmGLtXCRJUvfEjQVUWSeLj5yFB3XvPcmYIQCA/BJCg/PRFWy1Bgqo3fiSoysIXnqR1JKittxsHQQACBSOABAXeoUhQ9caPBFVZJImPn4cEde6NP/+2fjPpv+1q6/XQ/jc611DOBIESEkCCAu90JKh640eCqix84UlaR4I698aXBCX1QZo8JKhz/cSZykkACQq835Gg6o0fCaqyaHaDRYI698ZHgjrHmjNBoFUCSFCrxHJWHgmq3viRoCqLIkrQW7941/yPnc+2/frNb/9fV9693ZKggbD62kPPd4UVJ4VApwkgQZ0mnvH5kKDqjR8JqrIoqgQ1u65G+8smQX+9/UdtP4ZDgjL+Q011uSWABOW2a9I1DAmq3viRoCqLRjKgfSE+DtNIULPrarQfCUofH0hQur+/lAqfABIUeB8iQdU/7EhQlUUjGUCCOvum79bjMEaCOtvPnC1MAkhQmP1WaTUSVL3xI0FVFkhQLQtGgmqZ1IsTRoIqf2JZKTgBJCjwDkaCqn/YkaAqi3o3N5fP47DOvfEZCeoca84EgVYJIEGtEstZeSSoeuNHgqosnOzUWyJBnXsjI0GdY82ZINAqASSoVWI5K48EVW/8SFCVRT35cfkDkaB5t37PXPGN77f9avctxMTo1sgxJ6g1XpQuJwEkKPB+R4KqN34kqMrCyU695UAlqF69zfLPv+Vf237HIUGtoUOCWuNF6XISQIK63O/79+83vb29ZsiQIXb55JNPttQiJKh640eCqiyayQgS1NLbbECFeRw2IHwcXDACG777E3PqdTvbeq3+p6czp4EEZY40fYUHDx40PT09Zu3atWb37t12OXz4cLNz587UlSBB1Rs/ElRlgQTVstj9/JvmX3/S3uv1nx9N/Z6MFyybBLXLWMfdvvvFtvtIx5PyT0AS1OzvU739SFD++7elFkp+Jk6cGDnmwgsvNEuWLInkNdpAgqo3OySoyqLeHxGXX8aRIP3v011/q0skqNFfoei+bz/1StucNd+s1b5x5ecO4FFr9ArYGkwCSFB6ukPSFw2z5JlnnmlHf/zWS4ymTp3qZzVcR4KqN34kqMrC3RjqLZGg9KzEEAlq+GcosrNrEvQ/259vFrkANgaVABKUHm/hJej9739/jQRt3brVjBkzJpHSvn37zMaNGyOv4447zlxzzTWRvHiZVrevv2m9GT3n8229PjjvC20d5853wvntnVfHf/XrG9rmMPmSa9pu90CO7V39P9pu88V9N7Td5qn/dXXbx55+cfusev746rav9+Zbbmu7zYqPgcTWTetvbbvdA4mPL3xpXdvnvWDZf2+b1+e+sLbt8y5Z85W2z9ut2Gr1byTlo/ehVnhc3PfltuNj9tK/bjsu67Xx5JNPNl/84hcT77ndziy8BA0dOrRGgh544AHzvve9L5G9JOgzn/lM5KU6pk+fHsmLl2l1+z+M/o/mox87zZwz+/yWX2d/ak7Lx/jn+eR5rZ/THX/unLltc3B1tLOc/snZDa/549M+YYYNO65umVb7x5Vvp63umGZtduWSlgM5VvW59re6nH3+BRWGHxh3ojl1wn+qbCe1M54XYmwNhFf8+htt/+dPnmtjdOY551WYtto/rnyj8zTb163Ycm3Pcjlp0iSjG2yWdRahrmYx0Gi//o7OnDkzU6YajECCEpVj8DMnTJhQI0Gy1fHjxw/+yRuc4VOf+pT5xje+0aAEu1oh8PTTT5vRo0e3cghlmxD4sz/7M/PlL3+5SSl2pyVw+PBh+wnVd955J+0hlGtCQFMbWpnf2aQ6dhtjRo4cafSJ6rKkwo8EnX322Wb58uWR/ly1apWZNm1aJK/TG0hQtsSRoGx5qjYkKFumSFC2PFUbEpQ9UyQoe6ZdrXHTpk12/s+BAwcq7ZgzZ4658cYbK9vdWEGCsqWOBGXLU7UhQdkyRYKy5anakKDsmSJB2TPteo0LFy40s2fPtm8YLWfNmmVeeOGFrrYLCcoWPxKULU/VhgRlyxQJypanakOCsmeKBGXPNBc16hNhesNoefRo+1/KltXF/Pa3vzV6kbIhAM9sOPq1wNSnMfB1x5P3/cBZuhocU7fNcuAEysa08HOCBh4S1AABCEAAAhCAQBEJIEFF7FWuCQIQgAAEIACBpgSQoKaIKAABCEAAAhCAQBEJIEFF7FWuCQIQgAAEIACBpgSQoKaIsi/Q19dnxo0bZ+bNm2fuvvvu7E9QkBofeeQRs3jxYnPSSScZfePoZz/7WfPSSy/VXN22bdssSzEVW30KJ57EWbxdmfj+Mm5ff/319pOS+pb0eNKHCM444wz70npS8uNYfVDmdNddd5m5c+faL0PUp0/jzPTlc729vXa/lklfRpcmjsvAWO9x8TvrrLPMCSecYP78z//c7Ny5s+bS08RomjI1FQeeoa+DueWWW2y8KRaT3t+6xDR/E9Pw8/8OhHg/Q4I6HPD6uH5PT4/Zvn272bBhg/2jqEAj1RLQG1g3DN0c7rjjDnPBBRdYdv4NZMeOHRWGWhffKVOmmNdee61SofgOGTLE8lYZyZDKlTnt3r3b6IeBxUXrfrrkkkssZ32SUt+zpTLxGBU/cRRPF8daL2O6/PLLLaOvf/3rluW6desivA4ePGh5iqFYa6m/Acp3SewcZ627OD506JArUprlZZddZr/R/6abbrLvfcXZqFGjIjdzMdR/aBSjeomn4tZPaeLYL1+Udf3nZvLkyWbRokWJ729dp/i5v4m6F4lf/G9inLF4xxnrmNDvZ0hQByPf/aHbs2dP5ax6oyuISLUEnnvuuUjmm2++ad+4mzdvruTrD+SFF15Y2daK/ve4evXqSp74irNL4q8/AGW9aWukTD8boxuyOPgSJHlUXn9/v8NlJUd/AN1NOymOJavqi7Kl733ve5ZXo/8BO+nx2UycODEiSmKnm7+fFMe6wZct6cett2zZUrlsjWwoJm+//XabpzhUPEq+XVK8qoz7z8+uXbuaxrE7tsjL+PvbXWuzv4lJjMXfZ+z+Dvh/K/R3dtiwYebIkSPuVLlfIkEd7KKVK1faxw/+Kd2N6O233/azWU8gIAk67rjjjJOgt956y74pdZPxk0aQ9FIS16Q/BNqv/ihj0v8U58+fby89zuaf//mfLa84F5W77777bHZSHOtxhcqoT8qUrrvuOit/+qOvL+z0RykdhzPPPDMiPMpXzCpfycWxL6PKL2uMSgj9nzq68847I+9hxaFiLZ6Up/hVEt96ZVwcx48v4rYYxOMqzd/EJMb6+3vsscdWGOvvQJyxu5/Fz5lntrWRlOfWBt62z33uc5Wbs7sU9z/vpD+ergzL3xHQ6I7+l/HDH/7QZjzzzDP2TRj/37J+UNFJkLjqjer+h+hYar/6o2xJ8wP0jbBu3lT8j6T+t6dRinhSuVtvvdVmJ8Wx+9+6+qRMSaM3K1assKO5Gl0Tp/hjBc1n80c2xEc3aeUruTiO3zgUx/G6ysD2oYceMqeffrqVy6uuusqOWn7pS1+qXLriUJzjSXHrRovEt1kcx48v4nb8/a1rTPM3sR7jSZMmVRjr70CcsbufxWM5z2xrIynPrQ28beeff37l5uwuRd9erUB94oknXBbLBAJu6FV/3Fx68sknLbsHHnjAZdnlmjVrKpzFVXzj3xIuCVJ/lC1proDmALgU/yOp39T7oz/6I7e7slQ593t7SXGskRCVUZ+UKYmFHi1ozpqSZFC/TahJ5S7pf88PPvig27RLxbHylVwcx28cimPVVbb0+OOPm+nTp5vTTjvNzgkcMWKEue222yoYFIeKtXhS3LoYFd9mcRw/vojb8fe3rjHN38R6jPXD446xYj/O2N3P4rGcZ7a1kZTn1gbetr/4i7+o3JzdpWjeiwL11VdfdVksYwT27t1rGfkCpCIvO8wssAAAB3BJREFUv/yyzd+4cWPkCE3ecyNB4iq+8flF2q/+KFPSY7CZM2dGLjn+R/Kee+4xY8eOjZTRhsq5EbekOHb/u1SflCmJxfHHHx+5ZMWpeP30pz+1+R/5yEfsBHO/kMooX8nFcfzGoTi+4oor/MNKsa7RhqVLl1au1c3hc+9zxaH4xpPiVvGrJL7N4jh+fBG34+9vXWOav4n1GOuTuo6xYj/O2N3P4rGcZ7a1kZTn1gbeNr0x45Og3VyKwC9t0JqvN5PeyGIXT++++659pLBq1arILs21cBKkHTo+/hFb9UNSnZGKCrYhARKLpJeTI8fbn6OmSZI65tFHH7VEkuJYj3v0eEd9UqYkFlOnTo1c8r333mt5uce2n/70pyNzXFRYc16Ur+TiOP41A0lziSInKuCGi7/4pen97N7TikPFo5uor7LxeS7qF5VpFMfxcxRxWwyShET5jf4mJjF2/9Fx9SUxdvczVyYEpkhQB3tJv1yvIXD/j50CqYzP/dNg1xvpmGOOaSgrmpznPzLQG1WTp++///7KKcRXnF3SPvWD+qPsKemPpD6dE4/RGTNmVFC5OPYZ6+sLyjjR/Cc/+YmNpe9///sVPhq9+eAHP2h+9atf2bxvfvObRkz1qExJS20r3yWx8z9d5+K4bI/J//3f/93Ki/9+dSPB/ic+FY9+GcWrmLrk5qY0imNXtsjLpPe3rjf+N1Gc4n8T44zF22fs/g7EGTtZDYUrEtThnlIgKTD1h1Jf/qePepb1o9rN0OvN9MlPftL+D9D9T1BL/4+fbhYa1ZEI6X/XWveH0nUO8RVn8VaZCRMmROpo1o4i70/6I3nzzTfbGNX33+iPpcr4f+jEQ30gjuIpruKuvihjEouPfvSj5gtf+IJZsGCB/U4bN4nc8RDH2bNnW25aattPaeLYL1/kdfc3Ul8+qS/i0/d+KQb9pHhUnmLUfU+T4tZPaeLYL1+UdX34wf29FCPx07Y/Od//m6h7kcr5f1fFIg1j11ch38+ikVWUKMj5deh/0Po+BU2mLNunaVrpGr3B6r38enQDEUsx9Ucn/DLi3KyMX74s65on5EYo/GvWJ3T0PSx6aT0p+XFcVgFyXBwLxaubO+X2uaXyG+1PE8eurqIvdQP23/tJ15smRtOUSao75Dy9n/W+jr/ij6jS/E1Mw8/Ffqj3MyQo5Gin7RCAAAQgAAEItE0ACWobHQdCAAIQgAAEIBAyASQo5N6j7RCAAAQgAAEItE0ACWobHQdCAAIQgAAEIBAyASQo5N6j7RCAAAQgAAEItE0ACWobHQdCAAIQgAAEIBAyASQo5N6j7RCAAAQgAAEItE0ACWobHQdCAALdJKDvPYl/90k328O5IQCB8AggQeH1GS2GAATe+9ZqfRNuK0nfppv05ZCt1EFZCECgOASQoOL0JVcCgVIRcN8o3MpF64di9U26JAhAAAIigAQRBxCAQMcJuEdZv/zlL81TTz1Vd3RGozaPPfaYfR0+fDjSTleHy/RHebRPx/nHaL9+R6m3t7dSpzvWP4+OI0EAAuUggASVo5+5SgjkioD7IVz98KrW9QOOV111VaSN+sHHUaNGGY3eTJ482a77c4A0EuQ/DlO5FStW2LJaP+WUU8z48eMrIqR9I0eOtPnar5eSzqPzuzwdx2hRpCvYgEBhCSBBhe1aLgwC+SUgeZEAPfzww7aRkpvRo0fbH8FVhkZmJEDr16+vXIQkRnludCdJgiQ5GvFRUjkJjV+HRCcuOBIsv4w7tnJiViAAgcISQIIK27VcGATyS0ASNGfOnEgDL7vsMnPGGWfYPI3OSGj8JKnRiI0bDUqSoPnz5/uH2JGhRYsWVfKSJEjHqD1OniqFWYEABApPAAkqfBdzgRDIHwFJhyTGT5IbSY6SRmvc4yq/jPa7UZskCYqP8sTrSZIgyY/yVbcen2nOkBtt8s/NOgQgUDwCSFDx+pQrgkDuCUiC5s2bF2nnkiVL7CMyZUp0JCTx1GwkqB0JcueQ+Gzfvt3OKYqPKLkyLCEAgWIRQIKK1Z9cDQSCICAJGjt2bKStH/rQh8yVV15p8zQnyBceZbpHZNqnlNVIUHzUJz56ZE/GPxCAQCEJIEGF7FYuCgL5JuAeh0l0JDNannXWWeaVV16pNNxNhO7r6zN6qYx7FKZC7UiQBEeTq3V+vZQ090iPwFSfzhOfkF1pECsQgEDhCCBBhetSLggC+SfgJOjBBx8069ats6M8R44cqWm45glJXPRyE6JdIUmLXi5ppCheRtvK95PmAClPdSr550g6j38s6xCAQLEIIEHF6k+uBgJBEHASFERjaSQEIFBYAkhQYbuWC4NAfgkgQfntG1oGgTIRQILK1NtcKwRyQkCPoOKPrnLSNJoBAQiUiAASVKLO5lIhAAEIQAACEKgSQIKqLFiDAAQgAAEIQKBEBJCgEnU2lwoBCEAAAhCAQJUAElRlwRoEIAABCEAAAiUigASVqLO5VAhAAAIQgAAEqgSQoCoL1iAAAQhAAAIQKBEBJKhEnc2lQgACEIAABCBQJfD/AVqr2K2LGmX9AAAAAElFTkSuQmCC;" vertex="1" parent="1">
          <mxGeometry x="520.05" y="592.07" width="267.05" height="175.87" as="geometry" />
        </mxCell>
        <mxCell id="9fY33cOpb0TvVjGmPDQJ-10" value="" style="shape=image;verticalLabelPosition=bottom;labelBackgroundColor=#ffffff;verticalAlign=top;aspect=fixed;imageAspect=0;image=data:image/png,iVBORw0KGgoAAAANSUhEUgAAAiUAAAGDCAYAAAD0wGCFAAAgAElEQVR4Ae2df7BV5X2vz19tEkPgesswJSaHWxW1UCAi0agRrtcaoEEUygQ1CYxaVJIWKSI6melhmoaMQoJDxziOGrSxpnOmiA5IaXNnoENVrkWpyr1KkTmDypBBEY0Wr3Nz73vns9p3+56119p77bO+5+z17v28M+vstd/1vu9a6/m+e63nrJ89jgQBCEAAAhCAAAQqQKCnAsvAIkAAAhCAAAQgAAGHlNAJIAABCEAAAhCoBAGkpBJhYCEgAAEIQAACEEBK6AMQgAAEIAABCFSCAFJSiTCwEBCAAAQgAAEIICX0AQhAAAIQgAAEKkEAKalEGFgICEAAAhCAAASQEvoABCAAAQhAAAKVIICUVCIMLAQEIAABCEAAAkgJfQACEIAABCAAgUoQQEoqEQYWAgIQgAAEIAABpIQ+AIEGBO6++2531VVXuVmzZrm5c+e61atXux07djSo0XzSrl27XE9Pj9OnT2pfA6l1Alk881oZCueBgQG3e/fuvCbJhwAEDAkgJYYwaarzCEgetCNbvny5W7ZsmZs+fXoiFDfccMOQVzZrJzqUneWQF6DDKmbxzFvFoXDu6+tLYp7XJvkQgIAdAaTEjiUtdSCBN998s26tvJi88cYbddOKZLSyEy3SXreXGW6eSEm39zDWfyQJICUjSZt5dQSBtWvXJv85HzhwoOn6vPfee+722293c+bMcbfddlty6idrJ6o2NaTT/v37k3z/H77a0OmEMOm76qrM1Vdf7e69995wcsPxzZs3J3XC9jXPMJ08eTJpc+nSpck89PnII4+ERZwvo/lr0PIoL0x+OfWp+fp5+jIqr3q+Da1Hug1fNvwMeerUmhjpVFsWT+Wl81Xfr5uWSeNbt25NZqFpytMRM19Xn2EMwhhlsfHL+vzzz7tbbrklaU9tqP/4Nn0Zz0jz1SAWmr+PibiFy6r6WYx8uy+99JL78Y9/nLRx//33+9m4nTt3JvP2sapNYAQCbSaAlLQ5AMw+PgI6UjJp0qSmC3706NHa6R7tSFatWpXU27BhQ7KT007Hp/QOWvnaAWln2Nvb61asWOH0H/vUqVOTT19PbYwZM6ZWZsmSJW706NFu2rRpvkjupz8CoDoaz2pfO8kJEyYkbc6fPz8p4+fhG9ZOUfPTfDXNT1e9cOetZdX6qKzWyZdVO9rphuuh9fXrkbXT9fPWp2/Xc73xxhuTZda8dNotTGnOvu7MmTNrDLSeGnzbmqa2PCN9+vWSvPjlVr7qqaziHaZt27a5UaNGJfFXP7j22muT8bzl8TzVnjh5KRET5WlenpHm75fHz1PLIDEZN26cmzdvXk2s7rzzTtff358so05HKkZZnHw7fEJgpAkgJSNNnPlFR8D/16mN+Pnnn59s5F9++eWm66F62uBrJ+CT/jvWjkX52iH6lN45aSejnY3fOfpy+vQ7aX1qp6KdZpi0A1P72nE1Sl52GpXR/LW8fqfoy/pl0HftNDW/sIzGVU/TfAoFIKyv6ZItDWG+GKiNZuvh2/2d3/kdP6vkc9GiRW7s2LHu1KlTtfw0Z+3YxaFR0vy1fumkZVWMxD9c7o0bN9bFV2KgdQmPrv31X/91TUx8235dVDYtGioTzsd/94Ln29Cnlve3fuu3wiyni7aV//nPf35Q/vXXX1/HaVABvkBgBAnU/9JGcObMCgIxEJBcaGc2ceLEZKOuHUwRKfnyl79ct2PQ+qq+dg6NpMTvCLN2TJ6Z34GF7fhp2lGmZcVP85/amWm90js6P135Wk7tuBsllQnlw5f1suK/++X1p0aa5Wu62mi2Hr7dm266yTeZfN53333J8ocikCUlEotQqAY14lwiRVrHdPLzTa+PykkqvFC+/fbbtX4TtnH8+PEkX8vkk2+zGXPFRncEaVD9NCMtr04ZhknLqfzvfOc7YXbtiJxO9ZAg0G4C9b+0di8R84dAhQnowtfrrrvOnXXWWU2X8vTTT3f6bz2d/M5SOyCf0jvL9A7dlws/vbj4uuGnjqBoaJT86SHtqFRX8hVKkN9BZu10fbteXLKOZvjl8zt831643mrHL4dOWYTroHF/esHPL+szr92sfN++b0frKzkTA81Lp13Sy+fXw9fxnz4/ZOanhVL4L//yL0n7ins6nX322ck6+3y/zFk8VUb5kigtb3rwbehT0xTPMPm20+uXlx/WZRwCI0UAKRkp0synYwjs27cv2eg3e15JGSnRf9na+TRKfqeonUre0Ki+pmmHqtMN/jSNdmaSBKUiOysLKfGnOzTfoaxH3nJm5aelROupddC8JYJeUMJrQjznBErwx+c3kxIdVRPXLCk577zzCkuJ56RPLbNPWQKLlHg6fMZGACmJLWIsb9sJ6KLFvJ1MuHDDffrGH45vdCQjXJ5m49rRaafsj7B44Wh2KkEstGNMJ9XTNJ+yJEHTfP5Q18PX12eYsvKzpCSso3G/3F42vHyky/n2s5Y7PH2jO7DEQaftwuRP62iZfPJtap7pFB59CafpWpyQs6bpO0dKQkqMx0Lgky1GLEvMckJghAhoo64dR5gOHz7szj333GSjv3379nBS3bjqa+cw1AtdVVe3bOYlLxE67RH+5+zLZ+X5afr0O90wT0dMtJPzSTtCHbFJlw3b9v+p+9M0vm3VC2XF73D1mU6ap2QobNeXSc/b5/vPvHaz8tNSktW2P53kp2W1o3lrWSUfoVQo3x/RCGVFF0mrbLjuDzzwQO10VXpd8qTEC2O6PFLiifAZOwGkJPYIsvzDRkBSoR3r4sWLnW6lvPLKKxPJyPovNGsh8m4J9rIS7qDSO0u153eO2hGpjgYJSLjD0o5POzuV0fM5VEaf+h6Wy1o+Lz2+bQmQ8jRfn7Rj1tETcdApDZXVp777FJbRvDVouur5HbvK5u3cNc3fraN66fVIX8Tp5+s/89rNyk9zVtti6hn4ZfcXqWoeXj60bL6+FzDxFzMfI88wlDG1cfDgwaSuyuqW8vHjx7uLL7641l56XbJi5+elZfBx8Edk1G6Y9F1lwpTFQ9Pz8sO6jENgpAgM7skjNVfmA4EICGzZsiV5zoXfEemi1TVr1jhdU1I0hQ9Pk9xoR6GdgP/07eh7eieiadr56XSCP3Sv8XBHrzLaaWon5stoh6r/1tPl/Lz8p7+OIqynZUsnta/21K7K6jMUF5X3ZXxbWh7lhUnLo/y85fJt+PmorSLrkcVT883KT3NWmZCv5plet3D9tPzpdQhjlMXGM/joo4/cY489lsRZ89BdQepb4V1DnlFWHPw6eT4SH81bZbVMYUqvp6+r/HTb+p6VH7bHOARGigBSMlKkmQ8EINC1BF5//fW6ddeRtKwjGnUFyYBAFxFASroo2KwqBCDQHgI6GqG3TetR7xrXo98lJDqNIzkhQQAC/04AKaEnQAACEBhmAhIRnaqRiGj4whe+kFzE7K9NGebZ0zwEoiGAlEQTKhYUAhCAAAQg0NkEkJLOji9rBwEIQAACEIiGAFISTahYUAhAAAIQgEBnE0BKOju+rB0EIAABCEAgGgJdJyV6vfmUKVPcN77xDQYY0AfoA/QB+gB9oIU+oLelX3DBBcMmOV0nJXqa4ty5c92GDRsYYEAfoA/QB+gD9IEW+sBll12WPERxuKyk66TkW9/6llu3bt1w8aRdCEAAAhCAQMcS0KsYVq1aNWzrh5QMG1oahgAEIAABCHQWAaTEOJ4cKTEGSnMQgAAEINA1BJAS41AjJcZAaQ4CEIAABLqGAFJiHGqkxBgozUEAAhCAQNcQQEqMQ42UGAOlOQhAAAIQ6BoCSIlxqJESY6A0BwEIQAACXUMAKTEONVJiDJTmIAABCECgawh0nZQcOHDAffe733WzZ89OXvW9efPmumCvWbPGzZs3zy1btsz19/fXTW+UgZQ0osM0CEAAAhCAQD6BrpISCcmkSZPc2rVra8OsWbMG0Vm0aFEiJNu2bXObNm1yPT09bvv27YPKNPqClDSiwzQIQAACEIBAPoGukpKrr746OUqSh2PPnj2JhDz33HO1IosXL3bXXXdd7XuzEaSkGSGmQwACEIAABLIJdI2U7Nixw33mM59xb7zxhjt16pR7/vnn3YcffjiIyp133unOPffcQXmPP/54Iiq/+tWvBuXnfUFK8siQDwEIQAACEGhMoGuk5Kc//an70pe+5P70T//UnXbaaYlonHXWWU6y4pOOiKRP5xw6dCgpe/DgQV9s0Off/d3fuXC4/PLLeffNIEJ8gQAEIAABCBQj0DVSoutIrrzySqdTOPv27XO6vkR555xzjnv77bcTWhKStJRogq4r2bVrVybRyZMnu3AYM2bMsEjJNx/6H85yOHD0/cz1qUrmD57+X6br+72tr1Rl1VgOCEAAAhDIIdA1UqIjJZKLjRs31lDoYlbl/fznP0/yli5dWiclr732WlJGR0yKpOE6fTO5b6frXbPdbIhBSizXFykp0nspAwEIQKC9BLpGSnSaRgIyMDBQI378+PEkb8OGDUneXXfdldydUyvgnNMtw6r3wQcfhNm540hJLpqWJuhICVLSEjIKQwACEIieQNdIyUcffeQmTpyYXFPio/bQQw8lwqEjJkr+7punnnrKF3Fz586txN03HCkpd5SIIyW1Ls0IBCAAgcoS6BopUQR0DYmOetxxxx218fQ1JHpOySWXXJI8NG39+vVJ+So8pwQpQUoquxVhwSAAAQgYEegqKREzicmCBQuSQeNZ6fbbb3dz5sxxOhVTlSe6IiVISVZfJQ8CEIBAJxHoOikZ7uBxTYkNYa4pseFIKxCAAARiIoCUGEcLKbEBipTYcKQVCEAAAjERQEqMo4WU2ABFSmw40goEIACBmAggJcbRQkpsgCIlNhxpBQIQgEBMBJAS42ghJTZAkRIbjrQCAQhAICYCSIlxtJASG6BIiQ1HWoEABCAQEwGkxDhaSIkNUKTEhiOtQAACEIiJAFJiHC2kxAYoUmLDkVYgAAEIxEQAKTGOFlJiAxQpseFIKxCAAARiIoCUGEcLKbEBipTYcKQVCEAAAjERQEqMo4WU2ABFSmw40goEIACBmAggJcbRQkpsgCIlNhxpBQIQgEBMBJAS42ghJTZAkRIbjrQCAQhAICYCSIlxtJASG6BIiQ1HWoEABCAQEwGkxDhaSIkNUKTEhiOtQAACEIiJAFJiHC2kxAYoUmLDkVYgAAEIxEQAKTGOFlJiAxQpseFIKxCAAARiIoCUGEcLKbEBipTYcKQVCEAAAjERQEqMo4WU2ABFSmw40goEIACBmAggJcbRQkpsgCIlNhxpBQIQgEBMBJAS42ghJTZAkRIbjrQCAQhAICYCSIlxtJASG6BIiQ1HWoEABCAQEwGkxDhaSIkNUKTEhiOtQAACEIiJAFJiHC2kxAYoUmLDkVYgAAEIxEQAKTGOFlJiAxQpseFIKxCAAARiIoCUGEcLKbEBipTYcKQVCEAAAjERQEqMo4WU2ABFSmw40goEIACBmAggJcbRQkpsgCIlNhxpBQIQgEBMBJAS42ghJTZAkRIbjrQCAQhAICYCSIlxtJASG6BIiQ1HWoEABCAQEwGkxDhaSIkNUKTEhiOtQAACEIiJAFJiHC2kxAYoUmLDkVYgAAEIxEQAKTGOFlJiAxQpseFIKxCAAARiIoCUGEcLKbEBipTYcKQVCEAAAjERQEqMo4WU2ABFSmw40goEIACBmAggJcbRQkpsgCIlNhxpBQIQgEBMBJAS42ghJTZAkRIbjrQCAQhAICYCXSUls2bNculh7dq1dfFas2aNmzdvnlu2bJnr7++vm94oAylpRKf4NKSkOCtKQgACEOgUAl0lJT09PU4Skh7CYC5atCgRkm3btrlNmzY51dm+fXtYpOE4UtIQT+GJSElhVBSEAAQg0DEEuk5Kdu3alRu8PXv2JBKyd+/eWpmlS5e66667rva92QhS0oxQselISTFOlIIABCDQSQS6UkokJm+99VZdHO+8887k9E444emnn05E5Ve/+lWYnTuOlOSiaWkCUtISLgpDAAIQ6AgCXSclOh3jh8WLF7vXXnutFkgdEdE1J2E6dOhQUv7gwYNhdm38sccec+Fw6aWXunXr1tWmW41M7tvpetdsNxsOHH3fatGGpR2kZFiw0igEIACBShPoKinRdSJKJ06cSERCchJKiL8INh0xlcs77TNz5kwXDuPGjUNK0gCH8B0pGQI0qkAAAhCInEBXSUk6VitXrkyOghw+fDiZpOtHQklRpo6kSEp0xKRI4vRNEUrNyyAlzRlRAgIQgECnEehqKXn88ccT4di3b18S17vuustNmjRpUIw3b96clPnggw8G5ed9QUryyLSWj5S0xovSEIAABDqBQNdIyc6dO+viNWPGjEQ43n333WSa5ERHRZ544ola2blz5ybPK6llNBlBSpoAKjgZKSkIimIQgAAEOohA10iJnk0yffp0d9NNNzmt9LRp09xnP/vZuoejqdyZZ57pli9f7q655prkyMmBAwcKhxwpKYyqYUGkpCEeJkIAAhDoSAJdIyW6yHXjxo3JUY/Zs2e77373u+6ZZ57JDKpO2SxYsMDdcccdrhUhUWNISSbSljORkpaRUQECEIBA9AS6RkpGKlJIiQ1ppMSGI61AAAIQiIkAUmIcLaTEBihSYsORViAAAQjERAApMY4WUmIDFCmx4UgrEIAABGIigJQYRysWKfnbF95yLx45aTpYokRKLGnSFgQgAIE4CCAlxnGKRUou37Db7JH1evz9jleOmZJESkxx0hgEIACBKAggJcZhQkpsgCIlNhxpBQIQgEBMBJAS42ghJTZAkRIbjrQCAQhAICYCSIlxtJASG6BIiQ1HWoEABCAQEwGkxDhaSIkNUKTEhiOtQAACEIiJAFJiHC2kxAYoUmLDkVYgAAEIxEQAKTGOFlJiAxQpseFIKxCAAARiIoCUGEcLKbEBipTYcKQVCEAAAjERQEqMo4WU2ABFSmw40goEIACBmAggJcbRQkpsgCIlNhxpBQIQgEBMBJAS42ghJTZAkRIbjrQCAQhAICYCSIlxtJASG6BIiQ1HWoEABCAQEwGkxDhaSIkNUKTEhiOtQAACEIiJAFJiHC2kxAYoUmLDkVYgAAEIxEQAKTGOFlJiAxQpseFIKxCAAARiIoCUGEcLKbEBipTYcKQVCEAAAjERQEqMo4WU2ABFSmw40goEIACBmAggJcbRQkpsgCIlNhxpBQIQgEBMBJAS42ghJTZAkRIbjrQCAQhAICYCSIlxtJASG6BIiQ1HWoEABCAQEwGkxDhaSIkNUKTEhiOtQAACEIiJAFJiHC2kxAYoUmLDkVYgAAEIxEQAKTGOFlJiAxQpseFIKxCAAARiIoCUGEcLKbEBipTYcKQVCEAAAjERQEqMo4WU2ABFSmw40goEIACBmAggJcbRQkpsgCIlNhxpBQIQgEBMBJAS42ghJTZAkRIbjrQCAQhAICYCSIlxtJASG6BIiQ1HWoEABCAQEwGkxDhaSIkNUKTEhiOtQAACEIiJAFJiHC2kxAYoUmLDkVYgAAEIxEQAKTGOFlJiAxQpseFIKxCAAARiIhCFlKxdu9YdPHgwCq5IiU2YkBIbjrQCAQhAICYC0UhJT0+Pmzdvnnv88ccrzRcpsQkPUmLDkVYgAAEIxEQgCikR0Ndee83dcMMNTnIyYcIEt3r1ardv374hs16yZImbNWuW279/f10bgjJ+/PhEgvr7++umN8pAShrRKT4NKSnOipIQgAAEOoVANFISAr/33nvd7/7u7yaCMnfuXLd58+ZwctPxjRs3utGjRyf1d+3aNaj8okWLEhnZtm2b27RpU1JG40UTUlKUVONySEljPkyFAAQg0IkEopQSBeLRRx91l1xyifvc5z7nTj/9dDd9+nS3c+fOpjEaGBhwvb29icjoqEsoJZIP5e3du7fWztKlSxNJqWU0GUFKmgAqOBkpKQiKYhCAAAQ6iEBUUvJP//RP7tprr03E4YorrnB/8zd/k4Ti/fffTyRDp2OapZkzZ7q+vr5ERtJSsnLlyuSUTtjG008/nczvnXfeCbNzx5GSXDQtTUBKWsJFYQhAAAIdQSAKKdHdNzoaMm7cOHfnnXe6V199NRO+JKNR0mmeqVOnJkV0hCQtJQsXLqyTEh1ZUbmXX345s2mdSgqHCy64wK1bty6zbJnMyX07Xe+a7WbD5Rt2m7Wl5drxyrEyq1dXFympQ0IGBCAAgY4nEI2UPPbYY02DEZ6KSRc+efKkGzNmTO3C1iwpmT17dp2UnDp1KpGS5557Lt1k8n3BggUuHL74xS8iJZmkWstESlrjRWkIQAACnUAgCimxAK27ba6++mq3e/fuZNDRDR0B0aeOhijdfPPNdVJy4MCBpNyRI0cKLQanbwphaloIKWmKiAIQgAAEOo5AFFKi0y66FiSddDuv7qIpklRfEpI16BoTJZ0mmjRp0qDmNG+dNvr4448H5ed9QUryyLSWj5S0xovSEIAABDqBQBRSoqMcuo03K+lOmqxnjWSVDfOyTt/oqbGf+tSn3BNPPFErqluOdQFs0YSUFCXVuBxS0pgPUyEAAQh0IoEopGT+/Pm5zyLRhauNriXJC1qWlKisjpaceeaZbvny5e6aa65JjpzoFE7RhJQUJdW4HFLSmA9TIQABCHQigSikRKdXdD1IOukIiU7H6CLWVpOuI1G7/nqSsL6OlNx9993uwQcfdK0IidpASkKSQx9HSobOjpoQgAAEYiUQhZRIOnTtiB5k5i9UfeSRR5LHza9YsaJS7JESm3AgJTYcaQUCEIBATASikBIB1VGR8GJVSYqOdAzlKMlwBggpsaGLlNhwpBUIQAACMRGIRkpigYqU2EQKKbHhSCsQgAAEYiKAlBhHCymxAYqU2HCkFQhAAAIxEYhGSnSqRu+2yXrOSJWAIyU20UBKbDjSCgQgAIGYCEQhJXpGib+GRLfypocqAUdKbKKBlNhwpBUIQAACMRGIQkr0nBIdKYkhISU2UUJKbDjSCgQgAIGYCEQhJXqiK1LCW4LLvCX5e1tfiel3ybJCAAIQ6EoCUUiJHnCmJ7dmPeisalHjSIlNRDhSYsORViAAAQjERCAKKdFL8SZMmJBc5KpPXfAaDlUCjpTYRAMpseFIKxCAAARiIhCFlOjCVp2+yRuqBBwpsYkGUmLDkVYgAAEIxEQgCimJCShSYhMtpMSGI61AAAIQiIlAVFKi0zh6i6+OnCjpGhM9fr5KCSmxiQZSYsORViAAAQjERCAaKdGFrr29vcng78SRlOj5JVVKSIlNNJASG460AgEIQCAmAlFIiR6eppfx6eV7/roSD1miUqWjJUiJj0y5T6SkHD9qQwACEIiRQBRSooen6dSNUlpKJCv+dE4VAoCU2EQBKbHhSCsQgAAEYiIQhZSsWLEikRGBDaVER070Lhx9ViUhJTaRQEpsONIKBCAAgZgIRCElOhKia0fCW4MlIkuXLk1O61QJOFJiEw2kxIYjrUAAAhCIiUAUUiKguq7EvyF4zJgxybgufq3S9SRaTqTEpvsjJTYcaQUCEIBATASikRJB1d02W7duTQSlSteRhAFHSkIaQx9HSobOjpoQgAAEYiUQlZTEABkpsYkSUmLDkVYgAAEIxEQgCinRURE9NC1vqBJwpMQmGkiJDUdagQAEIBATgSikRLcD69bfcND1JLrGRHlVSkiJTTSQEhuOtAIBCEAgJgJRSEkeUMmKnmFSpYSU2EQDKbHhSCsQgAAEYiIQtZQINE903e5617Q+XL5h95Dq5c1rxyvHTPs9UmKKk8YgAAEIREEgainRs0p0e3CV7sThSIlNv0dKbDjSCgQgAIGYCEQhJXkXus6aNSs5UlIl4EiJTTSQEhuOtAIBCEAgJgJRSEnWha66wHXJkiXJs0uqBBwpsYkGUmLDkVYgAAEIxEQgCimJCShSYhMtpMSGI61AAAIQiIkAUmIcLaTEBihSYsORViAAAQjERCAKKdFD03T9SJGh3fCREpsIICU2HGkFAhCAQEwEopESicnZZ5/trr32Wrdq1apEUCZNmlT3lNd2w0dKbCKAlNhwpBUIQAACMRGIRkrOP//8Oq5PPfWUk5icOnWqblq7MpASG/JIiQ1HWoEABCAQE4EopGTBggXuZz/7WSbXM88807300kuZ09qRiZTYUEdKbDjSCgQgAIGYCEQhJYsWLXJLly6t4zowMJC8/+bAgQN109qVgZTYkEdKbDjSCgQgAIGYCEQhJf39/Yl8aIe/ceNGt3XrVnf77be7K6+80s2ZM6dSvJESm3AgJTYcaQUCEIBATASikBIBffrpp5OjJRMnTnSnnXaamzFjhlu9erU7dOhQpXgjJTbhQEpsONIKBCAAgZgIRCMlFlB1CkgyI6n56le/6n70ox/VNatTQZdeeqkbNWqUkwDprp9WElLSCq38skhJPhumQAACEOhUAlFJyf79+92TTz5ZewGfrilRXtG0Zs2apK7epfOTn/zEffrTn3a6XiVMkpZbbrnFnThxwu3duzc5bfTwww+HRRqOIyUN8RSeiJQURkVBCEAAAh1DIBop0Xtuenp63OjRo11fX18SAMlFb2/vkINx3333JW8Z9g1s2bIlmYdkxCcdXbniiiv816afSElTRIUKICWFMFEIAhCAQEcRiEJK9EK+qVOnJi/fk5B4KVEkJCmtHC0Jozdv3jx3/fXX17JWrlyZPJStlvEf17JIht55550wO3ccKclF09IEpKQlXBSGAAQg0BEEopASHSXRXTdKaSnR24J1xKRo8o+q//znP++WL1/u3n333VrVhQsX1kmJv+345ZdfrpULR/7sz/7MhcOUKVPcunXrwiIm45P7drreNdvNhss37DZrS8u145VjJuvpG0FKPAk+IQABCHQPgWikxB8dSUuJjpRIHIomXbjq36Xzm7/5m06ncHyaPXt2nZToaQNwQPwAACAASURBVLE6UvLcc8/5YoM+/+iP/siFgx6Fj5QMQjSkL0jJkLBRCQIQgEDUBKKQEp2+mTBhQt3pGwlKmWtKJCdjx46tBfDmm2+ukxI9LVZScuTIkVq5RiOcvmlEp/g0pKQ4K0pCAAIQ6BQCUUiJYPsLXSUnfihzPYkPoITDn/6RpOi0TpgefPBBN27cOPfxxx+H2bnjSEkumpYmICUt4aIwBCAAgY4gEI2UiLbkwZ++0TUmJ0+eLByEX/ziF4PKHjt2zC1btiw5CvL2228n0w4ePOg+9alPuSeeeKJWdu7cuU4XwBZNSElRUo3LISWN+TAVAhCAQCcSiEJKdDGrv6ZkqEHQURC9UVgXuuqNwzpCooeo3X333YOaVDm95E8XwV5zzTVJnVberYOUDMI55C9IyZDRURECEIBAtASikBKduikrJYqQ3pkj6fjhD3/ofv7zn+deIKsjJZIVnbppRUg0D6TE5reAlNhwpBUIQAACMRGIQkr0HBL/nJKqw0VKbCKElNhwpBUIQAACMRGIQkr83Tc65eKfMxJ+Vgk4UmITDaTEhiOtQAACEIiJQBRSEl7g6i90DT+rBBwpsYkGUmLDkVYgAAEIxESgslKiaz80KElK/G27VYeLlNhECCmx4UgrEIAABGIiEIWUhIJSdbhIiU2EkBIbjrQCAQhAICYClZWS/v5+981vftO9+eabyRETf9Sk6nCREpsIISU2HGkFAhCAQEwEKislkpFrr702eZ6ILnBtNFQJOFJiEw2kxIYjrUAAAhCIiUBlpcRD/OUvf1k7UuKvLUl/+rJV+ERKbKKAlNhwpBUIQAACMRGovJQIppeQGMAiJTZRQkpsONIKBCAAgZgIRCElMQFFSmyihZTYcKQVCEAAAjERQEqMo4WU2ABFSmw40goEIACBmAggJcbRQkpsgCIlNhxpBQIQgEBMBJAS42ghJTZAkRIbjrQCAQhAICYCSIlxtJASG6BIiQ1HWoEABCAQE4HKSsn3v/99d8MNNxQaTpw4URnmSIlNKJASG460AgEIQCAmApWWkm9/+9uuyICUbHe9a1obLt+wu+U6jeax45Vjpv0eKTHFSWMQgAAEoiBQWSmJgl7GQnKkJAPKELKQkiFAowoEIACByAkgJcYBREpsgCIlNhxpBQIQgEBMBCorJbqm5LLLLis0cPqmtVM3Og3D6ZuYfqYsKwQgAIHuIFBpKfnzP/9zV2RASpCSRte7aNr3tr7SHb9o1hICEIBAxAQqKyWxMuX0jU3kOH1jw5FWIAABCMREICopGRgYcE8++aS799573e7duyvJGSmxCQtSYsORViAAAQjERCAaKVmxYoXr6ekZNEyYMMHt37+/UryREptwVF1KXnnrPWc92JCjFQhAAALxEohCSrZu3epGjx7tdu3aVSN98uRJt2TJEicxqVJCSmyiUXUp+ceDx02f8zJz/Sd924YgrUAAAhCIj0AUUiL56Ovry6QrWanS0RKkJDNMLWciJS0jowIEIACB6AlEIyUbN27MhN3b24uUtPg0V24JzuxKLWVypKQlXBSGAAQgUIhAFFKyefNmN2bMmEGnb7R2OnqiIyVVShwpsYkGR0psONIKBCAAgZgIRCElAqpTOLrQVdeQzJo1KxlPX2dSBfBIiU0UkBIbjrQCAQhAICYC0UiJoOraEZ3G0RESXfyqi12rlpASm4ggJTYcaQUCEIBATASikJKZM2fmXuhaNdhIiU1EkBIbjrQCAQhAICYCUUhJo7tvqgYbKbGJCFJiw5FWIAABCMREIAop0Wmbqt1lkxdkpCSPTGv5SElrvCgNAQhAoBMIRCEluvtGF7jqQlfdhaMLXcOhSoFASmyigZTYcKQVCEAAAjERiEJK9CRXXdyaN1QJOFJiEw2kxIYjrUAAAhCIiUAUUhITUKTEJlpIiQ1HWoEABCAQEwGkxDhaSIkNUKTEhiOtQAACEIiJAFJiHC2kxAYoUmLDkVYgAAEIxESga6Rk7dq17sILL0wultUFs1OmTHHKS6cDBw64Sy+91I0aNcpNnDgxs0y6TvgdKQlpDH0cKRk6O2pCAAIQiJVAV0nJLbfc4p599tkkVv39/e63f/u3nQCEacaMGW7VqlXuxIkTbu/evYmcPPzww2GRhuNISUM8hSciJYVRURACEIBAxxDoGin54IMP6oL29a9/3Y0dO7aWv2XLluRIysDAQC1v9erV7oorrqh9bzaClDQjVGw6UlKME6UgAAEIdBKBrpGSrKBJIKZNm1abtHLlyuT5J7UM59yePXsSUXnnnXfC7NxxpCQXTUsTkJKWcFEYAhCAQEcQ6Fopee211xLZePDBB2uBXLhwYZ2UvPXWW0m5l19+uVYuHPnOd77jwuGcc85x69atC4uYjE/u2+l612w3Gy7fsNusLS3XjleOmaynbwQp8ST4hAAEINA9BLpWSnSx67JlywZFevbs2XVS8m//9m+JlDz33HODyvovd911lwuHyZMnIyUeTolPpKQEPKpCAAIQiJRAV0rJGWec4RYtWlQXsptvvrlOSl588cVESo4cOVJXPiuD0zdZVFrPQ0paZ0YNCEAAArET6DopmTRpUqaQKJC6RTi88FV599xzjxs/frz7+OOPC8UaKSmEqWkhpKQpIgpAAAIQ6DgCXSMlev5IIyFRZI8ePZoIyPr162uBznueSa1AagQpSQEZ4lekZIjgqAYBCEAgYgJdIyU6CqLrSLKGMH56fol/uNq4ceNyj6qEdcJxpCSkMfRxpGTo7KgJAQhAIFYCXSMletNw3pAO3qFDh9ymTZvcjh070pOafkdKmiIqVAApKYSJQhCAAAQ6ikDXSMlIRQ0psSGNlNhwpBUIQAACMRFASoyjhZTYAEVKbDjSCgQgAIGYCCAlxtFCSmyAIiU2HGkFAhCAQEwEkBLjaCElNkCREhuOtAIBCEAgJgJIiXG0kBIboEiJDUdagQAEIBATAaTEOFpIiQ1QpMSGI61AAAIQiIkAUmIcLaTEBihSYsORViAAAQjERAApMY4WUmIDFCmx4UgrEIAABGIigJQYRwspsQGKlNhwpBUIQAACMRFASoyjhZTYAEVKbDjSCgQgAIGYCCAlxtFCSmyAIiU2HGkFAhCAQEwEkBLjaCElNkCREhuOtAIBCEAgJgJIiXG0kBIboEiJDUdagQAEIBATAaTEOFpIiQ1QpKQcx1//3//nZq7fZTq8dfJUuYWiNgQgAIEmBJCSJoBanYyUtEosuzxSks2laK6kpHfNdtMBKSlKn3IQgMBQCSAlQyWXUw8pyQHTYjZS0iKwVHGkJAWErxCAQBQEkBLjMCElNkCRknIckZJy/KgNAQi0hwBSYswdKbEBipSU44iUlONHbQhAoD0EkBJj7kiJDVCkpBxHpKQcP2pDAALtIYCUGHNHSmyAIiXlOCIl5fhRGwIQaA8BpMSYO1JiAxQpKccRKSnHj9oQgEB7CCAlxtyREhugSEk5jkhJOX7UhgAE2kMAKTHmjpTYAEVKynFESsrxozYEINAeAkiJMXekxAYoUlKOI1JSjh+1IQCB9hBASoy5IyU2QJGSchyRknL8qA0BCLSHAFJizB0psQGKlJTjiJSU40dtCECgPQSQEmPuSIkNUKSkHEekpBw/akMAAu0hgJQYc0dKbIAiJeU4IiXl+FEbAhBoDwGkxJg7UmIDFCkpxxEpKceP2hCAQHsIICXG3JESG6BISTmOSEk5ftSGAATaQwApMeaOlNgARUrKcURKyvGjNgQg0B4CSIkxd6TEBihSUo4jUlKOH7UhAIH2EEBKjLkjJTZAkZJyHJGScvyoDQEItIcAUmLMHSmxAYqUlOOIlJTjR20IQKA9BJASY+5IiQ1QpKQcR6SkHD9qQwAC7SGAlBhzR0psgCIl5TgiJeX4URsCEGgPAaQkh/urr77qPvroo5yp+dlIST6bVqYgJa3Qqi+LlNQzIQcCEKg+ga6SkhUrVrhZs2a5np4eN3PmzMzoHDhwwF100UVJmVGjRrm1a9dmlsvLREryyLSWj5S0xitdGilJE+E7BCAQA4GukpL58+e7vr4+t2TJklwpmT59ulu1apU7ceKE27t3r5OYPPDAA4VjiZQURtWwIFLSEE/TiUhJU0QUgAAEKkigq6TE85eYZB0pkXzoKMrAwIAv6lavXu0kKkUTUlKUVONySEljPs2mIiXNCDEdAhCoIgGkJIjKrbfempzeCbLcnj17ElE5evRomJ07jpTkomlpAlLSEq66wkhJHRIyIACBCAggJUGQ5s2bVyclx48fT6Rk3759QclPRhcvXuzCYcKECW7dunWfFDAam9y30/Wu2W42XL5ht1lbWq4drxwzWtN/bwYpKYcTKSnHj9oQgEB7CCAlAferrrqqTkrefffdREpeeOGFoOQno+vXr3fhcP755yMln+AZ8hhSMmR0SUWkpBw/akMAAu0hgJQE3LNO3+gIia4zefPNN4OS+aOcvsln08oUpKQVWvVlkZJ6JuRAAALVJ4CUBDHS7b9jx44Ncpy755573Pjx493HH388KD/vC1KSR6a1fKSkNV7p0khJmgjfIQCBGAggJUGUdDGrBESnY3yaMmVKS88qQUo8uXKfSEk5fkhJOX7UhgAE2kOgq6REtwHrVEx6CNH39/cn0yUj48aNc4sWLQonNx1HSpoiKlQAKSmEKbcQUpKLhgkQgECFCXSVlOzfv9/t2rWrbkjHxz847dChQ+lJTb8jJU0RFSqAlBTClFsIKclFwwQIQKDCBLpKSkYiDkiJDWWkpBxHpKQcP2pDAALtIYCUGHNHSmyAIiXlOCIl5fhRGwIQaA8BpMSYO1JiAxQpKccRKSnHj9oQgEB7CCAlxtyREhugSEk5jkhJOX7UhgAE2kMAKTHmjpTYAEVKynFESsrxozYEINAeAkiJMXekxAYoUlKOI1JSjh+1IQCB9hBASoy5IyU2QJGSchyRknL8qA0BCLSHAFJizB0psQGKlJTjiJSU40dtCECgPQSQEmPuSIkNUKSkHEekpBw/akMAAu0hgJQYc0dKbIAiJeU4IiXl+FEbAhBoDwGkxJg7UmIDFCkpxxEpKceP2hCAQHsIICXG3JESG6BISTmOSEk5ftSGAATaQwApMeaOlNgARUrKcURKyvGjNgQg0B4CSIkxd6TEBihSUo4jUlKOH7UhAIH2EEBKjLkjJTZAkZJyHJGScvyoDQEItIcAUmLMHSmxAYqUlOOIlJTjR20IQKA9BJASY+5IiQ1QpKQcR6SkHD9qQwAC7SGAlBhzR0psgCIl5TgiJeX4URsCEGgPAaTEmDtSYgMUKSnHESkpx4/aEIBAewggJcbckRIboEhJOY5ISTl+1IYABNpDACkx5o6U2ABFSspxRErK8aM2BCDQHgJIiTF3pMQGKFJSjiNSUo4ftSEAgfYQQEqMuSMlNkCRknIckZJy/KgNAQi0hwBSYswdKbEBipSU44iUlONHbQhAoD0EkBJj7kiJDVCkpBxHpKQcP2pDAALtIYCUGHNHSmyAIiXlOCIl5fhRGwIQaA8BpMSYO1JiAxQpKccRKSnHj9oQgEB7CCAlxtyREhugSEk5jsMhJWv+9iX3/e3/02x45vV3yq0ktSEAgY4jgJQYhxQpsQGKlJTjOBxScuG6/+5612w3G5CScjGmNgQ6kQBSYhxVpMQGKFJSjiNSUo4ftSEAgfYQQEqMuSMlNkCRknIckZJy/KgNAQi0hwBSYswdKbEBipSU44iUlONHbQhAoD0EkBJj7kiJDVCkpBzHbpQSXYj7h/c/azbcs/O1ckGgNgQg0DIBpKRlZI0rICWN+RSdipQUJZVdrlulxPJCXKQku2+RC4HhJICUGNNFSmyAIiXlOCIl5e8SQkrK9UFqQ2AoBJCSoVBrUAcpaQCnhUlISQuwMooiJUhJRrcgCwKVJ4CU5ITo1VdfdR999FHO1PxspCSfTStTkJJWaNWXRUqQkvpeQQ4Eqk8AKUnF6MCBA+6iiy5yPT09btSoUW7t2rWpEo2/IiWN+RSdipQUJZVdDilBSrJ7Rn7uiQ8/dhO/t8N0+OB//5/8GVZgys0/22e6vg/84+EKrFX+IvzjweOm6ztz/a78mQ1xClKSAjd9+nS3atUqd+LECbd3795ETB544IFUqfyvSEk+m1amICWt0Kovi5QgJfW9onGOpMTyQmG1FYOUWK5zDFJiub5ISePfVOmpkg8dIRkYGKi1tXr1aidRKZqQkqKkGpdDShrzaTYVKUFKmvWR9HSkpHyfQUrSvar17xwpCZjdeuutbtasWUGOc3v27ElE5ejRo4Py874gJXlkWstHSlrjlS6NlJTfwXTb3TdISfk+g5Skt0Stf0dKAmbz5s2rk5Ljx48nUrJv376g5Cejv//7v+/C4dOf/rQ766yzBuWF04cy/pWvfMWNmTDJ/edzLjAbTp9o15aW60tfucx0nc/60sVN1/X0s89PuJx+1rSmZf/L1K+YLt8FF89sOs9W4zWUvpFXR9dFVb3PzLhklmlMJky5qGlM/tOZU/+dy8TpTcueff7FpsuXF6uq5M/48oXmfea//rcrKs3wjMkXNu0H+h0V/S2dd8GllV5f6+2WuGj/ZNmHv/jFL7oLLrjgk52s8ViPcXvD2tzVV19dJyW6tkSndF588cXMef/0pz914fDVr37V3XDDDYPywulDGddyqd2h1O3kOv5026ZNm2CT6ofaSMyePRsuKS4//vGPk9/zww8/DJsUm4svvtgtXLgQLikuf/EXf+H0z2Ynb0uHum5Tp051Ojsw1PpZ9bT/1DBcKSop+eM//uM6KdHFrpKSY8eODRejpu3qDqAbb7yxabluK6BbthWbt99+u9tWven6rlixwt1+++1Ny3VbAZ2GVZ/59a9/3W2r3nR9v/3tb7sf/OAHTct1WwHdkfm5z32u21a70Pp+/etfdz/5yU8Kla1KoaikRHBlxB9++GGN39133+1+7/d+r/a9HSNISTZ1pCSbi3KRkmw2SEk2F+UiJdlskJJsLspFSvLZmEx57733nM5nrV+/vtbelClT3A9/+MPa93aMICXZ1JGSbC7KRUqy2SAl2VyUi5Rks0FKsrkoFynJZ2M2pb+/Pzm8KxkZN26cW7RokVnbQ20IKckmJym55pprOH2TgQcpyYDinJOUqM9w+qaeD1JSz0Q5khL1GVI9AXHh9E09F/Mc/+C0Q4cOmbdNgxCAAAQgAAEItIdAVNeUtAcRc4UABCAAAQhAYCQIICUjQZl5QAACEIAABCDQlABS0hQRBSAAAQhAAAIQGAkCSIkBZT0jpZ3PSTFYhWFrYteuxm+p1MWwr7766rDNf6Qb1u3qzz//vHvjjTcazrpInxEX8emUpItYX3rppaar0219pimQ/yjQjX2mKJtu7TP79+93J0+ezMVUZBtSpEzuDIZhAlJSEqru/tHDnkaNGpVcAd7pcqKXIeoJthMmTEjWu6+vL5Og7pKaOHFi8rA7fep7OumuJXHTdD12vdmGJV2/St+17NOmTUuYqD9o0HuaduzYUbeY6jNabw1Zd4/pbgLxEGOVif0ha4rz+PHja2zOPvts9yd/8id1XO6///6u6jNpAHr6pvpN+negbYruolBf0PRGfUa/JZUT85iTGPjfUfiZXqcifUa/HzHx2xn9vmJPeuKxXpfi2WjbE6Yi2xAx1naman0GKQkj2eL4smXL3KRJk5Jb0mSr2ljMmDGjxVbiKi4z1+2smzdvdtqIZkmJ3kOkH8vjjz+erJw+9T18P5F/BL2XFW1EVUZP6I0x6Qeu5+XoKImOluj7VVddlWw4wvVRn5GsqL9o0LjywqS3Xvsdj3irjy1fvjwsEtW4Yut3BB988IF75plnkljfcccdtfVQf1L8fX/I6zPauYiJku8znXAX3saNG938+fMTBuo7YdI2Rf1B/UUc1R+y+syqVauSauIjTvqNxZrEQP1Bn+EQrs9f/uVfDuozvj+E2xn9bsI+I0atvFU+nF9Vxu+77z535plnuieeeMK9//77yWJt27Zt0OJlbUPCR8PrNyO+Yqak352+V6HPICWDQln8i9/xPvbYY7VK2hgosEUOUdcqRTwyc+bMTCnRBvPCCy8ctGbpna9+NHptQJi+8IUvuOuvvz7MinpcGw/1B598n/E7XuWr/6iM35B6WdMRKZ+08R07dqz/2hGf6g8afFqwYIFbvHix/5p8qg+FO9+8PqN3K8WcFOve3l6nT/WFUEq0LVGeFzGtZ5E+s3r16qh3vl5KGsVV24tmfUa/G7HwyTOuws7XL1Mrn3oBrYTknnvuya2Wtw1RP/ICr9+M+IVJ2+MqCNsnW8xw6RhvSsD/J5cuqMfghzud9PRO+p4nJXrsvzdwv746iuBfB+Cf2hlufFVuzpw5g3ZUvm6sn/rha0Pgk/rM6NGj/dfap8pomtKtt95ax8C/30kbpNiTjiI9++yzCZdQ6PXfv14ZESb1oSJ9JuajSFpf/Y50pERJfSH8XWhbom1KOjXrM3v27Ena0m8txuSlRH1Av6O///u/r1sNMWjUZ/wb5MUiTJJh/c5iTDo6ovXWC2h1dFHrr7wwNdqG+L6l34y2t2HyzNvdZz7ZYoZLx3hTAhs2bEg6R7qgnjSrN512Q8qTEu1401KijavfIfsjBv4H4lllvXDRT4vtUyJx+umnD+KgPuN3suH6aCOjaUrz5s2rkxL/JuwXXnghrBbduNZTgxhs2bJl0PLrhWrpPPWhIn1Gp8liTZIR/Y58Ep/wd6FtibYp6dSsz/gdsj8Cl65f9e9ioDdp6yiHJELrmz41rrxGfUa/F5VJy7za0+8sxiRB+8xnPuMuu+yy5HTfbbfdllzLFrJptA3xfUu/mfSRak0Tr3b3GaRkiD1TGxMFMJ2QEufGjBkzaGcsRtp4KF9Jli92/gfiGXaSlOg///TOUn0mbwfj/1PWRcThaQ2x6RQpUbyffPLJ5MJdvcPq6aef9qFP3vKatYMp0mfSnGuNVnxEpxK0fuGpmfTvopGUFOkz+q3FmP71X/910GLrWi2xCf/Z0fdGfcZLiX4/YdLvS7+zGJNi/tnPftaF14f88z//c8LmH/7hH5JVarQN8dvcRlLS7j5Tv1eNMVJtWGb9568fRTpx+sYl5h5uPMRIhxn9FeK6myC98VWZTjl9c8YZZ7hLLrkk3TWS03p5h+L9Kb8sMeuk0zceinYMS5cu9V+TizezDsUX6TOxnr7Rha1aP/1W/KDfhbjo0LxSo9M3RfpMJ90NKC6hTIhVoz7jjxalL55X30sfJah1xIqP+P2OP93rF/e8886rnQJstA3xUtLo9E27+0z9XtWvJZ8NCXhz90FW4ddffz3Z2fo7DRo20AET807fyOLT5yv1PbR7HcJPb1B0i1u4o4oRkW7jvfTSSzMXPavPqP9o46ppSnp5lsRF11749Fd/9Vcdd6Gr4uyPgmg9dXfJTTfd5Fc5+SzaZ3RBcYxJd7HpNxQO6gu6q03TlLQtUZ62LT4V6TP6bWWdKvRtxPgpgQsvfNZvrVmf0YWu4XZGvyv9vmJ7SZ2Pl9+GpP/p0+nPRx99NCmWtw1RPzp8+HBSRr8ZbW/DVJU+g5SEUWlxfOHChbVbN1VVHUWH7bsl5UnJL37xi0FHQvxGVPk+6cJXsfIC5/8DSF+U5svH8Kkdq05LNErqM9/61rdqRTSuPJ/ee++9pI1wo6N2b7zxRl8kuk9tAMPz+jpdoWcjhP/1PvTQQ4P6Q16fCU9/+T7j+1B0YDIWWDsOrXuY9DtJ94esPrN+/fpaNXHSbyzWFPYZ9R19F5vwrpkf/ehHg/qM7w/hdka/m7DPiJF+o/qdxZoU+6997WvJ3VpaB387vb8WJG8b8o1vfKO2yl52xUxJ39XPqtBnkJJamFof8YHU4XrdpqUNbfiDaL3FOGpo45AeJChh0kZU5z51qFSf4UbVl9POVoavjYbai/W/F62P34mmueh7uJPxfUb9RUMoZp6L37hq2rhx49wf/MEfuCNHjvjJ0X2qD+i/U8VZvxExUezTT71duXJloT4jJp3QZ7ICme4vKqNtiripv2hb06jPiIv4iG/MSX3mtNNOSy5u/Y3f+I3kSGHWabqwz4hdejuj341+P2Gf8TviWPn4ddL66miRBn+6z69TkW2ItrdqQ31G2+Gq9BmkxEdxiJ+nTp1Knkui5wlonPQJgbfeeivZIeszL+m+eZ3zTV+Mlle+E/KL9BnxEBf/XIHY11uPspac6SiJHgKWl+gz2WS6sc+ov2ho9hj0bu0z2jbodE54qjfsPUW2IUXKhG2OxDhSMhKUmQcEIAABCEAAAk0JICVNEVEAAhCAAAQgAIGRIICUjARl5gEBCEAAAhCAQFMCSElTRBSAAAQgAAEIQGAkCCAlI0GZeUAAAhCAAAQg0JQAUtIUEQUgAAEIQAACEBgJAkjJSFBmHhCAAAQgAAEINCWAlDRFRAEIQGC4Ceh5FOkHXw33PGkfAhCoHgGkpHoxYYkg0HUEJCV6umQrSU+x9O+IaaUeZSEAgeoSaG0rUN31YMkgAIEuI9DX15e8zK7LVpvVhUBHE0BKOjq8rBwEhp+ATrto0Ht99H4SvUMj6/0iOhpy2223JW+CvvfeewctWPr0jb7rSMjAwEBSRy/ve+SRR2p1NF3vR9F7P/z8VVbJz0fTNb+tW7fW6jECAQhUmwBSUu34sHQQqDwBSYEE4Nxzz01eqjh79uzkVMxTTz1VW/aNGzcmeTrdoiMcU6dOdXoVvU8SifD0jcpIOHp7e5Pyqjd69OhkXHVUXi+B9NNVXlIiAfHlJDXK5xSPp8wnBKpPACmpfoxYQghUmoCkRG+uffbZZ2vLef3117tLLrmk9t2Lgs/QS/kkIf7tpllSoun+6IfqSS7Ct1FLOMLvvsySJUv8bPiEAAQiI4CURBYwFhcCVSMgKRk7Oc+4ngAAAj9JREFUduygxdqyZUsiHYcPH06OaqQFQ4UlFBILpSwp0dGUMGWVSUuJJGfMmDHJaZsnn3wyrM44BCAQAQGkJIIgsYgQqDIBScn06dMHLeKxY8cSKdGr1dMy4QtKKObPn598TZfJOgpSpIwa0ykctaujMxIUfzTGz5dPCECgugSQkurGhiWDQBQEJCU6EvLee+/Vlnf9+vVJ3i9/+cvkFIym79+/vzZdIzoS0uhISfooSFEpCWei9jVvEgQgEAcBfq1xxImlhEBlCUhKdKHro48+miyjrgPRxa6LFy+uLbMEQ3fQ+KSjF+EpnSLCkVUmvFhWbatMmHTUBCkJiTAOgWoTQEqqHR+WDgKVJ+ClRLcC644ZScCcOXPcoUOHasuuoyQ6MqLTKRIJnVoJT6tkCUezIyWSH919o/lpUBs6baNxSVLWfGoLxAgEIFBJAkhJJcPCQkEgHgJeSrTEelaJhrwkOUkfzcgrO9R8yYrmoUF3+ZAgAIF4CCAl8cSKJYVAJQmEUlLJBWShIACBaAggJdGEigWFQDUJICXVjAtLBYEYCSAlMUaNZYYABCAAAQh0IAGkpAODyipBAAIQgAAEYiSAlMQYNZYZAhCAAAQg0IEEkJIODCqrBAEIQAACEIiRAFISY9RYZghAAAIQgEAHEkBKOjCorBIEIAABCEAgRgJISYxRY5khAAEIQAACHUgAKenAoLJKEIAABCAAgRgJICUxRo1lhgAEIAABCHQgAaSkA4PKKkEAAhCAAARiJPD/AZVy49FyTHxnAAAAAElFTkSuQmCC;" vertex="1" parent="1">
          <mxGeometry x="5" y="770" width="269.53" height="190" as="geometry" />
        </mxCell>
        <mxCell id="9fY33cOpb0TvVjGmPDQJ-11" value="" style="shape=image;verticalLabelPosition=bottom;labelBackgroundColor=#ffffff;verticalAlign=top;aspect=fixed;imageAspect=0;image=data:image/png,iVBORw0KGgoAAAANSUhEUgAAAlIAAAGICAYAAACKkg6nAAAgAElEQVR4Ae2dfYwd1X2/ty+SDX7ZrW3iBlrttkSG1Ap2sYJTYsnbqGmCqo1NErdEIZhAYtE00YJ4MRVBu231g0JIjEJJRKBapJI4QSEmmBhSp7XThdgFR7skRiQK1dIiBKENVgMl5K/z02fIWebOnTt37r1zZs6ZeY40vnfOnDkvz3deHs/Mzh0yJAhAAAIQgAAEIACBvggM9bUWK0EAAhCAAAQgAAEIGESKjQACEIAABCAAAQj0SQCR6hMcq0EAAhCAAAQgAAFEim0AAhCAAAQgAAEI9EkAkeoTHKtBAAIQgAAEIAABRIptAAIQgAAEIAABCPRJAJHqExyrQQACEIAABCAAAUSKbQACEIAABCAAAQj0SQCR6hMcq0EAAhCAAAQgAAFEim0AAhCAAAQgAAEI9EkAkeoTHKtBAAIQgAAEIAABRIptAAIVEzh06JDRFE9pefHlfO9MoBd2vZTt3CJLIACBJhNApJocfcbeE4GvfvWr5sorrzRnnXWWOemkk8zY2Jh53/veZx555JGe6kkWnp6eNkNDrbui5pVP6p1AGs9OtfTDeW5uzmgiQQACEBCB1qM3TCAAgY4ExsfHzamnnmouuOACc+2115rt27ebkZGRSIKOHj3acb1uC9JO/GoLkepGLn15Gs/0ksb0w3nr1q1GEwkCEICACCBSbAcQyEngi1/8onn55ZdbSuvWkK5qXHbZZS35vcz0cuLvpd6mlnXNE5Fq6pbFuCGQTgCRSudCLgRyE9BVDU150mOPPWZ27NgRydd5551n7r333ujKU/LWXqcrJVNTU1FbuhKmW4sXX3yxWVhYaGl6z549i2U61dOywq9mVI/q27hxY9Q/feqqW7J+yaPqVfvqh74rL55sGbv88ssvNydOnIgXMZOTk9Gk22T26t62bdsWy+zbt69lHKojT4qL1Cc+8QlzyimnmNNPP91cc801basn+aiPWl/5ionGGB+f+qwx2XFpmaZ4isdIy2ZmZuKLF7+rnc2bN0f9+6u/+qsoX+WVb5PWVZ76pdhY5loubsl4aT7J2cZCn6p706ZNZv369eaKK66wzUTflaf683JeXJkvEGg4AUSq4RsAwx+MwLFjx6ITrk6w3dL+/fvNihUrIpGSQN1zzz3RCU0nt6RIaT5+QlXdGzZsWGxLJ1gJk8QjLjGa17rqj0REn8PDw9EJt1v/RkdHozZUr+pMq195ql9XZfTdtqHvNqlvKqO+6LvEQn2QmMWT6lCepET9VDlbj+ZVx86dO1vqSEpLvD773fKUsKq8FQnVd/PNN9ti0afy4pwtL/VF66n/yrP90rw4aVIZO9lKNSbVadex8VC5eNq1a1dUTm2rHX1+8IMfXMyzZbWe6tM4VJfmVbeSvitPfVMdmle/JEPxpGV2nFqmMUxMTER5n/vc56LtUduWyqkdlU1yitfHdwhAoJUAItXKgzkI9ERAV1J04tFJqFvSyUsnung6cuRItL7qiCd74rN59oSa1Y49YUpu4knzqi/rAWkt6zYOXZmS9Ojk3SnpaojKSCjiyfZN47DJSoeVFJtvy3bKT47Prmc/rUh99rOftVnR57p168yWLVta8pKcJXzxPrYU/tWM+p0cnxZZzsl+W5myV/asfP/FX/xFS/WSl2R/bNyzmMcrsXGM98HyvPDCC+NFI4lXex/96Efb8t/5zne25DEDAQh0JtB69O5cjiUQgECCgP6CL3niSxRZnH3hhReissmTmQq85S1viZYtFtbDi4krJTpx66pBVtLVm6So2fKqL0sQdJJXGd0asid8u6791MlZZbKEzJ6002RH/Y8LiL6rvmSy8pDM13we0bEi9f3vf7+lig9/+MPRbbR4ptpXeZvUR10l0zg6JfU7Pg5bTvzTxmOZ6EqQkv76U+Vuv/12u2r0+a//+q9Rfrw/lkVWfxSPw4cPL04S2Xisbftf+MIXWtq79NJLo/YOHjzYlr9mzZqWPGYgAIHOBNqPYp3LsgQCEPgVAT14rpPhVVddlYuJno1Sed3SSyY9x5M8AWs+fkLVvE7UWcmKicqmTfGTa1o9VpS0rm4BSari0mRP6mnr2jxbR9qJX/2L33bSfJr4dRuHlmclK1LJMmn5Gmucs8YrWVO+hERXHJNSqPbT+tApX/1QfZb/TTfdFM2/+OKLLV38+c9/HuXH+2OZJ5970orqq3iqbvXZtq/v8StYVqSSMUnjoXo75bd0lhkIQGCRACK1iIIvEMhHYHZ2Njp5feQjH8m3gjHmqaeeita54YYb2tZ5z3veEy2LL0ie4JMnx3hZ+10nUvusi06ayanTlSa7vj51wpY42GeF1A97ArYn9Xj55Hd7e8uuE19u+2fz7InfzttPSYAkJtl/Ox+XO7tO/LOTCKTlJznbetSWxivRUxkrQVreqd/KTz4HpvJiGq/jS1/6UjSfZPSjH/0oylc/bcpibnkm42qlytahduJxtPlpPLSsU75dj08IQKCVACLVyoM5CGQS+O53vxudlPQXd70ke7VB0hRPv/zlL83KlSujOuP5yRO8Tprxqznxsva75EfrpV29sGV6+bQCYB9utpKUvEITr9OetO1trPgySYnGYZO+x+dtvpWHpCDY5d0+O4lAWn6Sc1rdktM4+279TvJPcvvWt74Vxenqq69uaU5/fJDsj2XRUvBXMyobFzxli5ny41xtTJLilsZDdXTKT+sDeRCAAO+RYhuAQG4C3/zmN6OTVPLh3LwV6C+1JE3Hjx9fXEW3+vRn5zr5xVPyhGpPhsk/TddJ25647Uk07U/gtSxLTNKWW5GKn6wlQ7rqkqzL9kFj0Elc4hHPs0IQP5l3EhKtp6squq0Wr0N1p/Uzzk3fO4lAWn4a52R9EilNNmksumKW1jfVJ/42qYx4iVu8/Lvf/e4o7nZbePrpp6O35Cf7Y7nZ+uKfKitGNql++8cPiJSlwicE3BNoPXq7b48WIBAsAfun4TqBpU3dBvbjH/84+vNyiZPq+uM//mOzbNmy1BN/8oSquu1JVSdmrW/7E5cTXQmShEhkbBmVV33xcsm+WlGL1y1ZUF1xAdBtNUmBltn61Zb6ZlOyjG3fXtmy5TqJlJbrKo7ajrdj68kah9ZNE6ZO+UnOmo+z0/ckO41PfVO+5WXHZJ8Rs/laX2WTfZZAaTvQ6zDEUZ+SatWpZ6hssjG38/FPuyzelm6LJrna2Cb70AuneLt8hwAEWgkgUq08mINARwI68WRNHVeMLfjFL34RvaNHJ0/VpROqrTNWLDVPy3US1wnUTmm32SQ+OqFLXGw5rdctqS6Vt+tJyuISZddXnpbZcmor7QqV8rPaVx2aOiXbjq1Dn3nGkcZTbaTlJ/NUv+23HV9ybKpLfZOY2LLxMai85ZjGxpZVHWL++c9/3vzkJz+JsiVS+qs+m9SG6uqU7HKVsSyTXFVG49RnPCXHbpd1yrfL+YQABFoJIFKtPJiDAAQg4JzAq6++2taGBEYipfdMkSAAgXAIIFLhxIqeQgACNSEgadJrL+zVHytReo6OBAEIhEUAkQorXvQWAhCoAQGJk/7yU7d49ZecEih7a64Gw2MIEGgUAUSqUeFmsBCAAAQgAAEIFEkAkSqSJnVBAAIQgAAEINAoAohUo8LNYCEAAQhAAAIQKJIAIlUkTeqCAAQgAAEIQKBRBBovUkuWLDGnn3569HI8vSCPCQZsA2wDbANsA2wD+bYBnUM/85nPNEqckoNtvEjpJzu+8IUvmIcffpgJBmwDbANsA2wDbAM9bAOnnXYaIpU0q6bNr1692szPzzdt2IwXAhCAAAQgMDCBdevWme985zsD1xNyBY2/IoVIhbz50ncIQAACEKiSACJlDCLFFakq90HahgAEIACBgAkgUoiU4YpUwHswXYcABCAAgUoJIFKIFCJV6S5I4xCAAAQgEDIBRAqRQqRC3oPpOwQgAAEIVEoAkUKkEKlKd0EahwAEIACBkAkgUogUIhXyHkzfIQABCECgUgKIlMcideLECXPrrbeaiy++2IyPj5uZmZmOG8v09LTZvHmzGRkZMeeff745dOhQx7LJBTxsniTCPAQgAAEIQCAfAUTKY5GSDG3YsMHs3LnTjI6OmqmpqdSofuhDH4p+1uWuu+4yhw8fjoQLkUpFRSYEIAABCECgUAKIlMciFY/01q1bU0Xqn/7pn8zQ0JA5duxYvHhP37ki1RMuCkMAAhCAAAQWCSBSgYvUli1bzMTEhHnllVfMY489ZhYWFhaDm/cLIpWXFOUgAAEIQAACrQQQqcBFSj+WODk5Gd3aGxsbi65O6Xmqffv2tUb6V3Ozs7PRjyvql6rtdPLJJ/Nbe6m0yIQABCAAAQhkE0CkAheppUuXRhJ15513RpE+evSoWbNmjdm1a1dq5CVSF1xwQcu0ZMmSwkXq8WdeMuf8v+9UMqUOnEwIQAACEICAAwKIVOAideaZZ5qVK1e2bBof//jHjQKbN7m4tSeRGt39YOnTuusO5B025SAAAQhAAAIDE0CkAhepP/uzPzOSqXi64447otcgxPOyviNSWXRYBgEIQAACEOhMAJEKXKS+/OUvR89FHTlyZDHKb3vb26IH0BczunxBpLoAYjEEIAABCECgAwFEynOR0msP9PC4XrSph8n1XQ+Xx9OOHTsimdKLO1etWmVOPfVUo2el8iZEKi8pykEAAhCAAARaCSBSnouUXsKZnNLecL53715z4403Ri/jfO6551qj3GUOkeoCiMUQgAAEIACBDgQQKc9FqkPcCs1GpArFSWUQgAAEINAgAogUIuXkR4v5q70GHUUYKgQgAIEGE0CkEClEqsEHAIYOAQhAAAKDEUCkEClEarB9iLUhAAEIQKDBBBApRAqRavABgKFDAAIQgMBgBBApRAqRGmwfYm0IQAACEGgwAUQKkUKkGnwAYOgQgAAEIDAYAUQKkUKkBtuHWBsCEIAABBpMAJFCpBCpBh8AGDoEIAABCAxGAJFCpBCpwfYh1oYABCAAgQYTQKQQKUSqwQcAhg4BCEAAAoMRQKQQKURqsH2ItSEAAQhAoMEEEClECpFq8AGAoUMAAhCAwGAEEClECpEabB9ibQhAAAIQaDABRAqRQqQafABg6BCAAAQgMBgBRAqRQqQG24dYGwIQgAAEGkwAkUKkEKkGHwAYOgQgAAEIDEYAkUKkEKnB9iHWhgAEIACBBhNApBApRKrBBwCGDgEIQAACgxFApBApRGqwfYi1IQABCECgwQQQKUQKkWrwAYChQwACEIDAYAQQKUQKkRpsH2JtCEAAAhBoMAFECpFCpBp8AGDoEIAABCAwGAFECpFCpAbbh1gbAhCAAAQaTACRQqQQqQYfABg6BCAAAQgMRgCR8likTpw4Yaanp8327dvN+Pi4mZmZyYz2oUOHonKTk5OZ5ZILV69ebebn55PZA80//sxLZnT3g6VP6647MFC/WRkCEIAABCDQCwFEymORkhht3brVSIxGR0fN1NRUx9hKusbGxszw8HC0TseCKQsQqRQoZEEAAhCAAARyEECkPBapePwkVFkiJdnSpHKaekmIVC+0KAsBCEAAAhB4gwAiVQOR0pUrXYnSVSlEilt7b+zefIMABCAAAdcEEKkaiJRu++3bty/aVrqJ1OzsrLn++utbppNOOolnpFzvadQPAQhAAAK1JIBIBS5Sut23bdu2xY0zj0jt2rXLxKelS5ciUosE+QIBCEAAAhDITwCRClikFhYWzNDQkLn//vvN4cOHo2njxo1Gk+Z1qy9P4hmpPJQoAwEIQAACEGgngEgFLFJ6Nkoi1WnS8jwJkcpDiTIQgAAEIACBdgKIVMAi1R5Ow8PmvEcqbbMgDwIQgAAEHBFApDwXKT3zpJdxjoyMRO+J0vesF252e0YqbTviilQaFfIgAAEIQAAC3QkgUp6LlG7PJae5ubmOkdWyrOVpKyJSaVTIgwAEIAABCHQngEh5LlLdQzh4CURqcIbUAAEIQAACzSSASCFS/GhxM/d9Rg0BCEAAAgUQQKQQKUSqgB2JKiAAAQhAoJkEEClECpFq5r7PqCEAAQhAoAACiBQihUgVsCNRBQQgAAEINJMAIoVIIVLN3PcZNQQgAAEIFEAAkUKkEKkCdiSqgAAEIACBZhJApBApRKqZ+z6jhgAEIACBAgggUogUIlXAjkQVEIAABCDQTAKIFCKFSDVz32fUEIAABCBQAAFECpFCpArYkagCAhCAAASaSQCRQqQQqWbu+4waAhCAAAQKIIBIIVKIVAE7ElVAAAIQgEAzCSBSiBQi1cx9n1FDAAIQgEABBBApRAqRKmBHogoIQAACEGgmAUQKkUKkmrnvM2oIQAACECiAACKFSCFSBexIVAEBCEAAAs0kgEghUohUM/d9Rg0BCEAAAgUQQKQQKUSqgB2JKiAAAQhAoJkEEClECpFq5r7PqCEAAQhAoAACiBQihUgVsCNRBQQgAAEINJMAIoVIIVLN3PcZNQQgAAEIFEAAkUKkEKkCdiSqgAAEIACBZhJApBApRKqZ+z6jhgAEIACBAgggUogUIlXAjkQVEIAABCDQTAKIlMcitbCwYKanp834+Hg0zczMtG2ljzzyiLnmmmvMGWecYdauXWsmJibMAw880FYuK2P16tVmfn4+q0jPyx5/5iUzuvvB0qd11x3oua+sAAEIQAACEOiXACLlsUjNzc2ZrVu3mqmpKTM6Ohp9JgMtydqzZ4959tlnzZNPPhmJ18jIiNG6eRMilZcU5SAAAQhAAAKtBBApj0UqHiorVPG8tO+HDh0yQ0ND5vbbb09bnJqHSKViIRMCEIAABCDQlQAiVTOROn78eCRSe/fu7Rp8WwCRsiT4hAAEIAABCPRGAJGqmUjdfPPN0fNUr776auqWMDs7ayYnJ1umpUuX8oxUKi0yIQABCEAAAtkEEKkaidQdd9wRXY06duxYx6hLpK6++uqW6aSTTkKkOhJjAQQgAAEIQKAzAUSqJiJ17733RhKlz14Tt/Z6JUZ5CEAAAhCAwOsEEKkaiNRdd93Vt0RpM0CkOBxAAAIQgAAE+iOASAUuUnrPlP5Kr58rUXaTQaQsCT4hAAEIQAACvRFApDwXKUlSctKrEGxKLrPzEqy8CZHKS4pyEIAABCAAgVYCiJTnIqX3QiWn+Ms2k8vi862h7jyHSHVmwxIIQAACEIBAFgFEynORygpeUcsQqaJIUg8EIAABCDSNACKFSPGwedP2esYLAQhAAAKFEUCkEClEqrDdiYogAAEIQKBpBBApRAqRatpez3ghAAEIQKAwAogUIoVIFbY7UREEIAABCDSNACKFSCFSTdvrGS8EIAABCBRGAJFCpBCpwnYnKoIABCAAgaYRQKQQKUSqaXs944UABCAAgcIIIFKIFCJV2O5ERRCAAAQg0DQCiBQihUg1ba9nvBCAAAQgUBgBRAqRQqQK252oCAIQgAAEmkYAkXIkUhdeeKE5cOBAENsTPxETRJjoJAQgAAEIeEgAkXIkUpdccokZGhoy69evN3/3d39nnn76aQ/D/3qXEClvQ0PHIAABCEDAcwKIlCORsnG/6aabzNjYWCRVO3bsMPfee69d5M0nIuVNKOgIBCAAAQgERgCRcixSdnv41re+ZbZt27Z4lWp6etouqvwTkao8BHQAAhCAAAQCJYBIlSRSX/3qV8273vWuSKQ+9rGPmU2bNpnx8XHz4x//uPJNB5GqPAR0AAIQgAAEAiWASDkUqbm5OfPRj340kqfTTjvN6DbfK6+8srip6KrUJz7xicX5qr4gUlWRp10IQAACEAidACLlSKR0tUkPm+vza1/7Wup2cujQoWh56sISMxGpEmHTFAQgAAEI1IoAIuVIpC666CJz5MiRIDYWRCqIMNFJCEAAAhDwkAAi5UikPIx1xy4hUh3RsAACEIAABCCQSQCRciRS+gu9mZmZNvjK0zKfEiLlUzToCwQgAAEIhEQAkXIkUno+6sSJE23bwsLCghkeHm7LrzIDkaqSPm1DAAIQgEDIBBAphyIlaUom/SUfIvWgGd3tZlp3XRg/y5PcLpiHAAQgAIEwCSBSjkRq69atZmpqqm2rUB639txIlOQMkWrb5MiAAAQgAAGHBBApRyKlVxvo9t727duN3helSd+Vp6tSPiVu7fkUDfoCAQhAAAIhEUCkHImUNgIJk64+jY6ORpO+9yJRujV4+eWXR++akoClXeFSO/r9Pr0pXWX02evv+SFSIe2y9BUCEIAABHwigEg5FKlBA21FTAK1YcOGVJH6wQ9+EAnUV77ylag5fUqolJ83IVJ5SVEOAhCAAAQg0EoAkfJYpOKh6vTM1bXXXtv2dvTNmzcb5edNiFReUpSDAAQgAAEItBJApByJlK4m2Z+J0RWi+CQp6jV1Eqm3v/3t5oYbbmipTs9jKT9vQqTykqIcBCAAAQhAoJUAIuVIpCQ+eiZKD50np16ek7Lh6iRSa9euNffcc48tFn1KpJSflmZnZ6MfUtaPKdtpyZIlZn5+Pq1433mPP/OSs1ccZL06gb/a6ztkrAgBCEAAAn0QQKQciZSuQKW9R6qPGEWrdBKppUuXmoceeqilWomU8tOSROpv//ZvW6aTTz4ZkUqDRR4EIAABCECgCwFEypFI6S/1dCWqqNRJpM4880xz2223tTQjkVJ+3sStvbykKAcBCEAAAhBoJYBIORIp3b6T/PRzG681RK/PdRKpiYkJs2PHjpZVNK/8vAmRykuKchCAAAQgAIFWAoiUI5GS+MQfMI9/17JeUyeR2r9/f9SOvfqlT7Wl/LwJkcpLinIQgAAEIACBVgKIlCOR0pWo5EPmdr6Xq1RxAbPfkyKmW3nLly+P/kpQn5rvJSFSvdCiLAQgAAEIQOANAoiUI5F6A/Fg36x8xT/TROzo0aORQOmz14RI9UqM8hCAAAQgAIHXCSBSDkUq/hMvVn5mZmYKfQi9iA0ZkSqCInVAAAIQgEATCSBSjkRKV5B0K27nzp3R7+xpXkkipfdL+ZQQKZ+iQV8gAAEIQCAkAoiUI5HSb+Pt2bMn2hb0TJMVKV2lGh4e9mobQaS8CgedgQAEIACBgAggUo5ESlejTpw4EW0KSZHSMp8SIuVTNOgLBCAAAQiERACRciRSuiK1b9++aFuIi5Ru7SX/6q7qDQaRqjoCtA8BCEAAAqESQKQciZRu623cuNHcf//9kThJqu6++24zMjISPSfl0waDSPkUDfoCAQhAAAIhEUCkHImUNoKpqam2l3Iqz7eESPkWEfoDAQhAAAKhEECkHIqU3QjsO6DsvG+fiJRvEaE/EIAABCAQCgFEqgSR8n1jQKR8jxD9gwAEIAABXwkgUo5EanJyMvrJlvHx8bZPLfMpIVI+RYO+QAACEIBASAQQKUcipb/O0/NQ8Ul/ycfD5g+a0d3upnXXHQhp/6OvEIAABCAQOAFEypFIddouJFZckUKkOm0f5EMgjcCLP3/NVDWl9Yc8CEDgDQKIVMkipQfPdVXKp8StPZ+iQV8g0E7g3Z/7rtMruZ2uEt/3/WfbO0MOBCDQQgCRKlmk9D6p0dHRliBUPYNIVR0B2odANgFEKpsPSyFQJQFEypFI6Rmp6enplmn79u3Re6V8e5cUIlXlLkjbEOhOAJHqzogSEKiKACLlSKT0HJR+CiY+KU+C5VtCpHyLCP2BQCsBRKqVB3MQ8IkAIuVIpHwKcre+IFLdCLEcAtUSQKSq5U/rEMgigEghUgaRytpFWAaB6gkgUtXHgB5AoBMBRMqRSOlFnENDQ10nlas6IVJVR4D2IZBNAJHK5sNSCFRJAJFyJFJ6zcH69evNu971LrNnz55o0nfl2d/es59VbgBqG5GqOgK0D4FsAohUNh+WQqBKAoiUI5E699xzzd/8zd+0xfbTn/600TKfEiLlUzToCwTaCSBS7UzIgYAvBBApRyK1fPnyjjHOWtZxJYcLECmHcKkaAgUQQKQKgEgVEHBEAJFyJFK6haf3SCWT8rTMp4RI+RQN+gKBdgKIVDsTciDgCwFEypFI3XnnndGD5meddZa5+OKLo0nf9QC6lvmUECmfokFfINBOAJFqZ0IOBHwhgEg5EikFeO/evWbLli3mlFNOMaeeeqqZmJgw+/fvdxZ7PbzeT0Kk+qHGOhAojwAiVR5rWoJArwQQKYci1Wsw+in/8ssvmwsvvNCsWrUqutp12mmnmU9+8pM9VYVI9YSLwhAonQAiVTpyGoRAbgKIlEOROnHihLn11lujZ6UWFhaioMzNzRn7PXeUMgrqmas1a9aYJ554Iir1ve99LxKqtOezOlWDSHUiQz4E/CCASPkRB3oBgTQCiJQjkZIwjYyMmA0bNpjh4eHo3VEKgN4ptW3btrRY9JWnF3ompUl5vbzoE5HqCz0rQaA0AohUaahpCAI9E0CkHImUZGlqaioKiH642D6/JMEaHR3tOVCdVvjiF79o/uAP/sA8+eSTURG1owfalZ83IVJ5SVEOAtUQQKSq4U6rEMhDAJFyJFKSGd3aU4qLlPK0rMh0yy23mKVLl0ZXocbGxszdd9/dsfrZ2Vnz/ve/v2VasmSJmZ+f77hOPwsef+YlM7r7wdKnddcd6Ke7Qa/z7EuvmqqmoMEF1HlEKqBg0dXGEUCkHImUrjrp6pNSXKT27dsXzRe1pR04cMC85S1vMXpjuq5G/fVf/7XZtGmTOXjwYGoTEik9txWfli1bhkil0goj84qvzZcurJLk6QdevwoaBqWwe4lIhR0/el9vAoiUI5GanJw0GzdujB4styIlsVKeveVXxKalVyokn4fSvPLzJm7t5SXlZzlEys+4FNkrRKpImtQFgWIJIFKOREph0nNSuo0Xn4p80Fxt6IF2vfAznjSv/LwJkcpLys9yiJSfcSmyV4hUkTSpCwLFEkCkHIqUQqWrUDMzM9Fkb/UVGUJdeVIQjx8/HlWrT81zRapIyn7XhUj5HerringAACAASURBVJ8ieodIFUGROiDghgAi5UikdBWqyPdFZYVfv92n9nRLT5+9/pYfV6Sy6Pq/DJHyP0aD9hCRGpQg60PAHQFEypFI6WFz+8oDd+F7o2a1Zac3cvN9Q6TycfK1FCLla2SK6xciVRxLaoJA0QQQKUcipb/O08s4y7oqNciGgUgNQq/6dRGp6mPgugeIlGvC1A+B/gkgUo5ESn+pF3/IPP5dy3xKiJRP0ei9L4hU78xCWwORCi1i9LdJBBApRyKlB8vtrbbkp4uHzgfZaBGpQehVvy4iVX0MXPcAkXJNmPoh0D8BRKpAkdLD3pImJStP/YemvDURqfJYu2gJkXJB1a86ESm/4kFvIBAngEg5Eqm4VMWB+/gdkfIxKvn7hEjlZxVqSUQq1MjR7yYQQKQKFKkrr7zSTE9PR1ejrEjZK1PJT582LkTKp2j03hdEqndmoa2BSIUWMfrbJAKIVIEidf/995sPf/jD5pRTTun4oLl935NPGxki5VM0eu8LItU7s9DWQKRCixj9bRIBRKpAkYpvOPaKVDzP1++IlK+RydcvRCofp5BLIVIhR4++150AIuVIpOytvBA2IEQqhCh17iMi1ZlNXZYgUnWJJOOoIwFEypFIhbSxIFIhRau9r4hUO5O65SBSdYso46kTAUQKkTKIVNi7NCIVdvzy9B6RykOJMhCohgAihUghUtXse4W1ikgVhtLbihApb0NDxyBgEClECpEK/ECASAUewBzdR6RyQKIIBCoigEghUohURTtfUc0iUkWR9LceRMrf2NAzCCBSBYrUueeeazZv3tx1esc73uHVlsczUl6Fo+fOIFI9IwtuBUQquJDR4QYRQKQKFKmbbrrJ5J182sYQKZ+i0XtfEKnemYW2BiIVWsTob5MIIFIFilSoGw4iFWrkXu83IhV2/PL0HpHKQ4kyEKiGACKFSPGMVDX7XmGtIlKFofS2IkTK29DQMQjwV3umQJHSM1KrVq3qOvGM1INmdLebad11Bxq3WyNS9Q85IlX/GDPCcAlwRapAkbrvvvtM3smnTYZbez5Fo/e+IFK9MwttDUQqtIjR3yYRQKQKFKlQNxxEKtTIvd5vRCrs+OXpPSKVhxJlIFANAUTKoUidOHHC3HrrrWZ6ejqa9N3HhEj5GJX8fUKk8rMKtSQiFWrk6HcTCCBSjkRqYWHBjI2NmeHhYbN169Zo0nflaZlPCZHyKRq99wWR6p1ZaGsgUqFFjP42iQAi5Uiktm3bZnbu3Gl0VcomfVeelvmUECmfotF7XxCp3pmFtgYiFVrE6G+TCCBSjkRKV5/SrjzNzc1FV6lcbGQStWPHjvVcNSLVMzKvVkCkvAqHk84gUk6wUikECiGASDkSqdHRUSNpSqZDhw4ZLSsyvfDCC+YDH/iAGRoaiqbf//3fN2onb0Kk8pLysxwi5WdciuwVIlUkTeqCQLEEEClHIjU5OWk2btzYIjSSG+VpWVHptddeM2effba57LLLzPHjx6NqdSUMkSqKsP/1IFL+x2jQHiJSgxJkfQi4I4BIORIp3WbTs1D2KpH9TD43NWhob7zxxugB9ldeeaXvqrgi1Tc6L1ZEpLwIg9NOIFJO8VI5BAYigEg5EildEZJM6faevmtKe2ZqoOgZY8455xxzwQUXmIcfftjcfPPNZmZmxvzkJz/pqVpEqidc3hVGpLwLSeEdQqQKR0qFECiMACLlSKR0BcqFOCUjr5+k0Xuq1q9fby6//HLz3ve+16xduzYSqmRZzc/Ozpo/+ZM/aZmWLFli5ufn04r3nff4My85+xmYrJ+X4Sdi3Pz0Thrz6Qee7Hv7YMXeCCBSvfGiNATKJIBIORIpPVC+b98+57EcGRmJbh8+/vjji22Nj4+biYmJxfn4F4mUrlrFp+XLlyNScUiBfeeKVGAB66O7iFQf0FgFAiURQKQciZRu5elFnPp0mfTw+lvf+taWJu644w4jwcqbuLWXl5Sf5RApP+NSZK8QqSJpUhcEiiWASDkSKUmUfcA8+allRaVLLrnErFy5sqW6j3/840aBzZsQqbyk/CyHSPkZlyJ7hUgVSZO6IFAsAUTKkUjFHzK3D5vbz7T3S/Ub1oMHD0bCplt1SkePHjVr1qwxu3btyl0lIpUblZcFESkvw1JopxCpQnFSGQQKJYBIORKpQqPUpTI9bK6rXvodP31qvpeESPVCy7+yiJR/MSm6R4hU0USpDwLFEUCkaiBS2hyef/55c+TIkb7+UhCRKm6HqqImRKoK6uW2iUiVy5vWINALAUSqJiLVS9CTZRGpJJGw5hGpsOLVT28RqX6osQ4EyiGASCFSBpEqZ2dz1Qoi5YqsP/UiUv7Egp5AIEkAkUKkEKnkXhHYPCIVWMD66C4i1Qc0VoFASQQQKUQKkSppZ3PVDCLliqw/9SJS/sSCnkAgSQCRQqQQqeReEdg8IhVYwProLiLVBzRWgUBJBBApRAqRKmlnc9UMIuWKrD/1IlL+xIKeQCBJAJFCpBCp5F4R2DwiFVjA+uguItUHNFaBQEkEEClECpEqaWdz1Qwi5YqsP/UiUv7Egp5AIEkAkUKkEKnkXhHYPCIVWMD66C4i1Qc0VoFASQQQKUQKkSppZ3PVDCLliqw/9SJS/sSCnkAgSQCRQqQQqeReEdg8IhVYwProLiLVBzRWgUBJBBApRAqRKmlnc9UMIuWKrD/1IlL+xIKeQCBJAJFCpBCp5F4R2DwiFVjA+uguItUHNFaBQEkEEClECpEqaWdz1Qwi5YqsP/UiUv7Egp5AIEkAkUKkEKnkXhHYPCIVWMD66C4i1Qc0VoFASQQQKUQKkSppZ3PVDCLliqw/9SJS/sSCnkAgSQCRQqQQqeReEdg8IhVYwProLiLVBzRWgUBJBBApRAqRKmlnc9UMIuWKrD/1IlL+xIKeQCBJAJFCpBCp5F4R2DwiFVjA+uguItUHNFaBQEkEEClECpEqaWdz1Qwi5YqsP/UiUv7Egp5AIEkAkUKkEKnkXhHYPCIVWMD66C4i1Qc0VoFASQQQKUQKkSppZ3PVDCLliqw/9SJS/sSCnkAgSQCRQqQQqeReEdg8IhVYwProLiLVBzRWgUBJBBApRAqRKmlnc9UMIuWKrD/1IlL+xIKeQCBJAJFCpBCp5F4R2DwiFVjA+uguItUHNFaBQEkEEKkaidSePXvM0NCQ2bp1a0+bz+rVq838/HxP63Qr/PgzL5nR3Q+WPq277kC3rtVuOSJVu5C2DQiRakNCBgS8IYBI1USkFhYWzOjoaDQhUt7sX6V0BJEqBXOljSBSleKncQhkEkCkaiJSkiddkdInIpW5zdduISJVu5C2DQiRakNCBgS8IYBI1UCkrEBpq0KkuLVX1i3V6Qee9OZAVveOIFJ1jzDjC5kAIhW4SOmW3sjIiJmbm4u2w24iNTs7a84555yWacmSJTwjFfBezBWpgIOXs+uIVE5QFINABQQQqcBFSuI0NTW1uOnkEan77rvPxKcVK1YgUosEw/uCSIUXs157jEj1SozyECiPACIVsEjpKpT+Sm96enpxGhsbM5qUp6tVeRJ/tZeHkr9lECl/Y1NUzxCpokhSDwSKJ4BIBS5S9gqU/RweHjaaNG9v93XbbBCpboT8Xo5I+R2fInqHSBVBkTog4IYAIhWwSKVtElao0pZ1ykOkOpEJIx+RCiNOg/QSkRqEHutCwC0BRAqR4s3mbvcx57UjUs4RV94AIlV5COgABDoSQKRqJlIdI52xgCtSGXACWIRIBRCkAbuISA0IkNUh4JAAIoVIcUXK4Q5WRtWIVBmUq20DkaqWP61DIIsAIoVIIVJZe0gAyxCpAII0YBcRqQEBsjoEHBJApBApRMrhDlZG1YhUGZSrbQORqpY/rUMgiwAihUghUll7SADLEKkAgjRgFxGpAQGyOgQcEkCkEClEyuEOVkbViFQZlKttA5Gqlj+tQyCLACKFSCFSWXtIAMsQqQCCNGAXEakBAbI6BBwSQKQQKUTK4Q5WRtWIVBmUq20DkaqWP61DIIsAIoVIIVJZe0gAyxCpAII0YBcRqQEBsjoEHBJApBApRMrhDlZG1YhUGZSrbQORqpY/rUMgiwAihUghUll7SADLEKkAgjRgFxGpAQGyOgQcEkCkEClEyuEOVkbViFQZlKttA5Gqlj+tQyCLACKFSCFSWXtIAMsQqQCCNGAXEakBAbI6BBwSQKQQKUTK4Q5WRtWIVBmUq20DkaqWP61DIIsAIoVIIVJZe0gAyxCpAII0YBcRqQEBsjoEHBJApBApRMrhDlZG1YhUGZSrbQORqpY/rUMgiwAihUghUll7SADLEKkAgjRgFxGpAQGyOgQcEkCkEClEyuEOVkbViFQZlKttA5Gqlj+tQyCLACKFSCFSWXtIAMsQqQCCNGAXEakBAbI6BBwSQKQQKUTK4Q5WRtWIVBmUq20DkaqWP61DIIsAIoVIIVJZe0gAyxCpAII0YBcRqQEBsjoEHBJApBApRMrhDlZG1YhUGZSrbQORqpY/rUMgiwAihUghUll7SADLEKkAgjRgFxGpAQGyOgQcEkCkEClEyuEOVkbViFQZlKttA5Gqlj+tQyCLACKFSCFSWXtIAMsQqQCCNGAXEakBAbI6BBwSQKRqIFJPPfWUOXTokHniiSfMq6++2vPmsnr1ajM/P9/zelkrPP7MS2Z094OlT+uuO5DVrVouQ6RqGdaWQSFSLTiYgYBXBBCpwEVqfHzcDA0NmfXr15vR0VHz5je/2UxPT/e0kSFSPeHyrjAi5V1ICu8QIlU4UiqEQGEEEKnAReqiiy4y//7v/764Qdxyyy2RWH37299ezOv2BZHqRsjv5YiU3/EponeIVBEUqQMCbgggUoGLVHKzWFhYiESql6tSiFSSYljziFRY8eqnt4hUP9RYBwLlEECkaiZSjz76aCRS3/zmN3NvQYhUblReFkSkvAxLoZ1CpArFSWUQKJQAIlUzkbr00kvNxz72sY4byezsrDnjjDNapiVLlvCweUdi/i9ApPyP0aA9RKQGJZhv/ccXfmb+5amfVjLl6yGlfCSASNVIpCYmJqKHzp977rmO25pE6uDBgy3TypUrEamOxPxfgEj5H6NBe4hIDUow3/oSqSr+2viMTz+Ur4OU8pIAIlUTkbriiisiiTp+/HjPGxq39npG5tUKiJRX4XDSGUTKCda2ShGpNiRk5CCASNVApHbs2NG3RGkbQaRy7CkeF0GkPA5OQV1DpAoC2aUaRKoLIBanEkCkAhcpK1F6IWdySo14SiYilQIloCxEKqBg9dlVRKpPcD2uhkj1CIziEQFEKnCR0ss40yZef9CcPRyRqn+sEalyYoxIlcO5bq0gUoGLVBEbJFekiqBYXR2IVHXsy2oZkSqHNCJVDue6tYJIIVI8IxX4Xo1IBR7AHN1HpHJAKqAIIlUAxAZWgUghUohU4Ds+IhV4AHN0H5HKAamAIohUARAbWAUihUghUoHv+IhU4AHM0X1EKgekAoogUgVAbGAViBQihUgFvuMjUoEHMEf3EakckAoogkgVALGBVSBSiBQiFfiOj0gFHsAc3UekckAqoAgiVQDEBlaBSCFSiFTgOz4iFXgAc3QfkcoBqYAiiFQBEBtYBSKFSCFSge/4iFTgAczRfUQqB6QCiiBSBUBsYBWIFCKFSAW+4yNSgQcwR/cRqRyQCiiCSBUAsYFVIFKIFCIV+I6PSAUewBzdR6RyQCqgCCJVAMQGVoFIIVKIVOA7PiIVeABzdB+RygGpgCKIVAEQG1gFIoVIIVKB7/iIVOABzNF9RCoHpAKKIFIFQGxgFYgUIoVIBb7jI1KBBzBH9xGpHJAKKIJIFQAxZxUP/fB5U9WUs4u5iyFSiBQilXt38bMgIuVnXIrsFSJVJM3OdSFSndkUvaROxy1ECpFCpIo+QpRcX50OSCWjC6Y5RKqcUCFS5XBWK3U6biFSiBQiVd6xw0lLdTogOQFUg0oRqXKCiEiVw1mt1Om4hUghUohUeccOJy3V6YDkBFANKkWkygkiIlUOZ7VSp+MWIoVIIVLlHTuctFSnA5ITQDWoFJEqJ4iIVDmc1UqdjluIFCKFSJV37HDSUp0OSE4A1aBSRKqcICJS5XBWK3U6biFSiBQiVd6xw0lLdTogOQFUg0oRqXKCiEiVw1mt1Om4hUghUohUeccOJy3V6YDkBFANKkWkygkiIlUOZ7VSp+MWIoVIIVLlHTuctFSnA5ITQDWoFJEqJ4iIVDmc1UqdjluIFCKFSJV37HDSUp0OSE4A1aBSRKqcICJS5XBWK3U6biFSiBQiVd6xw0lLdTogOQFUg0oRqXKCiEiVw1mt1Om4hUghUohUeccOJy3V6YDkBFANKkWkygkiIlUOZ7VSp+MWIlUTkZqbmzPT09NGn72m1atXm/n5+V5Xyyz/+DMvmdHdD5Y+rbvuQGa/6riwTgekOsaniDEhUkVQ7F4HItWdUVEl6nTcQqRqIFISqBUrVpjx8fHoU/O9JESqF1r+la3TAck/un70CJEqJw6IVDmc1UqdjluIVOAitX//fjM0NGSOHTsW7QH61Lzy8yZEKi8pP8vV6YDkJ+Hqe4VIlRMDRKoczmqlTsctRCpwkZqYmDA7duxo2frPO+88o/y8CZHKS8rPcnU6IPlJuPpeIVLlxACRKoezWqnTcQuRClykzjzzTPPZz362ZevXrT3l502IVF5Sfpar0wHJT8LV9wqRKicGiFQ5nNVKnY5biFTgIqVno+67776Wrd8+M9WS+auZ2dlZ8+Y3v7ll+rVf+zWzZs2alrxkmV7nV6wcNkuWrTTLRtaUPvXa17zlR0ZGzCmnnFIop7xtZ5Vb9lv9MT55eJVZsmyFObnPGK34Lf9Y6D8FilMWr9CWaTyKUxX70m+teZMTlhqTj3Fa86a1fXNWjAaJk4/bpWK0atUqJ9tAv8etQfeDpctWmje9qdjt+jd/8zfNZz7zmbRTbmPyhkIeqTb0ffv2tQxBIqX8tPTYY4+Z5DQ1NWW+/OUvt+Uny/Uyv379evP3f//3hdbZS/suykpa9+7dW5sxPfzww9HzdI8++mhtxvSlL33JnHrqqbUZj7bj6667zrzjHe+o1Zguuugi8+d//ue1GtPWrVvN1VdfXasx/d7v/Z657bbbajWmX//1XzcPPPBAoWO6++67jaYmp6BFauPGjeamm25qiZ9ESvlVpnPOOcd8/etfr7ILhbctOf3hD39YeL1VVfjCCy9EIvXLX/6yqi4U3u6//du/GR3865TuvPNO8573vKdOQzLXXHON+dSnPlWrMW3fvj2SjjoN6q1vfav59re/Xachmd/4jd8wzzzzTK3G5MNgghapXbt2Ra89iIPUaxCUX2VCpKqkn69tRCofp6pLIVJVRyBf+4hUPk5Vl0Kk3EQgaJGyrzuYmZmJ6Ogz/joEN8i614pIdWdUdQlEquoI5GsfkcrHqepSiFTVEcjXPiKVj1OvpYIWKQ323nvvNWNjY5FA6VPzVafrr7++drf2NKa63drTmOp2a09jqlOSSNVtTBpPHcek54nqlBSjut3a05i4tVf8Vhq8SFkkhw4dsl/5hAAEIAABCEAAAqUQqI1IlUKLRiAAAQhAAAIQgECMACIVg8FXCEAAAhCAAAQg0AsBRKoXWpSFAAQgAAEIQAACMQKIVAxGEV8XFhbMHXfcYUJ8Zuu1116L+n3LLbcYPeT7xBNPtCHRuNKmtoKeZKT1NS02J06ciF7uqhe86ruvSdvX4cOHUyfb705jTht3leO0Y7H9TuuL+qz9SWXTkm9xm5ubi2KT1tdf/OIX0R/D6F1399xzj3n55ZfbinWKXVvBEjOyxpS3v74dF9VvjSuZ7DaZto/ZsnnHbMu7/vzP//xPo79Y1zsVv/GNb3RsTuPVtpc2brtSnjK2LJ9vEECk3mAx8Df9xaBev7Bp06boDdPJH1QeuAGHFejgcNppp5lly5aZt7/97dHb4X/7t3+77a8gNb7kpJ3T16T3inXr70MPPWROP/10o9+M0l9+6s30x48f93JIehN/cjx23sqGYmnz4p/K9yHpoK8XvNq+pfVLY/nTP/3TaD/SC3ZVNvkXuYqRYqW4aaoybpOTk4vjUV+TycZEP7Nkt8lzzz23bTuzTOKfaXyS9buY7zYmtRnvp/2e7O+ePXuicj4cFzds2LDYZ72NPZk67V+jo6OLRW0s7Xjt52KBEr/o2Kv2ddyy+8lHPvKRth7Yctr29CsVl112WVsZ5WmZ3T59Pq63db7ijPY9vuIOhdr8c889Fx309b9nm3TgCGVj1MFBv5ek9yspvfjii+bCCy+MdtL//u//tkOK5pMHysWFHn7RQSErBj/72c+i31qMl5EAT0xMeDia9C7phLBt27bFhfZAv5jh2Rf1T1f+7Hvf0rYnxSD+HxHFRz9/o/3MJsUo/vJdfa8qbhqLHZdObMmkZf/wD/+wmP3kk09G4vfOd75zMU9ftG4aj5ZCJc3YMVmhSmu2W3+PHj0ajSkuwVUeFyV14ithShOptDFKolTeJq2fFmO7vMxP7Rfxq1C6kqa+6e35Nu3fv78lBvY/IDfffLMtEpWP/0fEXhTQuqTuBNr3+O7rUCKFgDZo/cBlPGlD1cE/1HcV2QNG/MDe7cAZH78P37uJlOKmMdmrOeqzHffBgwd9GEJmH9Rv9T/+m5O2/5krerDQ9jO+fdluaUw6kceT9i/FS0mxSW6Ltr4q42b7EO93p+9224svT44pvqyq7/YqTVr73fqrMZ5xxhktqyqv6uNiXpHSfqUxph0fWgbl0YyOeZps0n8uzjvvPDsbfV5yySUtZTRG5cWT1qnqPybxfoTwHZEqKErJDVPV6kdXkzthQc2VUo090CevSP3lX/5ltBPqUvA///M/l9KXfhvRAUUHTX2m9VdjTAqw2lLckifyfvvgcj2NbXh4uKUJezI///zzowPoVVddZX70ox+1lPFhxvZTn/H07LPPRvyTz+gphvZgr9goRsm0du3aSuNmx5TsV9q8bl2mXZG6+OKLF7dXH24xdxOprP5eeuml5v3vf3/L8C2juJy0FChhJq9I6Upv8sqV7b+2R41Nx5D/+7//K6HX3Zv4r//6L7N8+fKWK1K67a0+xtPnP//56HEGm6d9SXnxpHW0Lqk7gfYjUfd1KJFCQAdF7Vjx9Morr0QH++9973vx7CC+62HYtJ1ry5Yt0U555ZVXRgcY7bTJH472aYCKiQ4IV1xxhfmjP/qjaEzx/mrZ5s2b27qssd9www1t+b5l6LaDbr3Ekw70ui2msel2l26lrF692jvptSckfcaT9hfxf/XVV+PZ0f6l/UxJsVGZZNLzfVXGzY4p2a/k/D/+4z9G/d+7d2/LIru9Xn755YvPvCT5tKxQwkyWSHXrr35wOn6bSd21jKo8LuYRKf0hg7ax5H+o1P+dO3dG+5f2s9/5nd8xf/iHf2ji/+EsISypTXzyk5+Mjmd6ZMGmpUuXRn218/o8cOCAWbJkyWKWxqm8eNLxQ+uSuhNoPxJ1X4cSKQS0QyVFSs9zaAMN7adV9L9gPbwYf0YlZchRlv7HqTG+9NJLnYp4lX/ttde29FcHizPPPLOtjxrT7bff3pbvU0babQf17z/+4z/aunnWWWcZSbBPyZ5Qk6Lwgx/8IIrR888/39Jd7V92m1RsFKNk0nMeVcbNjinZr/i8ff5E2163JDGsOm5ZIpXsf7K/H/jAB9oebLaMqjwu5hEpPU+VvNqr8aZdSdO2uHv37iSOUue1Pakfyeea9AcOyW1NAq//XNmk9ZJSr3W0Lqk7gfYjUfd1KJFCQFcFkiI1Ozsbbdg//elPU9bwM8s+iGhPWN16+ZWvfCUao35AOoRk5db2VweLtP916cDy9a9/3esh6X/F+iukPElXpvQXOT4le0JNitT//M//RNvUkSNHWrqr/ctefVNsFKNkWrlyZaVxs2NK9svO9yJRWkf7V9Vx60Wkkv3VFZL3vve9dvjRp2VU5XExj0jpaq/2sTypyj90UP+sRMUf6rf9Pvvss9tE6sYbbzRve9vbbJFoX1JePKlOrUvqTqD9SNR9HUqkENBf6+nAHv+roquvvjq6rZJS3MusXiVKg9AtPo077SqIj4O0z9bY/loRjD+LYv/KxcqWj+PodNuhU18lIb4972BPqEmR0hj0MPJdd921OBwrwPavYhUbbXfx/31bSakybnZMix2PfbH90wkqb9LzR1XHrReRSvZX8dLV7XjS+HW7ucrUTaT0PiVtX1nvXIr3X2OUTFWRsiRK/VG/kv/JV5w+9KEPLXZX25jy4knrVDWmeD9C+I5IFRglHRz0QLNeHfDoo49GD/3ZA3+BzTipKi5ROhkkJzWqPP2vRWU1Rt1C0c6W3EmddLCPSuP91WsddKleB7xkf3U7QlfgNC49t6HbQ74fQOxth7SXWerAKgnRQ9sak+Z1VUPP3fiQ1Gf9mfatt94anaz0qfn4LRP1VXHQfqR8xSd58lWM7LuYNE59rypu6mN8TPquycYnLlFp+5biYuP29NNPR/8hsyfIquImidAYdIKVVCTHlKe/4qJ1VdaH42J8THrvkh1Tcr/Iutqr18JI4P/3f/83+utR/QGExph8lipZp4t5u41o++q0Xdn/dKiskt0W47fy7DN7WqZk663yPyVRRwL5B5EqMFD2YK4HsPWCR7vhFtiEs6q0E+pgkDZpmZI+JSLxMhdccIGXfxHWS38lWXqWQ3/xpSnvbU1nwchRsW7pdbrtoO0u/sJLxSv5wG+OJpwV6bSt6SpBPOl5Nu1H2p+sMMWX67ti5UPc7FWb+L6h73bfsSem5HLN2+Rb3PTXamn9jY9JVw7jZdK2Mz3ioPj5cFzsNCYbA31KfrX/6D8raUn/EYuP+Xd/93fNbbfdllbUeV6yL7Zfyf8sSpD0nKSW61PilEzKi5exUpUsLBOAVwAABGpJREFUx3w7gTf24vZl5EAAAhCAAAQgAAEIZBBApDLgsAgCEIAABCAAAQhkEUCksuiwDAIQgAAEIAABCGQQQKQy4LAIAhCAAAQgAAEIZBFApLLosAwCEIAABCAAAQhkEECkMuCwCAIQgAAEIAABCGQRQKSy6LAMAhCAAAQgAAEIZBBApDLgsAgCEIAABCAAAQhkEUCksuiwDAIQqISAXk6ZfKlgJR2hUQhAAAJdCCBSXQCxGAIQKJ9APyKlt1bn/W208kdEixCAQF0JIFJ1jSzjgkDDCOjnL+zPlzRs6AwXAhCokAAiVSF8moZAHQnolpyE5qqrrjLnnXeeufTSS83Ro0dbhqrfM9OP8aqsJl2BiqfkFanJycnoR2H1+2d2nfiPxGq5REo/RGuXqz61ox/dtXn6RLbipPkOAQgMSgCRGpQg60MAAi0EJDT6MWErLfpU3iOPPLJYTj+6rElSs2/fPjM8PGwkQzYlRUq37fRDsiqjdSRU8StQuqWneeVruZWlbdu2GU02T/Kl9kgQgAAEiiKASBVFknogAIGIgITm7LPPbqFx+umnm/e9731RnkRGZRYWFhbLSHTieWkiJfGKJ8nV1NTUYpbWtwJlMyVoiJOlwScEIOCCACLlgip1QqDBBCQ01157bQuB888/34yNjUV5kh9JUDLFRShNpOLSpHV1dUpXm2yKr2/zVEZXsnR77+67726RN1uGTwhAAAKDEECkBqHHuhCAQBsBCc0999zTkv+pT33KrFixIsrLEil79SiPSCXrSRMpNairVBIqXdGSVNk2WjrIDAQgAIE+CSBSfYJjNQhAIJ2AhEYPmcfTpk2bzJYtW6IsPcckodGD4DbpNp/Ws68v6EekRkdHu0qShCrtapjtB58QgAAEeiWASPVKjPIQgEAmAQnRWWedZa6//vqonKRIeXv37o3mJVB6dkm325Q0r7+2iwtOPyKl23zbt283hw8fjibVrYfLrbDpU8vjtwOjDvAPBCAAgQEIIFIDwGNVCECgnYCkSbfTzj33XLN8+XKzfv16c+edd7YU1JUn3WpTWU2SKCs8KtiPSKlOSZIkTXUqqV7bRlo7LZ1iBgIQgEAfBBCpPqCxCgQg0JmAhCX513OdS7MEAhCAQNgEEKmw40fvIeAdAUTKu5DQIQhAwCEBRMohXKqGQBMJ2BdxNnHsjBkCEGgeAUSqeTFnxBCAAAQgAAEIFEQAkSoIJNVAAAIQgAAEINA8AohU82LOiCEAAQhAAAIQKIgAIlUQSKqBAAQgAAEIQKB5BBCp5sWcEUMAAhCAAAQgUBABRKogkFQDAQhAAAIQgEDzCCBSzYs5I4YABCAAAQhAoCACiFRBIKkGAhCAAAQgAIHmEUCkmhdzRgwBCEAAAhCAQEEEEKmCQFINBCAAAQhAAALNI4BINS/mjBgCEIAABCAAgYIIIFIFgaQaCEAAAhCAAASaRwCRal7MGTEEIAABCEAAAgURQKQKAkk1EIAABCAAAQg0j8D/B8rzuhKBhdZKAAAAAElFTkSuQmCC;" vertex="1" parent="1">
          <mxGeometry x="261.46" y="773.97" width="275.88" height="182.06" as="geometry" />
        </mxCell>
        <mxCell id="9fY33cOpb0TvVjGmPDQJ-12" value="" style="shape=image;verticalLabelPosition=bottom;labelBackgroundColor=#ffffff;verticalAlign=top;aspect=fixed;imageAspect=0;image=data:image/png,iVBORw0KGgoAAAANSUhEUgAAAZMAAAEaCAYAAADUo7pxAAAgAElEQVR4Ae2dfYwV1f3/958majUQW0XRukTsVksDKFQS5KtgXR9rResWEBUMrVp8AKPttrYWrJBWRUFS2wJapFBMllSwoBWphaIUtCih4EYFg+TnU9cKjYK2//T88j70DHNn7717Ljt77z0zr5PMzsyZz5yH1+fsed9z5qnBECAAAQhAAALdJNDQzfM5HQIQgAAEIGAQExoBBCAAAQh0mwBi0m2EJAABCEAAAogJbQACEIAABLpNADHpNkISgAAEIAABxIQ2AAEIQAAC3SaAmHQbIQlAAAIQgABiQhuAAAQgAIFuE0BMuo2QBCAAAQhAADGhDUAAAhCAQLcJICbdRkgCxQisXbvWbNmypdihsnEjR46Mjmtb6WQ1lKuf6h1nkVUG1Cs7BBCT7PiyLmoye/Zs09DQYBobG80555xTcZl0rgvlOltnE/K6XP18xSTOK2QWlD18Agf/c8OvCzWoAwK7du2ypVBn6CsmmzdvNm+99ZY9L945Kg0t8aDRzrp168zevXvj0XZf8S7/goOxHZ0nu3Jp6FgyqBzJkZbycnE6Hi9TMftkmk5MlM7OnTsLDut8LS7Ey+3qqLzFq1h9HCd3fnz9+uuvm1dffdVGxfPROUpbS5yBS8vl69Jy537wwQe2rForfPjhh+bFF190ZqxzQgAxyYmjq11NdTQ+YtLS0mKGDRtmRo0aZSZPnmw7R1dWdZSuQ1VHNnjwYDNo0CAzYcIEO/JxdtOmTbP7l112mV1rdFQsqFPUiEl2yTR0Tq9evewxlVtpKuicfv362XjlrTI40ZCNjrlRmGy19O7dO7KXYDj7ZJl07Ac/+IHp06ePGTBggGWwf/9+a6Z667iC6u7SjJd7ypQplpfKq0V5Ky+dp7KqnqqT4l2YOHGiOfroo43WYh9nrDQcY20rKA1tu3wdFx1TPtOnT7dpDBw40BxxxBFm27Zt5m9/+5uti7j88Y9/dFmzzjgBxCTjDq5V9XzE5LnnnrMdmivjgw8+WFJM1KHFOzJ3jvJRp+U6bK3VgSZ/Rcte5xdLQ7bJTtelr840fo4TIpeeznN5K05lcQKofXXCpcRNnfG4cePMRx99ZLP71re+FXX8cTFR/hKOYiE+ktNx5eWEwO1LIBQ6OjrMiSeeaLf15/nnn+8kJvFzI8P/baieys/VV+U/9dRTjUaWChKo0047zThBbG1ttWKZTIf9bBJATLLp15rXykdM1EE+/PDDUVm3b99eUkzUiZUSCHWW+oXsFo0W4h26y2D58uVWNKZOnWpWrFjhojt1wNEBY2x54r/s4/VSJx/vfGWncrpyaD169Gj76z6epttWZ7xw4UK3G52niLiYaFui5crtOnPZJcVE5UmKl7Npa2srEG9NS+mYY6Vz48Kp9MVcIqGyatEIydlr/9Zbby0o/y233BLtx+sQRbKRWQKISWZdW9uKqSOJd7TFSnPzzTebBQsWRId27NhR0DnGOzptxztRd5I6P/36V37xpZitzlGHr842PmWV/DXv0tZa+SbFROcqFBMTdfrxcmg7fn48bXXGOu6CEyHtK17HXVCn7sopsXT1U/niQczjAqVjjt2hiInqIxF2+anurswqn8rsQrz8ikvWwdmxziaBwpaYzTpSqxoQUEfSlZg89dRT9levK94vf/nLkmKi6aNkJ6nzFKfO9VCC6xjV2Senq1x6mtaK5ysBUZxCUkwUp3RKiYdL060rERN3jtbi6jr0ZH4a7UlcXZCd2CloJPKFL3zBHSo6zaU6uaBzNRJxQYImYXJ5IyaODGsRQExoB6kSUEeqTkZTT+qItF1qvv9f//qXvfB88cUX2+kXd0HYFSjecbkOX1M9bvrI2alzdx2bjmm7WJCdO1/r+LUWdcDx6TInIK4zlr0Wdd5uuq2YmOg8pevy0RRRctrJlU3ldB2z4uK/7BXv6qHzlY6OJ8ugcru6q1waQcTzlw80snBB6bgL8BdeeGGBOEik4mKic5SWpuqUt8RX+67MLl+Xdrz8iovXwdmwzi4BxCS7vq1JzdSZqROJL+V+qes6yaxZs6Jf/66jUuFdGq4i6izVWavDS6apfXW6WpLHip2vdNzUjTseT8MJho65fJPnKL5YXs5e5YzXx+Xj1sn6xffj2yqnBEHpJcugtJytq4+zF4t4PVy+ujVY3BUk2O+8847dVl2S9krLcdW2bFw+Ll+Xblf7zo51NgkgJtn0K7WCQFECc+fONbo2pY5fIwvdkkyAQBoEEJM0KJIGBAIhoKlEPdOjqUVNSxEgkBYBxCQtkqQDAQhAIMcEEJMcO5+qQwACEEiLQCbE5O2337YPoW3dutWwwIA2QBugDRS2AT2ku2nTprR0o2g6mRETvRvorrvuYoEBbYA2QBtItIEzzzwTMSkqgYlIPa9w7bXXJmLZhQAEIAABEdBrb9ybuXuKSCZGJohJTzUP0oUABLJAADHx9CJi4gkKMwhAIJcEEBNPtyMmnqAwgwAEckkAMfF0O2LiCQozCEAglwRyLybvvvuueemll8y+ffvKNgDEpCweDkIAAjknkGkx0Qvl9AbW5FtKnc/17QW9hG7s2LH2/UHuxXTueHyNmMRpsA0BCECgkECmxUSvA9frs0uJSf/+/c2GDRsskZkzZ9r7xgvxHNxDTA6yYAsCEIBAkkBmxcS90lpCUkxM9Erso446KuKxZMmS6NsOLlJTX27RdNhVV13lDrGGAAQgAIEYgUyKiaa33Bf4SomJez22Y5HcV3xHR4cVEImI3oTa3NzszCte37z0FRPKUnHlOAECEMg9gUyKiaa23Jfb9D0FLRKLePAZmcTtuzvNNXb+RtPYuqrul6Ez1sSrzTYEIAABLwKZFBP3pTyNSjRCiX/PWl+A06KQvGZy++23l4SGmJREwwEIQAAC2X+dSnKaq6mpybS3t1vXu7u5xo0b1+N3czEy4b8NAhDIMoFMjkzKOWzPnj1GiwvVes4EMXHEWUMAAlkkkDsxOVQnMs11qOQ4DwIQyAMBxMTTy4iJJyjMIACBXBJATDzdjph4gsIMAhDIJQHExNPtiIknKMwgAIFcEkBMPN2OmHiCwgwCEMglAcTE0+2IiScozCAAgVwSQEw83Y6YeILCDAIQyCUBxMTT7YiJJyjMIACBXBJATDzdjph4gsIMAhDIJQHExNPtiIknKMwgAIFcEkBMPN2OmHiCwgwCEMglAcTE0+2IiScozCAAgVwSQEw83Y6YeILCDAIQyCUBxMTT7YiJJyjMIACBXBJATDzdjph4gsIMAhDIJQHExNPtiIknKMwgAIFcEkBMPN2OmHiCwgwCEMglgUyKydq1a02/fv1MQ0ODOeuss4y+CV8sjBw50sSXYjYuDjFxJFhDAAIQ6Ewgs2Ly4Ycf2tq++OKL5phjjulcc2OskEh4fAJi4kMJGwhAIK8EMikmSWf26dMnGWX3NSrZsGGD0XfguwqISVeEOA4BCOSZQGbFRCMOjUgmTpxodu3aVdTHEpPp06ebU0891Rx22GHm/fffL7Dr6Ogw3/3ud+0yadIk09zcXHC8kp2x8zeaxtZVdb8MnbGmkmphCwEIQMASyKyYOP+uXLnSXjtJCoU77tZnnnmmefbZZ92uXUtM3nnnHbu89tpr5sorryw4XskOYlIJLWwhAIHQCGReTOQQjTw2bdpU1jcaocyYMaOkDdNcJdFwAAIQgIDJpJhIGNra2uwyd+5cOzJxvh4xYoRpb2+3u3PmzDHPPPOM+dGPfmRttm7d6sw6rRGTTkiIgAAEIBARyKSY6FbglpYWuyxatMj885//jCo8a9asSEx0PUV299xzj/nLX/4S2RTbQEyKUSEOAhCAwAECmRSTnnAuYtITVEkTAhDICgHExNOTiIknKMwgAIFcEkBMPN2OmHiCwgwCEMglAcTE0+2IiScozCAAgVwSQEw83Y6YeILCDAIQyCUBxMTT7YiJJyjMIACBXBJATDzdjph4gsIMAhDIJQHExNPtiIknKMwgAIFcEkBMPN2OmHiCwgwCEMglAcTE0+2IiScozCAAgVwSQEw83Y6YeILCDAIQyCUBxMTT7YiJJyjMIACBXBJATDzdjph4gsIMAhDIJQHExNPtiIknKMwgAIFcEkBMPN2OmHiCwgwCEMglAcTE0+2IiScozCAAgVwSQEw83Y6YeILCDAIQyCWBTIrJ2rVrjZbZs2eb5cuXm71795Z07tKlS839999vVq9eXdJGBxCTsng4CAEI5JxAZsVE33X/wx/+YKZOnWpGjhxZ1M36VvyQIUPMvHnzzGGHHWaefvrponaKRExKouEABCAAAZNJMUn6VWKikUoy9OnTx/z973+30Q888IDRN+FLBcSkFBniIQABCJjsionEQyOPMWPGmKuvvrqTr998803Tt2/fKH7ZsmWdRjAdHR1WhJTWqlWrzPnnnx/ZV7oxdv5G09i6qu6XoTPWVFo17CEAAQhkX0yuueYa87nPfc7s37+/wN2bN2+2U1wuUtdMktNhEhNdd9Hys5/9zDQ3NzvziteIScXIOAECEAiIQC6muQYMGGBeeeWVArfs2bPHNDQ02GshOvDII490EpP4CUxzxWmwDQEIQKCQQCbF5KmnnjL79u2zNf3rX/9qRcNVW6LR3t5udwcOHGja2trs9rRp0+zow9kl14hJkgj7EIAABA4SyKSY6FqJRh1ampqa7LUTV2WNUpyY7N6920yePNkcd9xxpqWlxZkUXSMmRbEQCQEIQMASyKSY9IRvEZOeoEqaEIBAVgggJp6eREw8QWEGAQjkkgBi4ul2xMQTFGYQgEAuCSAmnm5HTDxBYQYBCOSSAGLi6XbExBMUZhCAQC4JICaebkdMPEFhBgEI5JIAYuLpdsTEExRmEIBALgkgJp5uR0w8QWEGAQjkkkAQYqKHEJcsWVJTByEmNcVP5hCAQJ0TCEJM1q9fby644AJz0kknmR/+8IfmtddeqzpWxKTqyMkQAhAIiEAQYuJ46jUo+uiVXpNy1VVXmSeffNId6vE1YtLjiMkAAhAImEBQYqIRyk033WTF5M4777SvkB8/fnxV8CMmVcFMJhCAQKAEghATXTM55phjzLBhw4w+YhUPyW+QxI+luY2YpEmTtCAAgawRCEZMduzYUVP2iElN8ZM5BCBQ5wSCEJMtW7YYLfGwcOHC+G6PbyMmPY6YDCAAgYAJBCEm+nCVvsMeD+ecc058t8e3EZMeR0wGEIBAwASCEZPly5cXYB40aFDBfk/vICY9TZj0IQCBkAkEISaa4mpsbDQrVqww69atM6NHjzZTpkypKnfEpKq4yQwCEAiMQBBiIqYSFE13TZgwwXR1vURTYu6zvVrrbrBiQXeCxe2K2bg4xMSRYA0BCECgM4FgxKRz0UvHSEw2b95sDbR9xhlnFDWWmPzqV78qeiwZiZgkibAPAQhA4CCBIMRk7969dmorPorQtm8oZSsxufvuu83SpUvNRx99VDY5xKQsHg5CAAI5JxCEmGh6a/bs2YfkKj0pf//99xc99+qrrza6sH/PPfcYCcvOnTsL7Do6Oszw4cPtogcmm5ubC45XsjN2/kbT2Lqq7pehM9ZUUi1sIQABCFgCQYiJhCR5a7CP/1paWkpeL0mef/nll5e9FsPIJEmMfQhAAAIHCQQhJrr4rpHDnDlz7N1cuqNLS7lw8cUX25dBJm3++9//Gi3JMHHiRPPEE08ko6N9xCRCwQYEIACBTgSCEBONSjTVlVw61eZ/Ebp767zzzovs43dzNTU1Gb19WEECMmnSJKM4XVdJTnPF00dM4jTYhgAEIFBIIAgxKSxy13ttbW0mvqxcuTI6adOmTZGYSKRk5/N9FMQkQsgGBCAAgU4EghETPV/Sq1cvO9pQLXhosWcu5nMBvtP/CBEQgIAHgSDERBfg3UV4TXUp8G4uxMSjfWMCAQhUiUAQYiIB0ZSUu3YiNogJYlKl/xGygQAEPAgEISZ6FkTTXFpLWDRKueyyyzyql54J10zSY0lKEIBA9ggEISbCrvdxaTSiFz5KWPRUfDUDYlJN2uQFAQiERiAYMak1WMSk1h4gfwhAoJ4JBCEmGpXoocXkUk2wiEk1aZMXBCAQGoEgxGTXrl3RBXh3EV5TXdUMiEk1aZMXBCAQGoEgxKQYVC7AczdXsXZBHAQgUBsCQYqJRiq6EF/NwMikmrTJCwIQCI1AEGLi7uTS3VxuSX4TvqfBIyY9TZj0IQCBkAkEISb1ABgxqQcvUAYIQKBeCQQhJnrrb7mlGnARk2pQJg8IQCBUAsGIyTe/+U37uvjW1lZz6aWXFohLNeAjJtWgTB4QgECoBIIRk+SndwcMGFBV5ohJVXGTGQQgEBiBIMREF+Bvv/32ArT9+vUr2O/pHcSkpwmTPgQgEDKBIMREgPUlxJNPPtkMGTLESEgkMNUMiEk1aZMXBCAQGoFgxERg3333XbN+/fouGespeV2w17WVyZMnm9///vclz/n5z39uLrnkEmtf0sgYg5iUo8MxCEAg7wSCEZMtW7bYDl9CoaD9UkE2jz32mH0Fi15XP3bs2KKmX/va18z1119v3njjDXPBBReYJUuWFLVTJGJSEg0HIAABCJggxETiMGjQIPstk0P50qKmyJLhk08+MUceeaTZvXu3PfSLX/zCvkgyaef2ERNHgjUEIACBzgSCEJPufGnx3nvvtddbklXfvn27aWpqiqJXrlzZSUw6OjrMfffdZ5ef/vSnprm5ObKvdGPs/I2msbVn3qeVZrp8A75Sz2IPAQiIQDBiogvuGqFIWPRhLJ/P9s6bN88MHz7cfPzxx5287SsmL7zwgtGyevVqc+GFF3ZKxzcCMfElhR0EIBAigSDExImHvmcyePBgezdXV+/mkpCcdNJJ5tVXXy3qF6a5io+SGJkUbS5EQgACXRAIQkz0lmAJikYmWrRfLjz++OPmiCOOMBs3bozOcfbXXXedaW9vt7u60yt+AX7BggXOrNOaayadkBABAQhAICIQhJi4ayZRqbvYkEhoufnmm80dd9xhfvzjH0dn3HjjjZGYKJJbgwtHKIxMoqbCBgQgUAGBIMREtwFPmTLFjk4qqFuqpoxMUsVJYhCAQMYIBCEmxb5n4nMBPk1fISZp0iQtCEAgawTqWkz0FHtbW1un6x61cAJiUgvq5AkBCIRCoO7FZNmyZfb5j3Xr1tWUKWJSU/xkDgEI1DmBuhYTvd6kd+/e5jOf+YwVFN0aHF+qyRYxqSZt8oIABEIjUNdiIpjvvfde9E4ud2uwW1cTNmJSTdrkBQEIhEag7sWkXoAiJvXiCcoBAQjUIwHExNMriIknKMwgAIFcEkBMPN2OmHiCwgwCEMglAcTE0+2IiScozCAAgVwSqGsxufvuu+1Hq/ThqmJLNT2GmFSTNnlBAAKhEahrMXn77bdNuaWasBGTatImLwhAIDQCdS0m+/fvN+WWasJGTKpJm7wgAIHQCNS1mGiaa9iwYSWXasJGTKpJm7wgAIHQCNS1mNQTTMSknrxBWSAAgXojEIyY6Kn3qVOnmtGjR5s5c+ZU/XX0iEm9NV3KAwEI1BOBIMREQjJo0CCjT/VqWx/LmjBhQlU5IiZVxU1mEIBAYASCEJNiX1r0+Z6JPu9b7hO/7h1fbl3Od4hJOTocgwAE8k4gCDGZPXu20eKCvgfflZg0Njba0YyEqFSIv4FY2+UCYlKODscgAIG8EwhCTJx4DB482L6CXkKhKa+ugpsSK2UnAXnooYdKHS6IR0wKcLADAQhAoIBAEGIiUXBTVvoevG/wEZNRo0aZG264waxcubJTsh0dHeatt96yy7Zt28wVV1zRycY3Yuz8jaaxdVXdL0NnrPGtEnYQgAAEIgJBiEmxayZRDcpsdCUmDz/8sJFgyK6hocFs3bq1IDUdEyAtN954o2lubi44XskOYlIJLWwhAIHQCAQhJursNSW1YsUKo8/3uqUr2F2JSfz82267zdx5553xqIJtprkKcLADAQhAoIBAEGKycOFCe8FdF93jS0FNiuwUE5P169eb9vZ2a61rMQr79u2zYvXss88WSeVAFGJSEg0HIAABCNgZHF0W6MnQ0JOJl0pboqML9v369bNC4a61NDU1RWJy+umn2+ktTXGdffbZ5v333y+VnEFMSqLhAAQgAIHsiknavkVM0iZKehCAQJYIBDHNVQ/AEZN68AJlgAAE6pUAYuLpGcTEExRmEIBALgkgJp5uR0w8QWEGAQjkkgBi4ul2xMQTFGYQgEAuCSAmnm5HTDxBYQYBCOSSAGLi6XbExBMUZhCAQC4JICaebkdMPEFhBgEI5JIAYuLpdsTEExRmEIBALgkgJp5uR0w8QWEGAQjkkgBi4ul2xMQTFGYQgEAuCSAmnm5HTDxBYQYBCOSSAGLi6XbExBMUZhCAQC4JICaebkdMPEFhBgEI5JIAYuLpdsTEExRmEIBALgkgJp5uR0w8QWEGAQjkkgBi4ul2xMQTFGYQgEAuCSAmnm5HTDxBYQYBCOSSQGbFZMqUKfZzvfp+fKmwe/duM3nyZNOnTx/T0tJSyszGIyZl8XAQAhDIOYHMisny5cuNhGTatGklXTxw4EDT1tZmj8tu7ty5JW0Rk5JoOAABCEAg29+AX7t2bUkx2bNnj2loaDASCYVHHnnEjmRKtQnEpBQZ4iEAAQiY/IrJ5s2bzZAhQ6I2sHr16k5i0tHRYae/NAU2evRo09zcHNlXujF2/kbT2Lqq7pehM9ZUWjXsPQj8/uX/Z0JZPKqDSYUEQvG9ynmoIbPTXAJSbmTy+uuvm759+0bcHn/88U5i8p///Me45YMPPjDjx4+P7CvdQEwqJZYt+2/84oW6/yGhHztn37c2W+DrpDbnPbAuCP9fOGf9IRPLrZh8+umn5vjjjzfbtm2z8GbNmtVJTOJUmeaK02C7UgKISaXEsmWPmKTjz4Z0kqksFV1QnzhxohWI6dOnm127dtkEmpqaTHt7u91W/EUXXWTmz59vDj/8cKOL9qUCYlKKDPE+BBATH0rZtUFM0vFtTcREU1zxZe/evbY2ixcvjsREEUuXLjX333+/eeaZZ8rWFjEpi4eDXRBATLoAlPHDiEk6Dq6JmKRT9IOpICYHWbBVOQHEpHJmWToDMUnHm4iJMYYL8Ok0plBTQUxC9Vw65UZM0uGImCAm6bSkgFNBTAJ2XgpFR0xSgGiMQUwQk3RaUsCpICYBOy+FoiMmKUBETA5AZJorncYUaiqISaieS6fciEk6HBmZMDJJpyUFnApiErDzUig6YpICREYmByAyMkmnMYWaCmISqufSKTdikg5HRiaMTNJpSQGngpgE7LwUio6YpACRkckBiIxM0mlMoaaCmITquXTKjZikw5GRCSOTdFpSwKkgJgE7L4WiIyYpQGRkcgAiI5N0GlOoqSAmoXounXIjJulwZGTCyCSdlhRwKohJwM5LoeiISQoQGZkcgMjIJJ3GFGoqiEmonkun3IhJOhwZmTAySaclBZwKYhKw81IoOmKSAkRGJgcgMjJJpzGFmgpiEqrn0ik3YpIOR0YmjEzSaUkBp4KYBOy8FIqOmKQAkZHJAYiMTNJpTKGmgpiE6rl0yo2YpMOxZiOT1tZWo6VU0Gd740spO8XzcaxydDjWFQHEpCtC2T6OmKTj35qISUtLi7n++uvtou1iYeTIkYhJ6yrTGFuGzlhTDBVx3SSAmHQTYOCnIybpOLDqYvKnP/3JSChc6N+/v1mzpnMnKRt9/90nMDLxoYRNKQKISSky+YhHTNLxc9XF5De/+Y2ZOHFiVPpx48aZRx99NNp3GxKTwYMHm2OPPdaMGTPGfPzxx+6QXXd0dJhly5bZZdGiRaa5ubngeCU7XDOphFb2bBGT7Pm0khohJpXQKm1bdTGZNWuWuf3226MSaVtxyfDyyy/bKInGCSecYDZs2FBgovjFixfbZd68eYhJAR12KiGAmFRCK3u2iEk6Pq26mKxcudKcf/75UelHjBhhFFcutLW1mVLXVnQe01zl6HGsKwKISVeEsn0cMUnHv1UXk3379plRo0aZzZs3m+eee85MmjTJKE5h5syZpr293W6vW7fOrnfu3GlOOeWUTiMTe/B/fxCTOA22KyWAmFRKLFv2iEk6/qy6mKjYGmlIILRo24Vzzz03EpOGhgbTt29fM2DAACs4yWsm7hytEZM4DbYrJYCYVEosW/aISTr+rImYpFP0g6kgJgdZsFU5AcSkcmZZOgMxScebiAmvU0mnJQWcCmISsPNSKDpikgJEXqdyACK3BqfTmEJNBTEJ1XPplBsxSYcjIxNGJum0pIBTQUwCdl4KRUdMUoDIyOQAREYm6TSmUFNBTEL1XDrlRkzS4cjIhJFJOi0p4FQQk4Cdl0LREZMUIDIyOQCRkUk6jSnUVBCTUD2XTrkRk3Q4MjJhZJJOSwo4FcQkYOelUHTEJAWIjEwOQGRkkk5jCjUVxCRUz6VTbsQkHY6MTBiZpNOSAk4FMQnYeSkUHTFJASIjkwMQGZmk05hCTQUxCdVz6ZQbMUmHIyMTRibptKSAU0FMAnZeCkVHTFKAyMjkAERGJuk0plBTQUxC9Vw65UZM0uHIyISRSTotKeBUEJOAnZdC0RGTFCAyMjkAkZFJOo0p1FQQk1A9l065EZN0ODIyYWSSTksKOBXEJGDnpVB0xCQFiIxMDkBkZJJOYwo1FcQkVM+lU27EJB2ONRuZ6LO9WsqFd99917z00kvRZ31L2fJxrFJkiPchgJj4UMquDWKSjm9rIibTp083J554ol20XSzoc776dO/YsWPtp3u3b99ezMzGISYl0XDAgwBi4gEpwyaISTrOrbqYbNq0yVxxxRVR6Y877jiza9euaN9t9O/f32zYsMHuzpw509x1113uUKc1YtIJCREVEEBMKoCVQVPEJB2nVl1MNOK47LLLotJfcsklRnHx8M4775ijjjoqilqyZCYf3fcAAAi+SURBVIkZOXJktJ/cQEySRNivhABiUgmt7NkiJun4tOpiommt+NRWcl/VWrt2bYF4JPdl09HRYb7xjW/Ypbm52Rx77LHRvov3WZ933nnmhH6nmCH/1xzE4lOncjann366+epXv3pIrMqlW6/HTjvtNHPRRReVrW8ovlc5u+Ks+nZlk5Xjw4cPN1/5yle6Xd9Q/K9+Sj+qD8V/J598stGsUE+GqovJ7373O9PS0hLV6dJLLzWKi4fdu3cXjEwWLlxYIC5x2+5uv/XWW+bWW2/tbjLBnP/YY4+ZJ554IpjydregEyZMMHv37u1uMsGcHx/1B1PoQyzon//8ZzNnzpxDPDu8037yk5+YrVu31m3Bqy4myVFGnz59oru63nvvPaNFYciQIQXXTK6//voegYiY9AjWukkUMakbV6ReEMQkdaTdSrDqYqLSamqr2N1cTU1Npr293VbI3c01bty4Lu/m6g4BxKQ79Or/3LyJif5f8hIQk/rydE3ERAiKPWeiu7rid3b5PmdSX0gpDQQgAIH8EaiZmOQPNTWGAAQgkF0CiEl2fUvNIAABCFSNQO7FZPbs2UYX91999dWqQa9mRro+pbvnks/yqAzz5s0zDz/8sCn3doFqljWtvDRVGr/9XOmqjvJz1u7+WblypZk0aZL18ZtvvhkhXL58uY1bsWJFFBf6hnzoHiVItln5NfT/Y911uG7dOlvH+HR/vP2qv0qG1tZWo+WTTz5JHqrqfq7FRA1Td409+OCD9iK/rtFkKbh/PAmJ23b1k8Don++OO+6wdddzO1kJuj22sbExqo78OmDAAOtn3ac/fvz46FjIG8uWLbOvHNIPAvlYd0oqSGD0KiJ3E4v2sxA+//nPGz3AvHTpUvtcmatT/P9Yz1GF+n+sRyCmTJli267zpepYrv26/+PJkyebM8880+gB7lqF3IrJp59+ao4//nizbds2yz7Z2dbKIWnmm/ylog5GYc2aNUavq3FBna/qn4WgX25azjnnnKg6qts111wT7TsOUUSAG2q/ehCtWPj6179ufv3rX9tDzz//vBk1alQxs6Di9HxFvB7afvnll82///1v88UvfjGqi/wceltW242LSbL9Hn300fZ48v/43HPPtSObCEaVN3IrJq+//rrp27dvhHvRokVGt5FmNWhKy72S5tFHHzXxW0hvvPHG4P8B5TdNEzgRcWvFT5w4MepctX/KKaeYHTt2BO1qtd8vf/nLZvTo0XYUcvnll5udO3faOvXr1y/6kaRXE8VHaSFXWr/a9V4/Pej87W9/21bljTfeMKqvCxJR+TvkkBSTZPuV3yU2yf9jMVmwYEHNqp5bMdGtyWeccUYEXlMB+kWXxaD5ZXWg7tfOrFmzzG233RZV9fvf/34mxEQjrC1btth6xcVEnc+TTz4Z1Vevk9GnDUIOar964PeFF16w1bj33nvNLbfcYrf1Xrs9e/bY7f3795sjjzwy5Krasn/44YdGv7xvuOEG853vfMecffbZRnHioKlqF+Rn+TvkkBSTZPsdNmyY/V9O/h9/73vfM/fdd1/Nqp5bMdE/m6Y73Pyq/hl1EStrQTcW6HpB/IKlhFPzqy6MGTMmE2LSq1cvO/rSCKx37952W+Iiv8bF87Of/WyX38hxbOp17dqvK59+KLiR54gRI4yupyi88sorRvuhB11P0HUBF7StuCQH+Tn0/+OkmCTb7wknnGDFJPl/rB/DTz31lENU9XVuxUSkdfFq2rRpRlMG+tWjxpmlICGZO3eu+cc//lFQrX379tmpAV2gffrpp+2oxf3CLTAMeCc+MlFHq6kBCaru+hk4cGDANTtYdLVfN9q89tpro6kf/Tq98sorraGmMDUVFnrQ3U2aztL0pBZtuzue9KPwgQcesP7Viy51R1TIISkm8fb70EMPGX22QyH+fywRERO917BWIddi8v7779u7JzSM/O1vf1srH/RYvmpcQ4cONRoWn3XWWdH1BGWob8WoA9LHx7JYd82vx4PqKD8r/rXXXosfCnZb7Vd35Kkz1Ztk40EXbXWROvSL0fE6aTr2S1/6kl207YL7PxaDxYsXu+jg1hpFS0jcEm/Dqlex9uv+j/W/rAvytQy5FpNagidvCEAAAlkigJhkyZvUBQIQgECNCCAmNQJPthCAAASyRAAxyZI3qQsEIACBGhFATGoEnmwhAAEIZIkAYpIlb1KXmhPQbZzudt2aF4YCQKCKBBCTKsImq+wT0K24Xd2Oq+eZsvZMU/Y9Sw27IoCYdEWI47km4EYaxQRCD83pATn3CheBcvbaVrzeF6a4+IN0egec3rekOB135yXTsgf4A4FACCAmgTiKYtaGgF5RoifI9UoLPRzoREVCoRco6g0KeieYe8AsPjJxD585G60V4vESJO3rfB0v9r2K2tScXCFQGQHEpDJeWOeMgMTkpptusrXWa3cOP/xwu63RhT5A5YJ7M29STJyNEw3ZSzScsGhf7xSLj25cmqwhEBIBxCQkb1HWqhOQmMQvqLt9jSbi8dqXYCTFJGmjCiTFRELiPujlRj5VrygZQqCbBBCTbgLk9GwTkHjoZYkKyZGJu4iu6x6lRiY+YhInOGjQoPgu2xAIhgBiEoyrKGgtCEhMNJK47rrrCq6ZaBSijl8jicGDB0d3Z/mMTDQS0blTp061oxmXjvYRk1p4mTzTIICYpEGRNDJLwE1rbdq0qWgdNfKQsHQnuDu+4qOY7qTHuRCoBQHEpBbUyTMYAk5MgikwBYVAjQggJjUCT7ZhENBogRFDGL6ilLUlgJjUlj+5QwACEMgEAcQkE26kEhCAAARqSwAxqS1/cocABCCQCQKISSbcSCUgAAEI1JYAYlJb/uQOAQhAIBMEEJNMuJFKQAACEKgtAcSktvzJHQIQgEAmCCAmmXAjlYAABCBQWwKISW35kzsEIACBTBBATDLhRioBAQhAoLYEEJPa8id3CEAAApkggJhkwo1UAgIQgEBtCfx/5oOP9lP4UQAAAAAASUVORK5CYII=;" vertex="1" parent="1">
          <mxGeometry x="520.05" y="767.94" width="274.47" height="192.06" as="geometry" />
        </mxCell>
        <mxCell id="9fY33cOpb0TvVjGmPDQJ-13" value="These plots show a histogram of the max points for rolls with x number of dice. The stats given above exist within this data set.&amp;nbsp;" style="text;html=1;align=left;verticalAlign=middle;resizable=0;points=[];autosize=1;strokeColor=none;" vertex="1" parent="1">
          <mxGeometry x="20" y="990" width="690" height="20" as="geometry" />
        </mxCell>
      </root>
    </mxGraphModel>
  </diagram>
</mxfile>
